SplineFontDB: 3.0
FontName: WebAtlas
FullName: WebAtlas
FamilyName: WebAtlas
Weight: Regular
Copyright: MIT License 2018, Louis MORAES.
Version: 0.6.0
ItalicAngle: 0
UnderlinePosition: -170
UnderlineWidth: 50
Ascent: 800
Descent: 200
InvalidEm: 0
sfntRevision: 0x00010000
LayerCount: 2
Layer: 0 1 "Arri+AOgA-re" 1
Layer: 1 1 "Avant" 0
XUID: [1021 206 1625637039 14079]
StyleMap: 0x0040
FSType: 8
OS2Version: 3
OS2_WeightWidthSlopeOnly: 0
OS2_UseTypoMetrics: 0
CreationTime: 1375896762
ModificationTime: 1556738823
PfmFamily: 81
TTFWeight: 400
TTFWidth: 5
LineGap: 0
VLineGap: 0
Panose: 0 0 5 0 0 0 0 0 0 0
OS2TypoAscent: 700
OS2TypoAOffset: 0
OS2TypoDescent: -201
OS2TypoDOffset: 0
OS2TypoLinegap: 299
OS2WinAscent: 999
OS2WinAOffset: 0
OS2WinDescent: 201
OS2WinDOffset: 0
HheadAscent: 999
HheadAOffset: 0
HheadDescent: -201
HheadDOffset: 0
OS2SubXSize: 650
OS2SubYSize: 600
OS2SubXOff: 0
OS2SubYOff: 75
OS2SupXSize: 650
OS2SupYSize: 600
OS2SupXOff: 0
OS2SupYOff: 350
OS2StrikeYSize: 50
OS2StrikeYPos: 292
OS2CapHeight: 690
OS2XHeight: 487
OS2Vendor: 'UKWN'
OS2CodePages: 20000097.00000000
OS2UnicodeRanges: 00002eff.00000000.00000000.00000000
Lookup: 258 0 0 "'kern' Cr+AOkA-nage horizontal lookups0" { "'kern' Cr+AOkA-nage horizontal lookups0 per glyph data 0"  "'kern' Cr+AOkA-nage horizontal lookups0 classe de cr+AOkA-nage 1"  "'kern' Cr+AOkA-nage horizontal lookups0 classe de cr+AOkA-nage 2"  "'kern' Cr+AOkA-nage horizontal lookups0 classe de cr+AOkA-nage 3"  } ['kern' ('DFLT' <'dflt' > 'cyrl' <'dflt' > 'grek' <'dflt' > 'latn' <'dflt' > ) ]
MarkAttachClasses: 1
DEI: 91125
KernClass2: 45 58 "'kern' Cr+AOkA-nage horizontal lookups0 classe de cr+AOkA-nage 1"
 0 
 0 
 0 
 0 
 0 
 0 
 0 
 0 
 0 
 0 
 0 
 0 
 0 
 0 
 0 
 0 
 0 
 0 
 0 
 0 
 0 
 0 
 0 
 0 
 0 
 0 
 0 
 0 
 0 
 0 
 0 
 0 
 0 
 0 
 0 
 0 
 0 
 0 
 0 
 0 
 0 
 0 
 0 
 0 
 0 
 0 
 0 
 6 hyphen
 0 
 20 quotedbl quotesingle
 0 
 0 
 0 
 0 
 0 
 8 asterisk
 0 
 0 
 0 
 0 
 0 
 0 
 0 
 0 
 0 
 0 
 0 
 0 
 0 
 0 
 0 
 0 
 0 
 0 

StartChar: asterisk
Encoding: 42 42 3
Width: 604
VWidth: 0
GlyphClass: 2
Flags: W
LayerCount: 2
Fore
SplineSet
318.320618913 796.003690651 m 0,0,1
 319.717164479 796.068877724 319.717164479 796.068877724 321.057464704 796.068877724 c 0,2,3
 352.498761173 796.068877724 352.498761173 796.068877724 352.988446674 760.196662901 c 0,4,5
 352.988446674 760.113151437 352.988446674 760.113151437 353.277373433 680.429427936 c 2,6,-1
 353.297174595 674.968423631 l 1,7,-1
 358.045144573 676.636473733 l 2,8,9
 423.003723645 697.591074149 423.003723645 697.591074149 433.608810806 701.028341398 c 0,10,11
 442.63457067 703.965315064 442.63457067 703.965315064 450.023154254 703.965315064 c 0,12,13
 473.502778529 703.965315064 473.502778529 703.965315064 480.449262603 674.30607924 c 0,14,15
 481.892452108 668.14779787 481.892452108 668.14779787 481.892452108 662.788654141 c 0,16,17
 481.892452108 640.148425435 481.892452108 640.148425435 456.135517701 631.770589675 c 0,18,19
 441.829516537 627.091823721 441.829516537 627.091823721 415.660383944 618.454708908 c 128,-1,20
 389.494398545 609.818644762 389.494398545 609.818644762 380.383065172 606.832286702 c 2,21,-1
 375.187139951 605.129252086 l 1,22,-1
 378.383556532 600.69293753 l 2,23,24
 417.326040832 546.644566302 417.326040832 546.644566302 425.030990207 536.042891643 c 0,25,26
 430.250672978 528.842688588 430.250672978 528.842688588 432.848811759 522.387162609 c 0,27,28
 435.279419075 516.347897582 435.279419075 516.347897582 435.279419075 510.876845445 c 0,29,30
 435.279419075 491.080367891 435.279419075 491.080367891 403.45584615 478.723415523 c 0,31,32
 397.983056154 476.720807433 397.983056154 476.720807433 392.844437587 476.720807433 c 0,33,34
 378.080103381 476.720807433 378.080103381 476.720807433 366.074467972 493.253018347 c 0,35,36
 357.69283251 505.282169571 357.69283251 505.282169571 342.937089035 527.314227279 c 128,-1,37
 328.182359052 549.356500036 328.182359052 549.356500036 322.694670469 557.569290668 c 2,38,-1
 319.747812265 561.979512843 l 1,39,-1
 316.800349346 557.569775419 l 2,40,41
 282.016604463 505.529364467 282.016604463 505.529364467 273.428096577 493.29908562 c 0,42,43
 261.042201257 477.216179043 261.042201257 477.216179043 246.33232462 477.216179043 c 0,44,45
 235.405259 477.216179043 235.405259 477.216179043 223.195798801 486.090876984 c 0,46,47
 206.32362913 498.356459431 206.32362913 498.356459431 206.32362913 513.511446139 c 0,48,49
 206.32362913 524.096066876 206.32362913 524.096066876 214.55382966 536.090131505 c 0,50,51
 222.54146112 547.184064089 222.54146112 547.184064089 239.403388274 570.53765743 c 128,-1,52
 256.255239124 593.881806868 256.255239124 593.881806868 261.166210854 600.691531028 c 2,53,-1
 264.361320565 605.121981486 l 1,54,-1
 259.17302277 606.830543257 l 2,55,56
 195.081469163 627.936575082 195.081469163 627.936575082 183.430998199 631.761579103 c 0,57,58
 157.874732741 640.497811815 157.874732741 640.497811815 157.874732741 662.031701596 c 0,59,60
 157.874732741 669.055550212 157.874732741 669.055550212 160.593692026 677.440955687 c 0,61,62
 169.05067434 703.497821996 169.05067434 703.497821996 191.038042593 703.497821996 c 0,63,64
 197.820506781 703.497821996 197.820506781 703.497821996 205.890445668 701.018398554 c 0,65,66
 217.447331576 697.251883107 217.447331576 697.251883107 243.169317339 689.033509351 c 128,-1,67
 268.875992616 680.820027414 268.875992616 680.820027414 281.439533462 676.640010625 c 2,68,-1
 286.199678885 674.951097079 l 1,69,-1
 286.217328504 680.43120324 l 2,70,71
 286.260122798 693.718587918 286.260122798 693.718587918 286.356421512 720.320071605 c 128,-1,72
 286.452717654 746.909037813 286.452717654 746.909037813 286.506130492 760.188242979 c 0,73,74
 286.968605284 794.514896713 286.968605284 794.514896713 318.320618913 796.003690651 c 0,0,1
EndSplineSet
Validated: 1
EndChar

StartChar: plus
Encoding: 43 43 4
Width: 684
VWidth: 37
GlyphClass: 2
Flags: W
LayerCount: 2
Fore
SplineSet
345 568 m 0,0,1
 387 568 387 568 387 526 c 2,2,-1
 387 371 l 1,3,-1
 387 367 l 1,4,-1
 390 367 l 1,5,-1
 542 367 l 2,6,7
 584 367 584 367 584 325 c 128,-1,8
 584 283 584 283 542 283 c 2,9,-1
 390 283 l 1,10,-1
 387 283 l 1,11,-1
 387 279 l 1,12,-1
 387 125 l 2,13,14
 387 82 387 82 346 82 c 128,-1,15
 305 82 305 82 305 124 c 2,16,-1
 305 279 l 1,17,-1
 305 283 l 1,18,-1
 302 283 l 1,19,-1
 150 283 l 2,20,21
 108 283 108 283 108 325 c 128,-1,22
 108 367 108 367 150 367 c 2,23,-1
 302 367 l 1,24,-1
 305 367 l 1,25,-1
 305 371 l 1,26,-1
 305 525 l 2,27,28
 305 568 305 568 345 568 c 0,0,1
EndSplineSet
Validated: 1
EndChar

StartChar: hyphen
Encoding: 45 45 5
Width: 684
VWidth: 37
GlyphClass: 2
Flags: W
LayerCount: 2
Fore
SplineSet
149 288 m 2,0,-1
 541 288 l 2,1,2
 583 288 583 288 583 246 c 128,-1,3
 583 204 583 204 541 204 c 2,4,-1
 149 204 l 2,5,6
 106 204 106 204 106 246 c 128,-1,7
 106 288 106 288 149 288 c 2,0,-1
EndSplineSet
Validated: 1
EndChar

StartChar: less
Encoding: 60 60 6
Width: 537
GlyphClass: 2
Flags: W
LayerCount: 2
Fore
SplineSet
447.870117188 577.111328125 m 0,0,1
 464.206054688 576.625976562 464.206054688 576.625976562 475.767578125 564.715820312 c 128,-1,2
 487.329101562 552.8046875 487.329101562 552.8046875 487.329101562 536.461914062 c 0,3,4
 487.329101562 525.802734375 487.329101562 525.802734375 480.510742188 515.032226562 c 128,-1,5
 473.692382812 504.262695312 473.692382812 504.262695312 464.05859375 499.703125 c 2,6,-1
 157.967773438 349.500976562 l 1,7,-1
 464.05859375 199.298828125 l 2,8,9
 473.70703125 194.744140625 473.70703125 194.744140625 480.536132812 183.96875 c 128,-1,10
 487.365234375 173.193359375 487.365234375 173.193359375 487.365234375 162.5234375 c 0,11,12
 487.365234375 145.686523438 487.365234375 145.686523438 475.44921875 133.771484375 c 128,-1,13
 463.534179688 121.85546875 463.534179688 121.85546875 446.697265625 121.85546875 c 0,14,15
 436.93359375 121.85546875 436.93359375 121.85546875 428.232421875 126.2890625 c 2,16,-1
 47.74609375 312.995117188 l 2,17,18
 38.3291015625 317.618164062 38.3291015625 317.618164062 31.6650390625 328.314453125 c 128,-1,19
 25 339.010742188 25 339.010742188 25 349.500976562 c 128,-1,20
 25 359.991210938 25 359.991210938 31.6650390625 370.6875 c 128,-1,21
 38.3291015625 381.383789062 38.3291015625 381.383789062 47.74609375 386.006835938 c 2,22,-1
 428.232421875 572.712890625 l 2,23,24
 436.920898438 577.129882812 436.920898438 577.129882812 446.6640625 577.129882812 c 0,25,26
 447.237304688 577.129882812 447.237304688 577.129882812 447.870117188 577.111328125 c 0,0,1
EndSplineSet
Validated: 1
EndChar

StartChar: greater
Encoding: 62 62 7
Width: 537
GlyphClass: 2
Flags: W
LayerCount: 2
Fore
SplineSet
64.4951171875 577.111328125 m 0,0,1
 65.1279296875 577.129882812 65.1279296875 577.129882812 65.701171875 577.129882812 c 0,2,3
 75.4443359375 577.129882812 75.4443359375 577.129882812 84.1328125 572.712890625 c 2,4,-1
 464.619140625 386.006835938 l 2,5,6
 474.036132812 381.383789062 474.036132812 381.383789062 480.700195312 370.6875 c 128,-1,7
 487.365234375 359.991210938 487.365234375 359.991210938 487.365234375 349.500976562 c 128,-1,8
 487.365234375 339.010742188 487.365234375 339.010742188 480.700195312 328.314453125 c 128,-1,9
 474.036132812 317.618164062 474.036132812 317.618164062 464.619140625 312.995117188 c 2,10,-1
 84.1328125 126.2890625 l 2,11,12
 75.431640625 121.85546875 75.431640625 121.85546875 65.66796875 121.85546875 c 0,13,14
 48.8310546875 121.85546875 48.8310546875 121.85546875 36.916015625 133.771484375 c 128,-1,15
 25 145.686523438 25 145.686523438 25 162.5234375 c 0,16,17
 25 173.193359375 25 173.193359375 31.8291015625 183.96875 c 128,-1,18
 38.658203125 194.744140625 38.658203125 194.744140625 48.306640625 199.298828125 c 2,19,-1
 354.397460938 349.500976562 l 1,20,-1
 48.306640625 499.703125 l 2,21,22
 38.6728515625 504.262695312 38.6728515625 504.262695312 31.8544921875 515.032226562 c 128,-1,23
 25.0361328125 525.802734375 25.0361328125 525.802734375 25.0361328125 536.461914062 c 0,24,25
 25.0361328125 552.8046875 25.0361328125 552.8046875 36.59765625 564.715820312 c 128,-1,26
 48.1591796875 576.625976562 48.1591796875 576.625976562 64.4951171875 577.111328125 c 0,0,1
EndSplineSet
Validated: 1
EndChar

StartChar: K
Encoding: 75 75 8
Width: 532
VWidth: 0
GlyphClass: 2
Flags: W
LayerCount: 2
Fore
SplineSet
441.846679688 686.237304688 m 2,0,1
 453.390625 698.0390625 453.390625 698.0390625 470.12109375 698.48046875 c 0,2,3
 488.020507812 698.48046875 488.020507812 698.48046875 500.004882812 686.877929688 c 128,-1,4
 512 675.264648438 512 675.264648438 512 658.8515625 c 0,5,6
 512 642.025390625 512 642.025390625 499.556640625 630.393554688 c 2,7,-1
 187.95703125 350.983398438 l 1,8,-1
 499.72265625 67.3916015625 l 2,9,10
 511.91015625 55.791015625 511.91015625 55.791015625 511.91015625 39.1748046875 c 0,11,12
 511.91015625 22.7626953125 511.91015625 22.7626953125 499.915039062 11.1494140625 c 128,-1,13
 487.920898438 -0.4638671875 487.920898438 -0.4638671875 470.967773438 -0.4638671875 c 0,14,15
 453.615234375 -0.4638671875 453.615234375 -0.4638671875 441.596679688 11.9541015625 c 2,16,-1
 131.76171875 301.044921875 l 1,17,-1
 131.76171875 39.93359375 l 2,18,19
 131.765625 22.56640625 131.765625 22.56640625 119.76953125 10.5703125 c 128,-1,20
 107.774414062 -1.4248046875 107.774414062 -1.4248046875 90.8212890625 -1.4248046875 c 128,-1,21
 73.8681640625 -1.4248046875 73.8681640625 -1.4248046875 61.8740234375 10.5703125 c 0,22,23
 49.8779296875 22.17578125 49.8779296875 22.17578125 49.8779296875 38.5810546875 c 2,24,-1
 49.87890625 658.291015625 l 2,25,26
 49.87890625 674.673828125 49.87890625 674.673828125 61.6826171875 686.268554688 c 0,27,28
 73.732421875 698.104492188 73.732421875 698.104492188 90.306640625 698.107421875 c 0,29,30
 107.778320312 698.107421875 107.778320312 698.107421875 119.76953125 686.116210938 c 128,-1,31
 131.76171875 674.124023438 131.76171875 674.124023438 131.76171875 656.750976562 c 2,32,-1
 131.76171875 401 l 1,33,-1
 441.846679688 686.237304688 l 2,0,1
EndSplineSet
EndChar

StartChar: L
Encoding: 76 76 9
Width: 433
VWidth: 0
GlyphClass: 2
Flags: W
LayerCount: 2
Fore
SplineSet
61.8896484375 689.930664062 m 128,-1,1
 73.7509765625 701.58984375 73.7509765625 701.58984375 90.6337890625 701.8359375 c 0,2,3
 108.206054688 701.8359375 108.206054688 701.8359375 120.254882812 690.216796875 c 128,-1,4
 132.306640625 678.59375 132.306640625 678.59375 132.306640625 662.16796875 c 2,5,-1
 132.303710938 212.432617188 l 2,6,7
 132.303710938 112.338867188 132.303710938 112.338867188 133.037109375 104.119140625 c 0,8,9
 134.383789062 89.0048828125 134.383789062 89.0048828125 137.358398438 84.34765625 c 0,10,11
 148.249023438 79.150390625 148.249023438 79.150390625 195.52734375 78.6787109375 c 0,12,13
 199.548828125 78.6416015625 199.548828125 78.6416015625 205.125976562 78.6416015625 c 0,14,15
 228.797851562 78.6416015625 228.797851562 78.6416015625 280.490234375 79.3125 c 0,16,17
 334.734375 80.142578125 334.734375 80.142578125 371.423828125 80.146484375 c 0,18,19
 388.8984375 80.146484375 388.8984375 80.146484375 400.946289062 68.0966796875 c 128,-1,20
 413 56.044921875 413 56.044921875 413 39.0107421875 c 128,-1,21
 413 21.9765625 413 21.9765625 400.948242188 9.9248046875 c 128,-1,22
 389.03125 -2 389.03125 -2 371.61328125 -2.1279296875 c 1,23,24
 336.193359375 -2.1279296875 336.193359375 -2.1279296875 282.307617188 -2.9638671875 c 0,25,26
 231.161132812 -3.6337890625 231.161132812 -3.6337890625 205.775390625 -3.6337890625 c 0,27,28
 199.215820312 -3.6337890625 199.215820312 -3.6337890625 194.375976562 -3.5888671875 c 0,29,30
 121.545898438 -2.8349609375 121.545898438 -2.8349609375 93.0322265625 14.568359375 c 0,31,32
 56.1904296875 37.0546875 56.1904296875 37.0546875 51.0673828125 94.751953125 c 0,33,34
 50.03125 106.424804688 50.03125 106.424804688 50.03125 210.3515625 c 2,35,-1
 50.03125 661.590820312 l 2,36,0
 50.02734375 678.268554688 50.02734375 678.268554688 61.8896484375 689.930664062 c 128,-1,1
EndSplineSet
EndChar

StartChar: M
Encoding: 77 77 10
Width: 592
VWidth: 0
GlyphClass: 2
Flags: W
LayerCount: 2
Fore
SplineSet
62.0048828125 690.73828125 m 0,0,1
 73.9970703125 702.732421875 73.9970703125 702.732421875 91.994140625 702.732421875 c 0,2,3
 107.115234375 702.291992188 107.115234375 702.291992188 118.275390625 692.33203125 c 2,4,-1
 291.405273438 548.005859375 l 1,5,-1
 464.536132812 692.333984375 l 2,6,7
 476.1953125 702.739257812 476.1953125 702.739257812 491.821289062 702.739257812 c 0,8,9
 508.788085938 702.739257812 508.788085938 702.739257812 520.791015625 690.735351562 c 0,10,11
 532.796875 679.124023438 532.796875 679.124023438 532.796875 662.697265625 c 2,12,-1
 531.928710938 38.8515625 l 2,13,14
 531.931640625 22.087890625 531.931640625 22.087890625 519.926757812 10.4765625 c 0,15,16
 507.922851562 -1.529296875 507.922851562 -1.529296875 490.956054688 -1.529296875 c 128,-1,17
 473.989257812 -1.529296875 473.989257812 -1.529296875 461.986328125 10.4755859375 c 128,-1,18
 449.98046875 22.4794921875 449.98046875 22.4794921875 449.98046875 39.4619140625 c 2,19,-1
 450.727539062 593.1484375 l 1,20,-1
 321.54296875 485.51953125 l 2,21,22
 308.663085938 475.111328125 308.663085938 475.111328125 291.399414062 475.111328125 c 128,-1,23
 274.1328125 475.111328125 274.1328125 475.111328125 261.254882812 485.520507812 c 2,24,-1
 132.024414062 593.18359375 l 1,25,-1
 132.50390625 39.7451171875 l 2,26,27
 132.506835938 22.4404296875 132.506835938 22.4404296875 120.500976562 10.4365234375 c 128,-1,28
 108.497070312 -1.5693359375 108.497070312 -1.5693359375 91.5302734375 -1.5693359375 c 128,-1,29
 74.5634765625 -1.5693359375 74.5634765625 -1.5693359375 62.560546875 10.435546875 c 0,30,31
 50.5546875 22.046875 50.5546875 22.046875 50.5546875 38.44921875 c 2,32,-1
 50 662.697265625 l 2,33,34
 50 679.127929688 50 679.127929688 62.0048828125 690.73828125 c 0,0,1
EndSplineSet
Validated: 33
EndChar

StartChar: N
Encoding: 78 78 11
Width: 592
VWidth: 0
GlyphClass: 2
Flags: W
LayerCount: 2
Fore
SplineSet
462.6640625 690.595703125 m 128,-1,1
 474.494140625 702.590820312 474.494140625 702.590820312 491.46875 702.823242188 c 0,2,3
 508.782226562 702.823242188 508.782226562 702.823242188 520.78515625 690.818359375 c 0,4,5
 532.791015625 679.20703125 532.791015625 679.20703125 532.791015625 662.780273438 c 2,6,-1
 531.918945312 38.9453125 l 2,7,8
 531.890625 22.55859375 531.890625 22.55859375 519.88671875 10.9697265625 c 0,9,10
 507.883789062 -1.0146484375 507.883789062 -1.0146484375 490.943359375 -1.0146484375 c 0,11,12
 467.450195312 -1.0146484375 467.450195312 -1.0146484375 455.579101562 19.263671875 c 2,13,-1
 132.076171875 533.013671875 l 1,14,-1
 132.500976562 39.8515625 l 2,15,16
 132.506835938 22.453125 132.506835938 22.453125 120.5 10.44921875 c 128,-1,17
 108.49609375 -1.556640625 108.49609375 -1.556640625 91.529296875 -1.556640625 c 128,-1,18
 74.5625 -1.556640625 74.5625 -1.556640625 62.5595703125 10.4482421875 c 0,19,20
 50.5537109375 22.0654296875 50.5537109375 22.0654296875 50.5537109375 38.4775390625 c 2,21,-1
 50 662.73828125 l 2,22,23
 50 679.17578125 50 679.17578125 62.0048828125 690.79296875 c 128,-1,24
 74.0087890625 702.412109375 74.0087890625 702.412109375 90.9755859375 702.412109375 c 0,25,26
 114.469726562 702.412109375 114.469726562 702.412109375 126.340820312 682.133789062 c 2,27,-1
 450.169921875 167.8125 l 1,28,-1
 450.8359375 661.469726562 l 2,29,0
 450.833007812 678.602539062 450.833007812 678.602539062 462.6640625 690.595703125 c 128,-1,1
EndSplineSet
Validated: 33
EndChar

StartChar: O
Encoding: 79 79 12
Width: 627
VWidth: 0
GlyphClass: 2
Flags: W
LayerCount: 2
Fore
SplineSet
195.803710938 688.868164062 m 0,0,1
 239.728515625 702.05078125 239.728515625 702.05078125 308.751953125 702.05078125 c 128,-1,2
 377.749023438 702.05078125 377.749023438 702.05078125 421.700195312 688.859375 c 0,3,4
 441.587890625 682.890625 441.587890625 682.890625 471.219726562 665.575195312 c 0,5,6
 507.5625 643.979492188 507.5625 643.979492188 525.997070312 603.66015625 c 0,7,8
 543.537109375 565.293945312 543.537109375 565.293945312 553.865234375 509.94140625 c 0,9,10
 567.506556237 436.839406188 567.506556237 436.839406188 567.506556237 337.064199004 c 0,11,12
 567.506556237 255.141475325 567.506556237 255.141475325 548.586914062 177.56640625 c 0,13,14
 536.537109375 128.1640625 536.537109375 128.1640625 520.092773438 95.1796875 c 0,15,16
 502.735351562 60.365234375 502.735351562 60.365234375 470.954101562 41.3671875 c 0,17,18
 470.161132812 40.8935546875 470.161132812 40.8935546875 463.40234375 36.791015625 c 128,-1,19
 456.47265625 32.5849609375 456.47265625 32.5849609375 454.170898438 31.275390625 c 128,-1,20
 451.896484375 29.9794921875 451.896484375 29.9794921875 444.154296875 25.9482421875 c 0,21,22
 435.48046875 21.65234375 435.48046875 21.65234375 430.340820312 19.7822265625 c 0,23,24
 425.936523438 18.1806640625 425.936523438 18.1806640625 416.876953125 14.8232421875 c 0,25,26
 406.905273438 11.12890625 406.905273438 11.12890625 398.98828125 9.37109375 c 0,27,28
 391.948242188 7.755859375 391.948242188 7.755859375 381.276367188 5.349609375 c 0,29,30
 369.861328125 2.7744140625 369.861328125 2.7744140625 359.048828125 1.6083984375 c 0,31,32
 348.741210938 0.49609375 348.741210938 0.49609375 335.778320312 -0.3857421875 c 128,-1,33
 322.619140625 -1.28125 322.619140625 -1.28125 308.756835938 -1.28125 c 128,-1,34
 294.89453125 -1.28125 294.89453125 -1.28125 281.736328125 -0.3857421875 c 128,-1,35
 268.772460938 0.49609375 268.772460938 0.49609375 258.463867188 1.6083984375 c 0,36,37
 247.649414062 2.7744140625 247.649414062 2.7744140625 236.234375 5.349609375 c 0,38,39
 225.561523438 7.755859375 225.561523438 7.755859375 218.5234375 9.37109375 c 0,40,41
 210.602539062 11.12890625 210.602539062 11.12890625 200.633789062 14.8232421875 c 0,42,43
 191.572265625 18.1796875 191.572265625 18.1796875 187.1640625 19.783203125 c 0,44,45
 182.0234375 21.6533203125 182.0234375 21.6533203125 173.352539062 25.9482421875 c 0,46,47
 165.610351562 29.978515625 165.610351562 29.978515625 163.3359375 31.2734375 c 128,-1,48
 161.030273438 32.5859375 161.030273438 32.5859375 154.1015625 36.791015625 c 128,-1,49
 147.34375 40.8916015625 147.34375 40.8916015625 146.545898438 41.3681640625 c 0,50,51
 114.764648438 60.369140625 114.764648438 60.369140625 97.421875 95.1826171875 c 0,52,53
 80.9912109375 128.163085938 80.9912109375 128.163085938 68.94921875 177.579101562 c 0,54,55
 49.9998906889 255.343941605 49.9998906889 255.343941605 49.9998906889 337.820381669 c 0,56,57
 49.9998906889 436.482521269 49.9998906889 436.482521269 63.6865234375 509.938476562 c 0,58,59
 74.0009765625 565.305664062 74.0009765625 565.305664062 91.5234375 603.669921875 c 0,60,61
 109.939453125 643.989257812 109.939453125 643.989257812 146.287109375 665.5859375 c 0,62,63
 175.924804688 682.90234375 175.924804688 682.90234375 195.803710938 688.868164062 c 0,0,1
392.959960938 610.924804688 m 0,64,65
 363.006835938 619.83203125 363.006835938 619.83203125 308.725585938 619.83203125 c 128,-1,66
 254.426757812 619.83203125 254.426757812 619.83203125 224.491210938 610.9296875 c 0,67,68
 214.180664062 607.862304688 214.180664062 607.862304688 191.021484375 595.356445312 c 0,69,70
 178.584960938 588.637695312 178.584960938 588.637695312 165.28125 561.666015625 c 0,71,72
 151.810546875 532.8125 151.810546875 532.8125 144.57421875 494.325195312 c 0,73,74
 132.190529761 428.46671279 132.190529761 428.46671279 132.190529761 337.702445717 c 0,75,76
 132.190529761 265.226859526 132.190529761 265.226859526 148.948242188 197.077148438 c 0,77,78
 156.953125 164.52734375 156.953125 164.52734375 170.0859375 139.15625 c 0,79,80
 183.4453125 115.47265625 183.4453125 115.47265625 191.502929688 111.095703125 c 0,81,82
 196.02734375 108.640625 196.02734375 108.640625 206.567382812 102.53515625 c 0,83,84
 216.56640625 96.7421875 216.56640625 96.7421875 220.3359375 94.892578125 c 128,-1,85
 223.950195312 93.1201171875 223.950195312 93.1201171875 233.750976562 89.4072265625 c 0,86,87
 242.751953125 85.9970703125 242.751953125 85.9970703125 250.717773438 84.8203125 c 0,88,89
 259.744140625 83.486328125 259.744140625 83.486328125 274.842773438 82.2041015625 c 128,-1,90
 289.779296875 80.935546875 289.779296875 80.935546875 308.724609375 80.935546875 c 0,91,92
 331.56640625 80.935546875 331.56640625 80.935546875 347.290039062 81.9365234375 c 0,93,94
 361.734375 82.8564453125 361.734375 82.8564453125 374.2421875 86.8427734375 c 0,95,96
 387.642578125 91.1123046875 387.642578125 91.1123046875 392.612304688 92.6181640625 c 0,97,98
 396.293945312 94.0185546875 396.293945312 94.0185546875 408.819335938 101.26171875 c 0,99,100
 423.896484375 109.982421875 423.896484375 109.982421875 425.939453125 111.091796875 c 0,101,102
 434.012695312 115.479492188 434.012695312 115.479492188 447.38671875 139.166992188 c 0,103,104
 460.533203125 164.538085938 460.533203125 164.538085938 468.543945312 197.083984375 c 0,105,106
 485.263291068 265.015731866 485.263291068 265.015731866 485.263291068 336.930544743 c 0,107,108
 485.263291068 428.828197987 485.263291068 428.828197987 472.930664062 494.318359375 c 0,109,110
 465.685546875 532.795898438 465.685546875 532.795898438 452.19921875 561.65234375 c 0,111,112
 438.877929688 588.62890625 438.877929688 588.62890625 426.4296875 595.350585938 c 0,113,114
 403.282226562 607.85546875 403.282226562 607.85546875 392.959960938 610.924804688 c 0,64,65
EndSplineSet
Validated: 1
EndChar

StartChar: k
Encoding: 107 107 13
Width: 463
GlyphClass: 2
Flags: W
LayerCount: 2
Fore
SplineSet
61.658203125 690.072265625 m 128,-1,1
 73.3154296875 701.905273438 73.3154296875 701.905273438 90.4189453125 702.162109375 c 0,2,3
 107.1640625 702.162109375 107.1640625 702.162109375 119.009765625 690.318359375 c 128,-1,4
 130.853515625 678.474609375 130.853515625 678.474609375 130.853515625 661.734375 c 2,5,-1
 130.850585938 299.20703125 l 1,6,-1
 330.6328125 487.322265625 l 2,7,8
 343.186523438 499.194335938 343.186523438 499.194335938 361.55078125 499.94140625 c 0,9,10
 362.473632812 499.984375 362.473632812 499.984375 363.405273438 499.984375 c 0,11,12
 380.143554688 499.984375 380.143554688 499.984375 391.989257812 488.624023438 c 128,-1,13
 403.833007812 477.264648438 403.833007812 477.264648438 403.833007812 461.208007812 c 128,-1,14
 403.833007812 445.192382812 403.833007812 445.192382812 392.100585938 433.89453125 c 2,15,-1
 186.381835938 249.158203125 l 1,16,-1
 392.28125 61.5771484375 l 2,17,18
 403.845703125 50.3134765625 403.845703125 50.3134765625 403.845703125 34.42578125 c 0,19,20
 403.845703125 26.611328125 403.845703125 26.611328125 400.805664062 19.57421875 c 128,-1,21
 397.765625 12.5380859375 397.765625 12.5380859375 392.001953125 7.009765625 c 0,22,23
 380.158203125 -4.833984375 380.158203125 -4.833984375 363.41796875 -4.833984375 c 0,24,25
 343.799804688 -4.833984375 343.799804688 -4.833984375 330.383789062 8.0751953125 c 2,26,-1
 130.852539062 198.682617188 l 1,27,-1
 130.852539062 31.9580078125 l 2,28,29
 130.856445312 14.771484375 130.856445312 14.771484375 119.01171875 2.9248046875 c 128,-1,30
 107.16796875 -8.9189453125 107.16796875 -8.9189453125 90.427734375 -8.9189453125 c 128,-1,31
 73.6884765625 -8.9189453125 73.6884765625 -8.9189453125 61.8447265625 2.9248046875 c 0,32,33
 50 14.4033203125 50 14.4033203125 50 30.625 c 2,34,-1
 50.00390625 661.309570312 l 2,35,0
 50 678.236328125 50 678.236328125 61.658203125 690.072265625 c 128,-1,1
EndSplineSet
Validated: 33
EndChar

StartChar: l
Encoding: 108 108 14
Width: 160
GlyphClass: 2
Flags: W
LayerCount: 2
Fore
SplineSet
51.7958984375 690.071289062 m 128,-1,1
 63.4521484375 701.904296875 63.4521484375 701.904296875 79.97265625 702.153320312 c 0,2,3
 97.306640625 702.153320312 97.306640625 702.153320312 109.150390625 690.309570312 c 128,-1,4
 120.995117188 678.465820312 120.995117188 678.465820312 120.995117188 661.725585938 c 2,5,-1
 120.991210938 31.0576171875 l 2,6,7
 120.99609375 14.400390625 120.99609375 14.400390625 109.150390625 2.9208984375 c 0,8,9
 97.3056640625 -8.9228515625 97.3056640625 -8.9228515625 80.5673828125 -8.9228515625 c 128,-1,10
 63.8271484375 -8.9228515625 63.8271484375 -8.9228515625 51.9833984375 2.9208984375 c 0,11,12
 40.1396484375 14.3984375 40.1396484375 14.3984375 40.1396484375 30.62109375 c 2,13,-1
 40.142578125 661.3046875 l 2,14,0
 40.138671875 678.236328125 40.138671875 678.236328125 51.7958984375 690.071289062 c 128,-1,1
EndSplineSet
Validated: 1
EndChar

StartChar: m
Encoding: 109 109 15
Width: 735
GlyphClass: 2
Flags: W
LayerCount: 2
Fore
SplineSet
371.44140625 500.938476562 m 0,0,1
 420.92578125 501.200195312 420.92578125 501.200195312 493.694335938 501.200195312 c 0,2,3
 579.862304688 501.200195312 579.862304688 501.200195312 623.939453125 458.118164062 c 0,4,5
 675.322265625 407.892578125 675.322265625 407.892578125 675.3046875 297.962890625 c 2,6,-1
 675.291992188 32.775390625 l 2,7,8
 675.540039062 16.6181640625 675.540039062 16.6181640625 663.663085938 5.0537109375 c 0,9,10
 651.786118649 -6.99707039163 651.786118649 -6.99707039163 634.866999782 -6.99707039163 c 128,-1,11
 617.943840465 -6.99658203924 617.943840465 -6.99658203924 606.06640625 5.05859375 c 0,12,13
 594.19140625 16.533203125 594.19140625 16.533203125 594.442382812 32.564453125 c 2,14,-1
 594.456054688 295.671875 l 2,15,16
 594.4609375 373.284179688 594.4609375 373.284179688 566.239257812 400.651367188 c 0,17,18
 545.38671875 420.349609375 545.38671875 420.349609375 493.685546875 420.349609375 c 0,19,20
 440.892578125 420.349609375 440.892578125 420.349609375 398.5390625 420.204101562 c 1,21,22
 408.6640625 400.350585938 408.6640625 400.350585938 412.512695312 376.940429688 c 0,23,24
 417.449003956 346.910015088 417.449003956 346.910015088 417.449003956 301.469805202 c 0,25,26
 417.449003956 297.75514284 417.449003956 297.75514284 417.416015625 293.9375 c 2,27,-1
 417.40234375 32.3212890625 l 2,28,29
 417.572265625 21.8525390625 417.572265625 21.8525390625 411.875976562 12.8173828125 c 128,-1,30
 406.201171875 3.822265625 406.201171875 3.822265625 396.297851562 -1.41796875 c 0,31,32
 386.3515625 -6.943359375 386.3515625 -6.943359375 374.645507812 -6.943359375 c 0,33,34
 356.75 -6.9423828125 356.75 -6.9423828125 344.189453125 5.111328125 c 0,35,36
 331.629882812 16.583984375 331.629882812 16.583984375 331.892578125 32.6123046875 c 2,37,-1
 331.907226562 294.438476562 l 2,38,39
 331.933502883 297.463431206 331.933502883 297.463431206 331.933502883 300.405597147 c 0,40,41
 331.933502883 381.55045724 331.933502883 381.55045724 311.946289062 399.721679688 c 0,42,43
 289.530273438 420.1015625 289.530273438 420.1015625 186.927734375 420.1015625 c 2,44,-1
 131.114257812 420.1015625 l 1,45,-1
 131.114257812 32.86328125 l 2,46,47
 131.510742188 8.486328125 131.510742188 8.486328125 110.599609375 -1.9248046875 c 0,48,49
 100.580566406 -7.1611328125 100.580566406 -7.1611328125 90.5610351562 -7.1611328125 c 128,-1,50
 80.5415039062 -7.1611328125 80.5415039062 -7.1611328125 70.521484375 -1.9248046875 c 0,51,52
 49.6103515625 8.5576171875 49.6103515625 8.5576171875 50.0078125 33.1005859375 c 2,53,-1
 50.0078125 457.091796875 l 2,54,55
 49.6982421875 478.033203125 49.6982421875 478.033203125 66.96484375 490.681640625 c 0,56,57
 80.4037340082 500.946238241 80.4037340082 500.946238241 95.7436142734 500.946238241 c 0,58,59
 96.0764378225 500.946238241 96.0764378225 500.946238241 96.41015625 500.94140625 c 2,60,-1
 186.927734375 500.94140625 l 2,61,62
 286.153320312 500.94140625 286.153320312 500.94140625 334.154296875 480.85546875 c 1,63,64
 338.471679688 487.432617188 338.471679688 487.432617188 344.115234375 491.798828125 c 0,65,66
 356.069335938 501.047851562 356.069335938 501.047851562 371.44140625 500.938476562 c 0,0,1
EndSplineSet
Validated: 33
EndChar

StartChar: n
Encoding: 110 110 16
Width: 484
GlyphClass: 2
Flags: W
LayerCount: 2
Fore
SplineSet
96.3359375 499.46484375 m 2,0,-1
 187.5234375 499.63671875 l 2,1,2
 266.955078125 499.63671875 266.955078125 499.63671875 313.584960938 491.088867188 c 0,3,4
 355.353515625 482.497070312 355.353515625 482.497070312 382.504882812 456.512695312 c 0,5,6
 409.39453125 430.77734375 409.39453125 430.77734375 417.608398438 392.579101562 c 0,7,8
 424.959293963 358.391778585 424.959293963 358.391778585 424.959293963 303.066404575 c 0,9,10
 424.959293963 299.673059567 424.959293963 299.673059567 424.931640625 296.200195312 c 2,11,-1
 424.91796875 34.16015625 l 2,12,13
 425.014648438 26.36328125 425.014648438 26.36328125 422.009765625 19.2353515625 c 128,-1,14
 419.004882812 12.107421875 419.004882812 12.107421875 413.247070312 6.5234375 c 0,15,16
 401.376941692 -5.4863282044 401.376941692 -5.4863282044 384.492003587 -5.4863282044 c 128,-1,17
 367.603021516 -5.48583985181 367.603021516 -5.48583985181 355.733398438 6.52734375 c 0,18,19
 343.864257812 17.9580078125 343.864257812 17.9580078125 344.067382812 33.9658203125 c 2,20,-1
 344.08203125 294.403320312 l 2,21,22
 344.106743211 297.416262894 344.106743211 297.416262894 344.106743211 300.346263256 c 0,23,24
 344.106743211 381.014611176 344.106743211 381.014611176 325.375 398.8125 c 0,25,26
 304.23046875 418.780273438 304.23046875 418.780273438 186.025390625 418.780273438 c 2,27,-1
 131.11328125 418.68359375 l 1,28,-1
 131.11328125 33.4794921875 l 2,29,30
 131.509765625 9.1083984375 131.509765625 9.1083984375 110.599609375 -1.2998046875 c 0,31,32
 100.580078125 -6.5361328125 100.580078125 -6.5361328125 90.560546875 -6.5361328125 c 0,33,-1
 70.521484375 -1.2998046875 l 0,34,35
 49.6103515625 9.1806640625 49.6103515625 9.1806640625 50.0078125 33.7216796875 c 2,36,-1
 50.0078125 456.962890625 l 2,37,38
 49.7060546875 477.397460938 49.7060546875 477.397460938 65.5048828125 490.272460938 c 0,39,40
 76.3264704688 499.471000832 76.3264704688 499.471000832 95.3462927635 499.471000832 c 0,41,42
 95.83837137 499.471000832 95.83837137 499.471000832 96.3359375 499.46484375 c 2,0,-1
EndSplineSet
Validated: 33
EndChar

StartChar: o
Encoding: 111 111 17
Width: 490
GlyphClass: 2
Flags: W
LayerCount: 2
Fore
SplineSet
109.407226562 466.778320312 m 0,0,1
 151.838241098 501.662532068 151.838241098 501.662532068 234.023180518 501.662532068 c 0,2,3
 237.171867468 501.662532068 237.171867468 501.662532068 240.37890625 501.611328125 c 0,4,5
 317.901367188 501.532226562 317.901367188 501.532226562 355.188476562 477.58203125 c 0,6,7
 403.685546875 451.419921875 403.685546875 451.419921875 418.249023438 375.908203125 c 0,8,9
 430.898306605 311.79727831 430.898306605 311.79727831 430.898306605 249.766014311 c 0,10,11
 430.898306605 206.7601601 430.898306605 206.7601601 424.818359375 164.75390625 c 0,12,-1
 424.739257812 164.2890625 l 2,13,14
 424.165039062 161.33984375 424.165039062 161.33984375 421.955078125 149.663085938 c 128,-1,15
 419.725585938 137.883789062 419.725585938 137.883789062 418.874023438 133.749023438 c 128,-1,16
 418.017578125 129.591796875 418.017578125 129.591796875 415.610351562 119.025390625 c 0,17,18
 413.119140625 108.091796875 413.119140625 108.091796875 411.264648438 102.533203125 c 0,19,20
 409.538085938 97.361328125 409.538085938 97.361328125 406.401367188 88.4052734375 c 0,21,22
 403.03125 78.7861328125 403.03125 78.7861328125 399.532226562 72.2958984375 c 0,23,24
 396.239257812 66.189453125 396.239257812 66.189453125 391.655273438 58.9365234375 c 0,25,26
 386.853515625 51.33984375 386.853515625 51.33984375 381.298828125 44.9169921875 c 0,27,-1
 380.717773438 44.2998046875 l 2,28,29
 364.08984375 28.0166015625 364.08984375 28.0166015625 342.981445312 17.1357421875 c 128,-1,30
 321.873046875 6.2548828125 321.873046875 6.2548828125 294.133789062 0.86328125 c 0,31,32
 265.459597923 -4.56785698205 265.459597923 -4.56785698205 238.23812924 -4.56785698205 c 0,33,34
 209.386604036 -4.56785698205 209.386604036 -4.56785698205 182.166992188 1.533203125 c 0,35,36
 101.77734375 21.0634765625 101.77734375 21.0634765625 79.2294921875 76.0390625 c 0,37,38
 50.0001306101 149.974321991 50.0001306101 149.974321991 50.0001306101 247.465914857 c 0,39,40
 50.0001306101 289.43896348 50.0001306101 289.43896348 55.41796875 335.778320312 c 0,41,42
 60.8447265625 369.637695312 60.8447265625 369.637695312 63.6884765625 383.81640625 c 0,43,44
 66.7138671875 398.90234375 66.7138671875 398.90234375 78.2666015625 424.419921875 c 0,45,46
 90.3173828125 451.038085938 90.3173828125 451.038085938 109.407226562 466.778320312 c 0,0,1
319.849609375 409.877929688 m 0,47,48
 302.563476562 429.521484375 302.563476562 429.521484375 240.244140625 430.16796875 c 0,49,50
 169.583007812 429.53515625 169.583007812 429.53515625 157.421875 404.270507812 c 0,51,52
 146.533203125 382.260742188 146.533203125 382.260742188 140.720703125 351.459960938 c 0,53,54
 134.770507812 319.934570312 134.770507812 319.934570312 133.948242188 304.2734375 c 0,55,56
 133.09375 288.021484375 133.09375 288.021484375 131.80078125 246.21484375 c 0,57,58
 132.96484375 155.71484375 132.96484375 155.71484375 155.100585938 105.202148438 c 0,59,-1
 155.466796875 104.240234375 l 2,60,61
 164.202148438 77.4345703125 164.202148438 77.4345703125 203.260742188 69.57421875 c 1,62,63
 224.712163479 67.5585798012 224.712163479 67.5585798012 242.540894431 67.5585798012 c 0,64,65
 270.328867251 67.5585798012 270.328867251 67.5585798012 289.31640625 72.455078125 c 0,66,67
 319.69140625 83.3173828125 319.69140625 83.3173828125 328.0625 110.977539062 c 0,68,-1
 328.307617188 111.693359375 l 2,69,70
 348.676876822 164.843336511 348.676876822 164.843336511 348.676876822 249.053299878 c 0,71,72
 348.676876822 252.145360135 348.676876822 252.145360135 348.649414062 255.279296875 c 0,73,74
 348.501953125 258.771484375 348.501953125 258.771484375 348.209960938 266.141601562 c 0,75,76
 346.86328125 300.106445312 346.86328125 300.106445312 345.333007812 318.739257812 c 0,77,78
 343.850585938 336.784179688 343.850585938 336.784179688 337.264648438 364.154296875 c 0,79,80
 330.96484375 390.3359375 330.96484375 390.3359375 319.849609375 409.877929688 c 0,47,48
EndSplineSet
Validated: 1
EndChar

StartChar: two
Encoding: 50 50 19
Width: 526
VWidth: 0
Flags: W
LayerCount: 2
Fore
SplineSet
312.571289062 699.728515625 m 2,0,1
 313.18396938 699.729157671 l 0,2,3
 403.183572955 699.729157671 403.183572955 699.729157671 441.373046875 644.204101562 c 0,4,5
 466.318985358 607.936430085 466.318985358 607.936430085 466.318985358 546.577208945 c 0,6,7
 466.318985358 535.63986356 466.318985358 535.63986356 465.526367188 523.905273438 c 2,8,-1
 465.291015625 521.7265625 l 2,9,10
 456.276367188 450.115234375 456.276367188 450.115234375 395.702148438 390.970703125 c 0,11,12
 364.498046875 360.504882812 364.498046875 360.504882812 281.423828125 305.059570312 c 0,13,14
 139.77734375 210.5 139.77734375 210.5 127.431640625 126.454101562 c 2,15,-1
 127.353515625 77.0302734375 l 1,16,-1
 427.306640625 77.0302734375 l 2,17,18
 466.36328125 77.041015625 466.36328125 77.041015625 466.36328125 38.509765625 c 128,-1,19
 466.36328125 -0.0107421875 466.36328125 -0.0107421875 427.842773438 -0.0107421875 c 0,20,-1
 88.7666015625 0 l 2,21,22
 50.2451171875 0 50.2451171875 0 50.2451171875 38.509765625 c 2,23,-1
 50.3896484375 130.744140625 l 1,24,-1
 50.76953125 136.017578125 l 2,25,26
 67.3037109375 254.696289062 67.3037109375 254.696289062 238.703125 369.084960938 c 0,27,28
 315.778320312 420.520507812 315.778320312 420.520507812 341.920898438 446.047851562 c 0,29,30
 382.551757812 485.73046875 382.551757812 485.73046875 388.485351562 530.674804688 c 0,31,32
 389.018725473 539.660130619 389.018725473 539.660130619 389.018725473 547.669030569 c 0,33,34
 389.018725473 584.281520609 389.018725473 584.281520609 377.872070312 600.48828125 c 0,35,36
 362.5546875 622.798828125 362.5546875 622.798828125 312.727539062 622.686523438 c 0,37,-1
 312.650390625 622.686523438 l 1,38,-1
 89.1337890625 622.384765625 l 2,39,40
 50 622.384765625 50 622.384765625 50 660.90625 c 128,-1,41
 50 699.426757812 50 699.426757812 88.5205078125 699.426757812 c 0,42,-1
 312.571289062 699.728515625 l 2,0,1
EndSplineSet
Validated: 33
EndChar

StartChar: semicolon
Encoding: 59 59 20
Width: 269
VWidth: 26
Flags: W
LayerCount: 2
Fore
SplineSet
206.343406715 88.3502216658 m 1,0,-1
 223.343406715 88.3502216658 l 1,1,-1
 223.343406715 71.3502216658 l 1,2,-1
 210.538806379 71.3502216658 l 1,3,-1
 207.157058475 71.3502216658 l 1,4,-1
 209.426894777 68.8434185125 l 2,5,6
 222.913766201 53.9485418299 222.913766201 53.9485418299 222.913766201 41.4286784117 c 0,7,8
 222.913766201 27.6332908624 222.913766201 27.6332908624 206.670857201 11.3899974432 c 2,9,-1
 91.5446471516 -100.410982343 l 2,10,11
 67.4035635635 -116.877630479 67.4035635635 -116.877630479 62.0153023505 -116.877630479 c 0,12,13
 61.5423596897 -116.877630479 61.5423596897 -116.877630479 61.2138899115 -116.750770422 c 1,14,15
 47.2365033118 -116.750636743 47.2365033118 -116.750636743 30.9601551085 -100.46464958 c 0,16,17
 22.7843758727 -92.2888703439 22.7843758727 -92.2888703439 18.7474953399 -84.7125427308 c 128,-1,18
 14.7093926896 -77.1339214751 14.7093926896 -77.1339214751 14.7081699301 -70.1960671314 c 0,19,20
 14.7081699301 -56.1879827032 14.7081699301 -56.1879827032 30.8795158056 -40.0407845177 c 2,21,-1
 145.910167027 71.6674117642 l 2,22,23
 157.856741306 83.2413653506 157.856741306 83.2413653506 175.004145322 83.2871642763 c 0,24,25
 190.553501657 83.3284314878 190.553501657 83.3284314878 203.970586007 73.7287930779 c 2,26,-1
 206.343406715 72.0310903418 l 1,27,-1
 206.343406715 74.9487045546 l 1,28,-1
 206.343406715 88.3502216658 l 1,0,-1
181.15625 455.900390625 m 128,-1,30
 204.162304683 455.900390625 204.162304683 455.900390625 214.065652352 446.001006946 c 128,-1,31
 223.968751358 436.101871829 223.968751358 436.101871829 223.968751358 413.11879417 c 128,-1,32
 223.95911778 390.109183442 223.95911778 390.109183442 214.058604377 380.204223815 c 128,-1,33
 204.158629764 370.299803219 204.158629764 370.299803219 181.188389686 370.299803219 c 128,-1,34
 158.177912181 370.309822518 158.177912181 370.309822518 148.273271576 380.210652866 c 128,-1,35
 138.369140625 390.110973758 138.369140625 390.110973758 138.369140625 413.087890625 c 128,-1,36
 138.369140625 436.094773558 138.369140625 436.094773558 148.26837563 445.99769787 c 128,-1,29
 158.167379164 455.900390625 158.167379164 455.900390625 181.15625 455.900390625 c 128,-1,30
EndSplineSet
Validated: 1
EndChar

StartChar: comma
Encoding: 44 44 21
Width: 269
VWidth: -20
Flags: W
LayerCount: 2
Fore
SplineSet
175.012161676 82.9377314791 m 128,-1,1
 192.2870511 82.9377314791 192.2870511 82.9377314791 206.934756532 71.0178785138 c 0,2,3
 222.787805121 54.656901121 222.787805121 54.656901121 222.787805121 41.0787719852 c 0,4,5
 222.787805121 40.9622293498 222.787805121 40.9622293498 222.786637229 40.8458917264 c 0,6,7
 222.649094187 27.1445994837 222.649094187 27.1445994837 206.544946473 11.0404520008 c 2,8,-1
 91.4182337018 -100.761015988 l 2,9,10
 75.0882258958 -117.101087559 75.0882258958 -117.101087559 61.0880382537 -117.101126056 c 1,11,12
 60.7579492142 -117.228423224 60.7579492142 -117.228423224 60.2831044395 -117.228423224 c 0,13,14
 54.8912425377 -117.228423224 54.8912425377 -117.228423224 30.8351551084 -100.815235517 c 0,15,16
 14.5876187927 -84.5676992009 14.5876187927 -84.5676992009 14.5826780406 -70.5545086794 c 0,17,-1
 14.5826765323 -70.5459527431 l 0,18,19
 14.5826765323 -56.5376743245 14.5826765323 -56.5376743245 30.7544494976 -40.3904582856 c 2,20,-1
 145.785167027 71.3178023892 l 2,21,0
 157.77919698 82.9377314791 157.77919698 82.9377314791 175.012161676 82.9377314791 c 128,-1,1
206.934756532 71.0178785138 m 1,22,-1
 206.934756532 71.0178785138 l 1,22,-1
EndSplineSet
Validated: 1
EndChar

StartChar: period
Encoding: 46 46 22
Width: 185
VWidth: -4
Flags: W
LayerCount: 2
Fore
SplineSet
92.8353579435 101.062509627 m 128,-1,1
 115.791990262 101.062509627 115.791990262 101.062509627 125.686523438 91.17578125 c 128,-1,2
 135.58984375 81.279296875 135.58984375 81.279296875 135.599609375 58.2939453125 c 128,-1,3
 135.58984375 35.2861328125 135.58984375 35.2861328125 125.686523438 25.3876953125 c 128,-1,4
 115.7929649 15.499990374 115.7929649 15.499990374 92.8324314862 15.499990374 c 0,5,-1
 92.787109375 15.5 l 0,6,7
 69.794921875 15.5 69.794921875 15.5 59.8974609375 25.3984375 c 128,-1,8
 50 35.296875 50 35.296875 50 58.287109375 c 128,-1,9
 50 81.2724609375 50 81.2724609375 59.8984375 91.1669921875 c 128,-1,0
 69.792964413 101.057614779 69.792964413 101.057614779 92.8353579435 101.062509627 c 128,-1,1
EndSplineSet
Validated: 1
EndChar

StartChar: slash
Encoding: 47 47 23
Width: 638
VWidth: 79
Flags: W
LayerCount: 2
Fore
SplineSet
500.104183143 784.485785932 m 2,0,-1
 501.440437501 784.506835938 l 2,1,2
 523.361099398 784.506835938 523.361099398 784.506835938 532.780462915 775.081876796 c 128,-1,3
 542.200195312 765.656548556 542.200195312 765.656548556 542.200195312 743.637695312 c 0,4,5
 542.200195312 733.149420045 542.200195312 733.149420045 537.07067333 723.826084766 c 0,6,-1
 537.037706387 723.762628574 l 1,7,-1
 204.148254469 37.7348885312 l 2,8,9
 198.230262619 26.0722582841 198.230262619 26.0722582841 189.476000805 20.6951245375 c 128,-1,10
 180.723928962 15.3193359375 180.723928962 15.3193359375 167.681640625 15.3193359375 c 0,11,12
 145.639848707 15.3193359375 145.639848707 15.3193359375 136.219750993 24.7371386261 c 128,-1,13
 126.799804688 34.1547899419 126.799804688 34.1547899419 126.799804688 56.1884765625 c 0,14,15
 126.799804688 66.7669384387 126.799804688 66.7669384387 132.029497609 76.1547661756 c 0,16,-1
 132.066295877 76.2251427385 l 1,17,-1
 464.950862699 762.24170497 l 2,18,19
 476.003981349 783.821468319 476.003981349 783.821468319 500.104183143 784.485785932 c 2,0,-1
EndSplineSet
Validated: 1
EndChar

StartChar: zero
Encoding: 48 48 24
Width: 548
VWidth: 0
Flags: W
LayerCount: 2
Fore
SplineSet
223.840820312 699.921875 m 2,0,-1
 314.584960938 699.921875 l 2,1,2
 394.491210938 699.921875 394.491210938 699.921875 442.944335938 624.372070312 c 0,3,4
 488 553 488 553 488.330078125 433.595703125 c 2,5,-1
 488.330078125 270.153320312 l 2,6,7
 488.713867188 150.852539062 488.713867188 150.852539062 443.176757812 77.8916015625 c 0,8,9
 394.560546875 0 394.560546875 0 314.584960938 0 c 2,10,-1
 223.840820312 0 l 2,11,12
 143.93359375 0 143.93359375 0 95.15625 77.8916015625 c 0,13,14
 50 151 50 151 50.0029296875 270.153320312 c 2,15,-1
 50.0029296875 433.595703125 l 2,16,17
 49.607421875 553.174804688 49.607421875 553.174804688 95.388671875 624.372070312 c 0,18,19
 143.966796875 699.921875 143.966796875 699.921875 223.840820312 699.921875 c 2,0,-1
223.840820312 619.916992188 m 2,20,21
 191.575195312 619.916992188 191.575195312 619.916992188 162.909179688 581.331054688 c 0,22,23
 130.0078125 537.237304688 130.0078125 537.237304688 130.0078125 433.595703125 c 2,24,-1
 130.0078125 270.153320312 l 2,25,26
 130 166 130 166 163.141601562 120.157226562 c 0,27,28
 190.795898438 79.9921875 190.795898438 79.9921875 223.840820312 79.9921875 c 2,29,-1
 314.584960938 79.9921875 l 2,30,31
 346.978515625 79.9921875 346.978515625 79.9921875 375.284179688 120.157226562 c 0,32,33
 408.325195312 165.883789062 408.325195312 165.883789062 408.325195312 270.153320312 c 2,34,-1
 408.325195312 433.595703125 l 2,35,36
 408 537 408 537 375.516601562 581.331054688 c 0,37,38
 348.76953125 619.5390625 348.76953125 619.5390625 314.584960938 619.916992188 c 2,39,-1
 223.840820312 619.916992188 l 2,20,21
EndSplineSet
Validated: 33
EndChar

StartChar: one
Encoding: 49 49 25
Width: 317
VWidth: 79
Flags: W
LayerCount: 2
Fore
SplineSet
90.5712890625 701.120117188 m 2,0,-1
 217.991210938 701.120117188 l 2,1,2
 257.993164062 701 257.993164062 701 257.993164062 661.129882812 c 2,3,-1
 257.993164062 39.8466796875 l 2,4,5
 257.999954059 -0.72549013651 257.999954059 -0.72549013651 218.52716128 -0.72549013651 c 0,6,7
 218.260089763 -0.72549013651 218.260089763 -0.72549013651 217.991210938 -0.7236328125 c 128,-1,8
 217.718683663 -0.725516166239 217.718683663 -0.725516166239 217.448013074 -0.725516166239 c 0,9,10
 177.999926795 -0.725516166239 177.999926795 -0.725516166239 177.989257812 39.2783203125 c 0,11,-1
 178.000976562 621.127929688 l 1,12,-1
 90.5712890625 621.127929688 l 2,13,14
 50 621 50 621 50 661.129882812 c 0,15,16
 50 701 50 701 90.5712890625 701.120117188 c 2,0,-1
EndSplineSet
Validated: 33
EndChar

StartChar: three
Encoding: 51 51 26
Width: 531
VWidth: 0
Flags: W
LayerCount: 2
Fore
SplineSet
325.607421875 700 m 2,0,1
 411.930664062 700.10546875 411.930664062 700.10546875 447.819335938 645.357421875 c 0,2,3
 467.216277504 615.897204382 467.216277504 615.897204382 467.216277504 577.936889283 c 0,4,5
 467.216277504 554.875840331 467.216277504 554.875840331 460.057617188 528.677734375 c 0,6,7
 440 459 440 459 359.0546875 398.083007812 c 1,8,9
 412 369 412 369 435.647460938 338.352539062 c 0,10,11
 472 290 472 290 471.998046875 219.655273438 c 0,12,13
 472 149 472 149 430.869140625 81.845703125 c 0,14,15
 381.260742188 -0.5673828125 381.260742188 -0.5673828125 308.435546875 -0.5673828125 c 2,16,-1
 89.1123046875 -0.5673828125 l 2,17,18
 88.6794497329 -0.572170576723 88.6794497329 -0.572170576723 88.2514272757 -0.572170576723 c 0,19,20
 50.0038042732 -0.572170576723 50.0038042732 -0.572170576723 50.34375 37.658203125 c 0,21,22
 50 76 50 76 88.568359375 75.8818359375 c 0,23,-1
 308.435546875 75.8818359375 l 2,24,25
 338 76 338 76 365.6171875 121.64453125 c 0,26,27
 396 171 396 171 395.559570312 219.655273438 c 0,28,29
 396 264 396 264 374.5078125 292.4453125 c 0,30,31
 345 331 345 331 268.79296875 354.92578125 c 0,32,33
 242 363 242 363 241.765625 391.4765625 c 0,34,35
 242 421 242 421 269.768554688 428.315429688 c 0,36,37
 361 453 361 453 386.447265625 549.053710938 c 0,38,39
 390.678602686 564.975944211 390.678602686 564.975944211 390.678602686 577.442061839 c 0,40,41
 390.678602686 593.119651194 390.678602686 593.119651194 383.986328125 603.331054688 c 0,42,43
 371.23828125 623.620117188 371.23828125 623.620117188 325.685546875 623.5625 c 2,44,-1
 88.8125 623.262695312 l 2,45,46
 88.5493809859 623.260914439 88.5493809859 623.260914439 88.2880457171 623.260914439 c 0,47,48
 50 623.260914439 50 623.260914439 50 661.487304688 c 128,-1,49
 50 699.713090937 50 699.713090937 87.6677877083 699.713090937 c 0,50,51
 87.9505086344 699.713090937 87.9505086344 699.713090937 88.2353515625 699.7109375 c 0,52,-1
 325.607421875 700 l 2,0,1
EndSplineSet
Validated: 33
EndChar

StartChar: four
Encoding: 52 52 27
Width: 529
VWidth: 0
Flags: W
LayerCount: 2
Fore
SplineSet
342.9453125 704.631835938 m 2,0,1
 343.375976562 704.63671875 343.375976562 704.63671875 343.377929688 704.634765625 c 0,2,3
 359 705 359 705 370.420898438 693.427734375 c 0,4,5
 381.6328125 682.362304688 381.6328125 682.362304688 381.6328125 666.385742188 c 2,6,-1
 381.6328125 295.985351562 l 1,7,-1
 430.764648438 295.526367188 l 1,8,-1
 430.9453125 295.526367188 l 2,9,10
 447 296 447 296 457.991210938 284.317382812 c 0,11,12
 469 273 469 273 469.19921875 257.271484375 c 0,13,14
 469 241 469 241 457.991210938 230.225585938 c 0,15,16
 447 219 447 219 430.9453125 219.016601562 c 0,17,18
 430 219 430 219 430.049804688 219.028320312 c 2,19,-1
 381.6328125 219.48046875 l 1,20,-1
 381.6328125 36.904296875 l 2,21,22
 382 37 382 37 381.637695312 36.2587890625 c 0,23,24
 382 20 382 20 370.427734375 9.2119140625 c 0,25,26
 359 -2 359 -2 343.381835938 -1.9970703125 c 0,27,28
 328 -2 328 -2 316.336914062 9.2119140625 c 0,29,30
 308.510742188 16.6591796875 308.510742188 16.6591796875 305.127929688 36.2587890625 c 0,31,32
 305 37 305 37 305.1328125 36.904296875 c 2,33,-1
 305.1328125 220.197265625 l 1,34,-1
 88.439453125 222.22265625 l 2,35,36
 73 222 73 222 61.7939453125 233.473632812 c 0,37,38
 50.68359375 245.337890625 50.68359375 245.337890625 50.5478515625 260.12109375 c 2,39,-1
 50.001953125 319.630859375 l 1,40,-1
 50 319.981445312 l 2,41,42
 50 329.5703125 50 329.5703125 54.5185546875 338.01953125 c 2,43,-1
 239.340820312 683.623046875 l 2,44,45
 244 692 244 692 253.513671875 697.8046875 c 0,46,47
 262.571289062 703.719726562 262.571289062 703.719726562 272.63671875 703.833984375 c 2,48,-1
 342.9453125 704.631835938 l 2,0,1
305.12890625 627.697265625 m 1,49,-1
 296.126953125 627.590820312 l 1,50,-1
 126.590820312 310.555664062 l 1,51,-1
 126.701171875 298.364257812 l 1,52,-1
 305.12890625 296.6953125 l 1,53,-1
 305.12890625 627.697265625 l 1,49,-1
EndSplineSet
Validated: 1
EndChar

StartChar: six
Encoding: 54 54 28
Width: 525
VWidth: 0
Flags: W
LayerCount: 2
Fore
SplineSet
257.51171875 700 m 1,0,-1
 425.317382812 700 l 2,1,2
 466 700 466 700 465.576171875 660.305664062 c 0,3,4
 466 621 466 621 425.870117188 620.587890625 c 0,5,-1
 257.489257812 620.599609375 l 2,6,7
 257.0912956 620.603544748 257.0912956 620.603544748 256.692961776 620.603544748 c 0,8,9
 216.56422941 620.603544748 216.56422941 620.603544748 172.6640625 580.6640625 c 0,10,11
 129.388671875 541.353515625 129.388671875 541.353515625 129.388671875 503.80859375 c 2,12,-1
 129.388671875 424.06640625 l 1,13,-1
 257.258789062 424.837890625 l 1,14,-1
 257.51171875 424.837890625 l 2,15,16
 258.364836168 424.840103813 258.364836168 424.840103813 259.213620586 424.840103813 c 0,17,18
 320.53573822 424.840103813 320.53573822 424.840103813 359.241210938 413.288085938 c 0,19,20
 405 400 405 400 429.80859375 367.064453125 c 0,21,22
 464 322 464 322 465.022460938 195.147460938 c 0,23,-1
 465.022460938 194.916992188 l 2,24,25
 465 104 465 104 411.590820312 51.7666015625 c 0,26,27
 359 1 359 1 258.525390625 -1.2060546875 c 0,28,29
 255.141194424 -1.26358646137 255.141194424 -1.26358646137 251.811423456 -1.26358646137 c 0,30,31
 151.312881514 -1.26358646137 151.312881514 -1.26358646137 100.392578125 51.14453125 c 0,32,33
 50 103 50 103 50 194.755859375 c 0,34,-1
 50 194.836914062 l 1,35,-1
 50 503.80859375 l 2,36,37
 50 576 50 576 119.231445312 639.358398438 c 0,38,39
 186 700 186 700 257.51171875 700 c 1,0,-1
257.418945312 345.426757812 m 2,40,-1
 129.388671875 344.57421875 l 1,41,-1
 129.388671875 194.836914062 l 2,42,43
 129.561523438 135.046875 129.561523438 135.046875 157.325195312 106.51171875 c 128,-1,44
 185.209978626 77.824979104 185.209978626 77.824979104 244.893369909 77.824979104 c 0,45,46
 250.256765715 77.824979104 250.256765715 77.824979104 255.876953125 78.056640625 c 0,47,-1
 257.51171875 78.056640625 l 2,48,49
 324.786132812 78.056640625 324.786132812 78.056640625 356.29296875 108.676757812 c 0,50,51
 385.553710938 137.120117188 385.553710938 137.120117188 385.611328125 194.6875 c 0,52,53
 384.943359375 294.98828125 384.943359375 294.98828125 366.6796875 318.905273438 c 0,54,55
 357.479492188 330.997070312 357.479492188 330.997070312 336.6015625 337.21484375 c 0,56,57
 309.194335938 345.379882812 309.194335938 345.379882812 257.418945312 345.426757812 c 2,40,-1
EndSplineSet
Validated: 33
EndChar

StartChar: five
Encoding: 53 53 29
Width: 526
VWidth: 0
Flags: W
LayerCount: 2
Fore
SplineSet
90.26953125 700 m 1,0,-1
 425.962890625 700 l 2,1,2
 466 700 466 700 466.232421875 660.293945312 c 0,3,4
 466 621 466 621 426.526367188 620.588867188 c 0,5,-1
 129.96484375 620.588867188 l 1,6,-1
 129.96484375 487.956054688 l 1,7,-1
 129.96484375 487.333984375 l 2,8,9
 130 467 130 467 135.3203125 461.815429688 c 0,10,11
 144 454 144 454 174.6328125 453.293945312 c 0,12,-1
 174.875 453.293945312 l 2,13,14
 187 453 187 453 234.354492188 451.888671875 c 0,15,16
 266 451 266 451 292.66796875 450.495117188 c 0,17,18
 367 450 367 450 414.642578125 398.697265625 c 0,19,20
 466 343 466 343 465.666992188 242.591796875 c 0,21,22
 466 137 466 137 426.815429688 73.7734375 c 0,23,24
 380.825195312 -1.28515625 380.825195312 -1.28515625 290.654296875 -1.28515625 c 2,25,-1
 90.26953125 -1.28515625 l 2,26,27
 50 -1 50 -1 50 38.419921875 c 128,-1,28
 50 78 50 78 89.7060546875 78.1259765625 c 0,29,-1
 291.506835938 78.1259765625 l 1,30,-1
 292.357421875 78.1259765625 l 2,31,32
 336 78 336 78 359.125 115.263671875 c 0,33,34
 386 160 386 160 386.267578125 242.591796875 c 0,35,36
 386 312 386 312 356.016601562 345.115234375 c 0,37,38
 332 371 332 371 292.66796875 371.095703125 c 0,39,-1
 291.966796875 371.095703125 l 2,40,41
 290.699999037 371.089920815 290.699999037 371.089920815 289.369025404 371.089920815 c 0,42,43
 268.671027281 371.089920815 268.671027281 371.089920815 232.453125 372.48828125 c 0,44,45
 201 373 201 373 173.551757812 373.881835938 c 0,46,47
 111 375 111 375 79.9521484375 404.905273438 c 0,48,49
 50.5654296875 433.421875 50.5654296875 433.421875 50.5654296875 488.577148438 c 2,50,-1
 50.5654296875 660.293945312 l 2,51,52
 51 700 51 700 90.26953125 700 c 1,0,-1
EndSplineSet
Validated: 33
EndChar

StartChar: seven
Encoding: 55 55 30
Width: 526
VWidth: 0
Flags: W
LayerCount: 2
Fore
SplineSet
91.1708984375 704 m 2,0,-1
 425.501953125 704 l 2,1,2
 466.037109375 703.94140625 466.037109375 703.94140625 466.037109375 663.405273438 c 0,3,4
 466.037109375 654.446289062 466.037109375 654.446289062 462.293945312 646.357421875 c 2,5,-1
 171.490234375 18.3623046875 l 2,6,7
 160.563476562 -5.1494140625 160.563476562 -5.1494140625 134.662109375 -5.1494140625 c 0,8,9
 94.056640625 -5.1494140625 94.056640625 -5.1494140625 94.056640625 35.4453125 c 0,10,11
 94.056640625 44.3935546875 94.056640625 44.3935546875 97.8349609375 52.5283203125 c 2,12,-1
 361.92578125 622.810546875 l 1,13,-1
 91.1708984375 622.810546875 l 2,14,15
 50 622.810546875 50 622.810546875 50 663.405273438 c 128,-1,16
 50 704 50 704 91.1708984375 704 c 2,0,-1
EndSplineSet
Validated: 1
EndChar

StartChar: eight
Encoding: 56 56 31
Width: 518
VWidth: 0
Flags: W
LayerCount: 2
Fore
SplineSet
254.4140625 704 m 132,-1,1
 338.3125 704 338.3125 704 398.604492188 647.814453125 c 132,-1,2
 458.828178171 591.681649824 458.828178171 591.681649824 458.828178171 513.865980217 c 0,3,4
 458.792306612 415.196236416 458.792306612 415.196236416 365.25390625 354.13671875 c 5,5,6
 398.525390625 329.497070312 398.525390625 329.497070312 400.9296875 326.866210938 c 4,7,8
 458.828125 263.409179688 458.828125 263.409179688 458.828125 191.51171875 c 4,9,10
 458.828125 119.91015625 458.828125 119.91015625 399.250976562 59.583984375 c 4,11,12
 336.690429688 -3.748046875 336.690429688 -3.748046875 254.4140625 -3.748046875 c 132,-1,13
 172.137695312 -3.748046875 172.137695312 -3.748046875 109.577148438 59.583984375 c 4,14,15
 50 119.91015625 50 119.91015625 50 191.51171875 c 132,-1,16
 50 263.306640625 50 263.306640625 108.284179688 326.9453125 c 4,17,18
 110.49609375 329.361328125 110.49609375 329.361328125 143.653320312 353.98828125 c 5,19,20
 50 414.9609375 50 414.9609375 50 513.788085938 c 4,21,22
 50 591.685546875 50 591.685546875 110.26953125 647.848632812 c 132,-1,0
 170.52734375 704 170.52734375 704 254.4140625 704 c 132,-1,1
254.4140625 625.7734375 m 132,-1,24
 202.42578125 625.7734375 202.42578125 625.7734375 165.3203125 591.265625 c 132,-1,25
 128.21484375 556.7578125 128.21484375 556.7578125 128.21484375 513.788085938 c 4,26,27
 128.21484375 469.842773438 128.21484375 469.842773438 165.387695312 432.838867188 c 132,-1,28
 202.573242188 395.846679688 202.573242188 395.846679688 254.4140625 395.846679688 c 4,29,30
 305.517578125 395.846679688 305.517578125 395.846679688 343.0546875 433.020507812 c 132,-1,31
 380.601880778 470.205176467 380.601880778 470.205176467 380.613294834 513.840016474 c 0,32,33
 380.613294834 556.744516228 380.613294834 556.744516228 343.51953125 591.25390625 c 132,-1,23
 306.390625 625.7734375 306.390625 625.7734375 254.4140625 625.7734375 c 132,-1,24
254.4140625 317.62109375 m 4,34,35
 205.840820312 317.62109375 205.840820312 317.62109375 165.955078125 274.083007812 c 4,36,37
 128.21484375 232.8828125 128.21484375 232.8828125 128.21484375 191.51171875 c 4,38,39
 128.21484375 152.001953125 128.21484375 152.001953125 165.263671875 114.510742188 c 4,40,41
 204.807617188 74.478515625 204.807617188 74.478515625 254.4140625 74.478515625 c 132,-1,42
 304.088867188 74.478515625 304.088867188 74.478515625 343.6328125 114.510742188 c 4,43,44
 380.61328125 151.93359375 380.61328125 151.93359375 380.61328125 191.51171875 c 4,45,46
 380.61328125 233.131835938 380.61328125 233.131835938 343.178710938 274.163085938 c 4,47,48
 303.532226562 317.62109375 303.532226562 317.62109375 254.4140625 317.62109375 c 4,34,35
EndSplineSet
Validated: 1
EndChar

StartChar: nine
Encoding: 57 57 32
Width: 525
VWidth: 0
Flags: W
LayerCount: 2
Fore
SplineSet
257.372070312 704 m 0,0,1
 264.077760507 704.255828726 264.077760507 704.255828726 270.579186475 704.255828726 c 0,2,3
 363.869232618 704.255828726 363.869232618 704.255828726 415.1015625 651.581054688 c 0,4,5
 465.390625 599.864257812 465.390625 599.864257812 465.5859375 508.038085938 c 0,6,-1
 465.5859375 507.888671875 l 1,7,-1
 465.5859375 193.051757812 l 2,8,9
 465.5859375 120.802734375 465.5859375 120.802734375 404.173828125 59.666015625 c 0,10,11
 343.00390625 -1.2060546875 343.00390625 -1.2060546875 271.180664062 -1.2060546875 c 2,12,-1
 90.2578125 -1.2060546875 l 2,13,14
 50 -1.216796875 50 -1.216796875 50 38.5 c 128,-1,15
 50 78.20703125 50 78.20703125 89.7041015625 78.20703125 c 0,16,-1
 271.180664062 78.1943359375 l 2,17,18
 310.149414062 78.1943359375 310.149414062 78.1943359375 348.104492188 115.965820312 c 128,-1,19
 386.174804688 153.852539062 386.174804688 153.852539062 386.174804688 193.051757812 c 2,20,-1
 386.174804688 302.541992188 l 1,21,-1
 258.3046875 301.770507812 l 1,22,-1
 257.983398438 301.770507812 l 2,23,24
 136.021484375 301.885742188 136.021484375 301.885742188 84.443359375 376.518554688 c 0,25,26
 51.0927734375 424.780273438 51.0927734375 424.780273438 50.55078125 507.578125 c 0,27,-1
 50.55078125 507.80859375 l 2,28,29
 50.55078125 599.126953125 50.55078125 599.126953125 103.983398438 651.0390625 c 0,30,31
 158.258789062 703.78125 158.258789062 703.78125 257.372070312 704 c 0,0,1
259.69921875 624.749023438 m 0,32,33
 190.708007812 624.668945312 190.708007812 624.668945312 159.270507812 594.118164062 c 0,34,35
 130.008789062 565.685546875 130.008789062 565.685546875 129.96484375 507.958007812 c 0,36,37
 130.366210938 449.665039062 130.366210938 449.665039062 149.737304688 421.66015625 c 0,38,39
 177.638671875 381.262695312 177.638671875 381.262695312 258.0625 381.170898438 c 2,40,-1
 386.174804688 382.0234375 l 1,41,-1
 386.174804688 507.80859375 l 2,42,43
 386.025390625 567.59765625 386.025390625 567.59765625 358.1796875 596.213867188 c 128,-1,44
 330.196549508 624.980289275 330.196549508 624.980289275 270.634170251 624.980289275 c 0,45,46
 265.29363416 624.980289275 265.29363416 624.980289275 259.69921875 624.749023438 c 0,32,33
EndSplineSet
Validated: 33
EndChar

StartChar: colon
Encoding: 58 58 33
Width: 363
VWidth: 77
Flags: W
LayerCount: 2
Fore
SplineSet
181.481445312 546.901367188 m 128,-1,1
 207.170898438 546.901367188 207.170898438 546.901367188 218.427734375 535.637695312 c 128,-1,2
 229.685546875 524.374023438 229.685546875 524.374023438 229.685546875 498.743164062 c 128,-1,3
 229.669921875 473.060546875 229.669921875 473.060546875 218.401367188 461.8046875 c 128,-1,4
 207.131835938 450.548828125 207.131835938 450.548828125 181.5 450.548828125 c 128,-1,5
 155.8203125 450.548828125 155.8203125 450.548828125 144.567382812 461.811523438 c 128,-1,6
 133.314453125 473.075195312 133.314453125 473.075195312 133.314453125 498.715820312 c 128,-1,7
 133.314453125 524.395507812 133.314453125 524.395507812 144.577148438 535.6484375 c 128,-1,0
 155.840820312 546.901367188 155.840820312 546.901367188 181.481445312 546.901367188 c 128,-1,1
181.481445312 230.537109375 m 128,-1,9
 207.151367188 230.537109375 207.151367188 230.537109375 218.41015625 219.272460938 c 128,-1,10
 229.669921875 208.006835938 229.669921875 208.006835938 229.685546875 182.379882812 c 128,-1,11
 229.669921875 156.70703125 229.669921875 156.70703125 218.40234375 145.456054688 c 128,-1,12
 207.1328125 134.204101562 207.1328125 134.204101562 181.5 134.204101562 c 128,-1,13
 155.8203125 134.204101562 155.8203125 134.204101562 144.567382812 145.466796875 c 128,-1,14
 133.314453125 156.73046875 133.314453125 156.73046875 133.314453125 182.37109375 c 128,-1,15
 133.314453125 208.040039062 133.314453125 208.040039062 144.577148438 219.288085938 c 128,-1,8
 155.83984375 230.537109375 155.83984375 230.537109375 181.481445312 230.537109375 c 128,-1,9
EndSplineSet
Validated: 1
EndChar

StartChar: equal
Encoding: 61 61 34
Width: 684
VWidth: 0
Flags: W
LayerCount: 2
Fore
SplineSet
148.601988321 530.45703125 m 2,0,-1
 536.825445158 530.457031554 l 2,1,2
 574.92578125 530.467523289 574.92578125 530.467523289 574.92578125 493 c 128,-1,3
 574.92578125 455.542968746 574.92578125 455.542968746 537.469008542 455.542968746 c 2,4,-1
 148.600336092 455.555663758 l 2,5,6
 110.5 455.545172023 110.5 455.545172023 110.5 493 c 128,-1,7
 110.5 530.45703125 110.5 530.45703125 148.601988321 530.45703125 c 2,0,-1
148.602539062 300.244140625 m 2,8,-1
 536.823242188 300.244140625 l 2,9,10
 574.92578125 300.244140625 574.92578125 300.244140625 574.92578125 262.787109375 c 128,-1,11
 574.92578125 225.330078125 574.92578125 225.330078125 537.46875 225.330078125 c 2,12,-1
 148.602539062 225.330078125 l 2,13,14
 110.5 225.330078125 110.5 225.330078125 110.5 262.787109375 c 128,-1,15
 110.5 300.244140625 110.5 300.244140625 148.602539062 300.244140625 c 2,8,-1
EndSplineSet
Validated: 33
EndChar

StartChar: percent
Encoding: 37 37 35
Width: 678
VWidth: 0
Flags: W
LayerCount: 2
Fore
SplineSet
94.9658203125 -28.58203125 m 2,0,-1
 508.405273438 773.862304688 l 2,1,2
 520.081054688 796.748046875 520.081054688 796.748046875 545.64453125 797.5 c 0,3,4
 590.274414062 797.5 590.274414062 797.5 590.274414062 754.189453125 c 0,5,6
 590.274414062 743.158203125 590.274414062 743.158203125 584.963867188 733.407226562 c 2,7,-1
 171.629882812 -69.11328125 l 2,8,9
 159.400390625 -92.19921875 159.400390625 -92.19921875 133.30078125 -92.19921875 c 0,10,11
 89.9345703125 -92.19921875 89.9345703125 -92.19921875 89.9345703125 -48.8466796875 c 0,12,13
 89.9345703125 -38.078125 89.9345703125 -38.078125 94.9658203125 -28.58203125 c 2,0,-1
107.5234375 530.724609375 m 128,-1,15
 75.279296875 563.041992188 75.279296875 563.041992188 75.279296875 628.122070312 c 0,16,17
 75.279296875 757.921875 75.279296875 757.921875 204.599019954 757.921875 c 0,18,19
 329.624221343 757.921875 329.624221343 757.921875 329.624221343 628.122070312 c 128,-1,20
 329.624221343 498.40625 329.624221343 498.40625 204.599019954 498.40625 c 0,21,14
 139.768554688 498.40625 139.768554688 498.40625 107.5234375 530.724609375 c 128,-1,15
204.599019954 550.915039062 m 0,22,23
 279.116212619 550.915039062 279.116212619 550.915039062 279.116212619 628.122070312 c 128,-1,24
 279.116212619 705.4140625 279.116212619 705.4140625 204.599019954 705.4140625 c 0,25,26
 127.702148438 705.4140625 127.702148438 705.4140625 127.702148438 628.122070312 c 128,-1,27
 127.702148438 550.915039062 127.702148438 550.915039062 204.599019954 550.915039062 c 0,22,23
473.400980046 -52.55078125 m 0,28,29
 348.375778657 -52.55078125 348.375778657 -52.55078125 348.375778657 77.1640625 c 128,-1,30
 348.375778657 206.865234375 348.375778657 206.865234375 473.400980046 206.865234375 c 0,31,32
 602.720703125 206.865234375 602.720703125 206.865234375 602.720703125 77.1640625 c 128,-1,33
 602.720703125 -52.55078125 602.720703125 -52.55078125 473.400980046 -52.55078125 c 0,28,29
473.400980046 -0.1416015625 m 0,34,35
 550.212890625 -0.1416015625 550.212890625 -0.1416015625 550.212890625 77.1640625 c 128,-1,36
 550.212890625 154.45703125 550.212890625 154.45703125 473.400980046 154.45703125 c 0,37,38
 398.883787381 154.45703125 398.883787381 154.45703125 398.883787381 77.1640625 c 128,-1,39
 398.883787381 -0.1416015625 398.883787381 -0.1416015625 473.400980046 -0.1416015625 c 0,34,35
EndSplineSet
Validated: 1
EndChar

StartChar: question
Encoding: 63 63 36
Width: 499
VWidth: 0
Flags: W
LayerCount: 2
Fore
SplineSet
87.0751953125 700.083007812 m 2,0,-1
 300.234375 700.081054688 l 2,1,2
 370.040039062 700.081054688 370.040039062 700.081054688 412.173828125 650.373046875 c 0,3,4
 448.947265625 606.989257812 448.947265625 606.989257812 449 545.501953125 c 0,5,6
 449 484.46484375 449 484.46484375 412.44921875 441.245117188 c 0,7,8
 370.3828125 391.500976562 370.3828125 391.500976562 300.376953125 391.500976562 c 0,9,10
 255.978515625 391.500976562 255.978515625 391.500976562 233.189453125 380.041015625 c 0,11,12
 218.454101562 372.630859375 218.454101562 372.630859375 212.393554688 358.630859375 c 0,13,14
 210.0078125 353.119140625 210.0078125 353.119140625 208.545898438 345.899414062 c 0,15,16
 207.025390625 338.395507812 207.025390625 338.395507812 206.504882812 327.51953125 c 0,17,18
 205.955078125 316.049804688 205.955078125 316.049804688 205.859375 308.065429688 c 128,-1,19
 205.762695312 300.02734375 205.762695312 300.02734375 205.9765625 284.084960938 c 128,-1,20
 206.194335938 267.944335938 206.194335938 267.944335938 206.194335938 260.541015625 c 2,21,-1
 206.196289062 199.809570312 l 2,22,23
 206.196289062 184.66796875 206.196289062 184.66796875 195.483398438 173.95703125 c 128,-1,24
 184.771484375 163.244140625 184.771484375 163.244140625 169.630859375 163.244140625 c 128,-1,25
 154.489257812 163.244140625 154.489257812 163.244140625 143.778320312 173.956054688 c 128,-1,26
 133.067382812 184.666015625 133.067382812 184.666015625 133.067382812 200.134765625 c 2,27,-1
 133.067382812 260.541015625 l 2,28,29
 133.067382812 267.036132812 133.067382812 267.036132812 132.375 287.87109375 c 0,30,31
 131.83203125 304.224609375 131.83203125 304.224609375 131.83203125 315.106445312 c 0,32,33
 131.83203125 318.373046875 131.83203125 318.373046875 131.880859375 321.146484375 c 0,34,35
 132.1015625 333.6484375 132.1015625 333.6484375 135.227539062 352.50390625 c 0,36,37
 138.436523438 371.85546875 138.436523438 371.85546875 145.284179688 387.67578125 c 0,38,39
 161.888671875 426.0390625 161.888671875 426.0390625 200.336914062 445.373046875 c 128,-1,40
 238.622070312 464.625 238.622070312 464.625 300.376953125 464.625 c 0,41,42
 336.452148438 464.625 336.452148438 464.625 356.611328125 488.463867188 c 0,43,44
 375.876953125 511.247070312 375.876953125 511.247070312 375.876953125 545.518554688 c 0,45,46
 375.846679688 580.134765625 375.846679688 580.134765625 356.390625 603.087890625 c 0,47,48
 336.158203125 626.958007812 336.158203125 626.958007812 300.234375 626.958007812 c 2,49,-1
 86.8505859375 626.954101562 l 2,50,51
 71.708984375 626.954101562 71.708984375 626.954101562 60.998046875 637.666992188 c 128,-1,52
 50.28515625 648.37890625 50.28515625 648.37890625 50.28515625 663.51953125 c 128,-1,53
 50.28515625 678.661132812 50.28515625 678.661132812 60.9970703125 689.372070312 c 128,-1,54
 71.70703125 700.083007812 71.70703125 700.083007812 87.0751953125 700.083007812 c 2,0,-1
169.52734375 72.5380859375 m 128,-1,56
 184.741210938 72.5380859375 184.741210938 72.5380859375 195.505859375 61.7734375 c 128,-1,57
 206.271484375 51.0087890625 206.271484375 51.0087890625 206.271484375 35.794921875 c 128,-1,58
 206.271484375 20.578125 206.271484375 20.578125 195.506835938 9.814453125 c 128,-1,59
 184.743164062 -0.951171875 184.743164062 -0.951171875 169.52734375 -0.9521484375 c 128,-1,60
 154.311523438 -0.9521484375 154.311523438 -0.9521484375 143.545898438 9.8125 c 128,-1,61
 132.78125 20.5771484375 132.78125 20.5771484375 132.78125 35.7919921875 c 128,-1,62
 132.78125 51.009765625 132.78125 51.009765625 143.545898438 61.7734375 c 128,-1,55
 154.311523438 72.5380859375 154.311523438 72.5380859375 169.52734375 72.5380859375 c 128,-1,56
EndSplineSet
EndChar

StartChar: a
Encoding: 97 97 37
Width: 471
VWidth: 0
Flags: W
LayerCount: 2
Fore
SplineSet
129.342773438 498.950195312 m 0,0,1
 157.712655558 499.557792073 157.712655558 499.557792073 179.277105775 499.557792073 c 0,2,3
 180.553302389 499.557792073 180.553302389 499.557792073 181.805664062 499.555664062 c 0,4,5
 265.057617188 499.44140625 265.057617188 499.44140625 303.7265625 491.750976562 c 0,6,7
 337.7734375 484.28125 337.7734375 484.28125 370.850585938 455.647460938 c 0,8,9
 411.631835938 420.323242188 411.631835938 420.323242188 411.590820312 346.486328125 c 2,10,-1
 411.422851562 38.6142578125 l 2,11,12
 411.422851562 28.9892578125 411.422851562 28.9892578125 406.633789062 20.529296875 c 128,-1,13
 401.928710938 12.21484375 401.928710938 12.21484375 393.830078125 6.810546875 c 0,14,15
 386.1796875 1.482421875 386.1796875 1.482421875 376.6015625 0.0712890625 c 0,16,17
 371.528341447 -1.08202644526 371.528341447 -1.08202644526 366.921256981 -1.08202644526 c 0,18,19
 344.39794021 -1.08202644526 344.39794021 -1.08202644526 302.220703125 -1.8720703125 c 0,20,21
 264.411160399 -2.48435844809 264.411160399 -2.48435844809 242.503812923 -2.48435844809 c 0,22,23
 235.899391993 -2.48435844809 235.899391993 -2.48435844809 230.740234375 -2.4287109375 c 0,24,25
 207.966796875 -2.18359375 207.966796875 -2.18359375 176.983398438 1.001953125 c 0,26,27
 149.471679688 4.1162109375 149.471679688 4.1162109375 130.078125 11.1279296875 c 0,28,29
 84.4619140625 27.6181640625 84.4619140625 27.6181640625 65.501953125 70.3818359375 c 0,30,31
 50 105.349609375 50 105.349609375 50 169.516601562 c 0,32,33
 50 231.5078125 50 231.5078125 97.1220703125 265.833984375 c 0,34,35
 135.311523438 293.654296875 135.311523438 293.654296875 194.818359375 293.723632812 c 2,36,-1
 331.438476562 293.844726562 l 1,37,-1
 331.466796875 343.997070312 l 2,38,39
 331.475585938 359.546875 331.475585938 359.546875 327.409179688 372.947265625 c 128,-1,40
 323.3125 386.451171875 323.3125 386.451171875 320.482421875 390.928710938 c 2,41,-1
 317.010742188 395.889648438 l 2,42,43
 314.471679688 398.088867188 314.471679688 398.088867188 310.698242188 401.432617188 c 0,44,45
 306.71484375 404.96484375 306.71484375 404.96484375 305.852539062 405.625976562 c 128,-1,46
 304.841796875 406.399414062 304.841796875 406.399414062 301.931640625 408.463867188 c 2,47,-1
 299.375 409.993164062 l 2,48,49
 297.192382812 410.727539062 297.192382812 410.727539062 293.578125 411.87890625 c 128,-1,50
 290.083984375 412.901367188 290.083984375 412.901367188 284.494140625 413.88671875 c 0,51,52
 253.726710445 419.309565066 253.726710445 419.309565066 178.940824188 419.309565066 c 0,53,54
 156.907647525 419.309565066 156.907647525 419.309565066 131.053710938 418.838867188 c 0,55,56
 130.401367188 418.81640625 130.401367188 418.81640625 129.73046875 418.81640625 c 0,57,58
 113.139648438 418.81640625 113.139648438 418.81640625 101.401367188 430.555664062 c 128,-1,59
 89.6630859375 442.293945312 89.6630859375 442.293945312 89.6630859375 458.884765625 c 128,-1,60
 89.6630859375 475.354492188 89.6630859375 475.354492188 101.303710938 487.087890625 c 128,-1,61
 112.944335938 498.821289062 112.944335938 498.821289062 129.342773438 498.950195312 c 0,0,1
331.315429688 68.4755859375 m 1,62,-1
 331.393554688 217.93359375 l 1,63,-1
 197.112304688 217.80859375 l 2,64,65
 162.497070312 217.770507812 162.497070312 217.770507812 145.815429688 205.0078125 c 0,66,67
 130.135742188 193.010742188 130.135742188 193.010742188 130.135742188 167.490234375 c 0,68,69
 130.135742188 116.3125 130.135742188 116.3125 139.329101562 94.5361328125 c 0,70,71
 142.91015625 86.05078125 142.91015625 86.05078125 146.450195312 82.6884765625 c 128,-1,72
 150.048828125 79.271484375 150.048828125 79.271484375 158.526367188 76.052734375 c 0,73,74
 180.57722549 68.4152339283 180.57722549 68.4152339283 307.142626785 68.4152339283 c 0,75,76
 314.412102675 68.4152339283 314.412102675 68.4152339283 322.026367188 68.4404296875 c 0,77,78
 326.80859375 68.458984375 326.80859375 68.458984375 331.315429688 68.4755859375 c 1,62,-1
EndSplineSet
Validated: 33
EndChar

StartChar: uni02CB
Encoding: 715 715 38
Width: 249
Flags: W
LayerCount: 2
Fore
SplineSet
36.2841796875 675.752929688 m 0,0,1
 47.7890625 686.969726562 47.7890625 686.969726562 63.89453125 687.396484375 c 0,2,3
 80.2080078125 687.896484375 80.2080078125 687.896484375 91.9560546875 675.87890625 c 2,4,-1
 187.740234375 580.08984375 l 2,5,6
 199.350585938 568.752929688 199.350585938 568.752929688 199.575195312 552.014648438 c 0,7,8
 199.350585938 535.401367188 199.350585938 535.401367188 188.092773438 524.286132812 c 0,9,10
 177.108398438 513.158203125 177.108398438 513.158203125 160.361328125 512.801757812 c 0,11,12
 143.760742188 513.158203125 143.760742188 513.158203125 132.633789062 524.286132812 c 2,13,-1
 36.748046875 620.174804688 l 2,14,15
 25.53125 631.38671875 25.53125 631.38671875 25.013671875 647.685546875 c 0,16,17
 24.607421875 663.784179688 24.607421875 663.784179688 36.2841796875 675.752929688 c 0,0,1
EndSplineSet
Validated: 1
EndChar

StartChar: backslash
Encoding: 92 92 39
Width: 638
VWidth: 79
Flags: W
LayerCount: 2
Fore
SplineSet
168.895816857 784.485785932 m 2,0,1
 192.996172227 783.821464086 192.996172227 783.821464086 204.072923622 762.195560903 c 2,2,-1
 536.936615186 76.2191971108 l 1,3,-1
 537.095354173 75.9306445991 l 2,4,5
 542.200195312 66.5149471101 542.200195312 66.5149471101 542.200195312 56.1884765625 c 0,6,7
 542.200195312 34.1548343006 542.200195312 34.1548343006 532.78026965 24.7371593452 c 128,-1,8
 523.3601955 15.3193359375 523.3601955 15.3193359375 501.318359375 15.3193359375 c 0,9,10
 476.225662798 15.3193359375 476.225662798 15.3193359375 464.810779914 37.8147299404 c 2,11,-1
 131.95747931 723.772461463 l 2,12,13
 126.799804688 733.149420045 126.799804688 733.149420045 126.799804688 743.637695312 c 0,14,15
 126.799804688 765.656562758 126.799804688 765.656562758 136.219438801 775.081887009 c 128,-1,16
 145.638697819 784.506835938 145.638697819 784.506835938 167.559562499 784.506835938 c 2,17,-1
 168.895816857 784.485785932 l 2,0,1
EndSplineSet
Validated: 1
EndChar

StartChar: b
Encoding: 98 98 40
Width: 471
VWidth: 0
Flags: W
LayerCount: 2
Fore
SplineSet
61.7421875 690.133789062 m 128,-1,1
 73.4833984375 701.875 73.4833984375 701.875 90.8037109375 701.875 c 0,2,3
 107.051757812 701.631835938 107.051757812 701.631835938 118.609375 689.900390625 c 128,-1,4
 130.166015625 678.16796875 130.166015625 678.16796875 130.162109375 661.37890625 c 2,5,-1
 130.162109375 499.844726562 l 1,6,7
 149.401892254 499.94116325 149.401892254 499.94116325 165.432913404 499.94116325 c 0,8,9
 220.181056718 499.94116325 220.181056718 499.94116325 237.504882812 498.81640625 c 0,10,11
 303.875976562 494.528320312 303.875976562 494.528320312 344.502929688 467.54296875 c 0,12,13
 392.14453125 435.899414062 392.14453125 435.899414062 405.663085938 350.234375 c 0,14,15
 411.942118038 310.448288879 411.942118038 310.448288879 411.942118038 234.458894047 c 0,16,17
 411.942118038 176.428965804 411.942118038 176.428965804 399.524414062 123.70703125 c 0,18,19
 390.841796875 86.8427734375 390.841796875 86.8427734375 378.932617188 63.1337890625 c 0,20,21
 366.109375 37.60546875 366.109375 37.60546875 339.2109375 23.1025390625 c 0,22,23
 328.026367188 17.072265625 328.026367188 17.072265625 316.723632812 12.7841796875 c 0,24,25
 305.083007812 8.3671875 305.083007812 8.3671875 288.518554688 5.697265625 c 0,26,27
 270.36328125 3.0771484375 270.36328125 3.0771484375 258.219726562 1.5546875 c 0,28,29
 245.435546875 -0.0478515625 245.435546875 -0.0478515625 218.310546875 -0.6279296875 c 0,30,31
 191.874023438 -1.193359375 191.874023438 -1.193359375 178.573242188 -1.2958984375 c 0,32,33
 173.966478355 -1.33303231407 173.966478355 -1.33303231407 166.910342728 -1.33303231407 c 0,34,35
 154.853256608 -1.33303231407 154.853256608 -1.33303231407 135.64453125 -1.224609375 c 0,36,37
 105.299804688 -1.052734375 105.299804688 -1.052734375 90.869140625 -1.052734375 c 0,38,39
 86.90625 -1.0458984375 86.90625 -1.0458984375 82.3271484375 0.06640625 c 0,40,41
 78.048828125 1.1064453125 78.048828125 1.1064453125 74.0205078125 2.890625 c 0,42,43
 69.7138671875 4.798828125 69.7138671875 4.798828125 66.6572265625 7.1396484375 c 0,44,45
 65.9580078125 7.6513671875 65.9580078125 7.6513671875 65.279296875 8.203125 c 0,46,47
 50.03515625 19.78515625 50.03515625 19.78515625 50.0029296875 38.66015625 c 2,48,-1
 50 661.797851562 l 2,49,0
 50 678.392578125 50 678.392578125 61.7421875 690.133789062 c 128,-1,1
229.944335938 418.875 m 0,50,51
 213.213892127 419.960373089 213.213892127 419.960373089 181.614274649 419.960373089 c 0,52,53
 176.650726647 419.960373089 176.650726647 419.960373089 171.3203125 419.93359375 c 0,54,55
 171.040039062 419.93359375 171.040039062 419.93359375 149.626953125 419.793945312 c 0,56,57
 139.134765625 419.725585938 139.134765625 419.725585938 130.163085938 419.670898438 c 1,58,-1
 130.163085938 58.23046875 l 1,59,60
 204.955078125 58.5224609375 204.955078125 58.5224609375 243.315429688 61.1201171875 c 0,61,62
 281.063476562 63.67578125 281.063476562 63.67578125 299.146484375 72.26171875 c 0,63,64
 300.811523438 74.400390625 300.811523438 74.400390625 302.806640625 77.61328125 c 0,65,66
 306.932617188 84.2529296875 306.932617188 84.2529296875 312.524414062 97.693359375 c 128,-1,67
 318.094726562 111.084960938 318.094726562 111.084960938 321.323242188 125.380859375 c 0,68,69
 331.781944763 171.683164009 331.781944763 171.683164009 331.781944763 223.147080975 c 0,70,71
 331.781944763 296.386331079 331.781944763 296.386331079 326.413085938 331.903320312 c 0,72,73
 318.073242188 387 318.073242188 387 298.860351562 400.3046875 c 0,74,75
 272.756835938 416.094726562 272.756835938 416.094726562 229.944335938 418.875 c 0,50,51
EndSplineSet
Validated: 1
EndChar

StartChar: c
Encoding: 99 99 41
Width: 468
VWidth: 0
Flags: W
LayerCount: 2
Fore
SplineSet
230.419921875 499.836914062 m 0,0,1
 245.192382812 500.625 245.192382812 500.625 263.51171875 500.776367188 c 0,2,3
 267.037648978 500.807176287 267.037648978 500.807176287 271.282153691 500.807176287 c 0,4,5
 287.622109782 500.807176287 287.622109782 500.807176287 314.611328125 500.350585938 c 0,6,7
 345.515194893 499.807253964 345.515194893 499.807253964 364.776866734 499.807253964 c 0,8,9
 365.733353846 499.807253964 365.733353846 499.807253964 366.661132812 499.80859375 c 0,10,11
 384.067382812 499.813476562 384.067382812 499.813476562 396.037109375 487.844726562 c 128,-1,12
 408.004882812 475.876953125 408.004882812 475.876953125 408.004882812 458.961914062 c 128,-1,13
 408.004882812 442.047851562 408.004882812 442.047851562 396.037109375 430.080078125 c 128,-1,14
 384.069335938 418.112304688 384.069335938 418.112304688 367.16796875 418.112304688 c 0,15,16
 366.006839918 418.110845848 366.006839918 418.110845848 364.821084186 418.110845848 c 0,17,18
 344.575403402 418.110845848 344.575403402 418.110845848 317.150390625 418.536132812 c 0,19,20
 288.259765625 418.984375 288.259765625 418.984375 274.803710938 419.047851562 c 0,21,22
 273.852055213 419.052256081 273.852055213 419.052256081 272.841368924 419.052256081 c 0,23,24
 259.734532568 419.052256081 259.734532568 419.052256081 236.700195312 418.311523438 c 0,25,26
 192.51171875 416.08984375 192.51171875 416.08984375 165.6015625 401.1484375 c 0,27,28
 145.60546875 388.111328125 145.60546875 388.111328125 137.176757812 337.830078125 c 0,29,30
 131.69990723 305.15415809 131.69990723 305.15415809 131.69990723 235.506756002 c 0,31,32
 131.69990723 179.660810452 131.69990723 179.660810452 139.34765625 143.487304688 c 0,33,34
 143.625 123.262695312 143.625 123.262695312 151.1328125 109.196289062 c 0,35,36
 157.813476562 96.6826171875 157.813476562 96.6826171875 162.229492188 94.40234375 c 0,37,38
 191.15625 82.734375 191.15625 82.734375 244.657226562 80.6767578125 c 0,39,40
 249.403800493 80.4098572422 249.403800493 80.4098572422 275.175939864 80.4098572422 c 0,41,42
 306.17100449 80.4098572422 306.17100449 80.4098572422 367.577148438 80.7958984375 c 0,43,44
 384.036132812 80.7958984375 384.036132812 80.7958984375 396.00390625 68.8271484375 c 128,-1,45
 407.971679688 56.8583984375 407.971679688 56.8583984375 407.971679688 39.9453125 c 128,-1,46
 407.971679688 23.03125 407.971679688 23.03125 396.00390625 11.0634765625 c 128,-1,47
 384.036132812 -0.904296875 384.036132812 -0.904296875 367.154296875 -0.904296875 c 0,48,49
 310.772466205 -1.25810421759 310.772466205 -1.25810421759 279.076988177 -1.25810421759 c 0,50,51
 246.646417207 -1.25810421759 246.646417207 -1.25810421759 240.060546875 -0.8876953125 c 0,52,53
 161.743164062 2.2080078125 161.743164062 2.2080078125 122.93359375 22.63671875 c 0,54,55
 75.501953125 47.6064453125 75.501953125 47.6064453125 59.2177734375 126.116210938 c 0,56,57
 49.9996176561 170.556135277 49.9996176561 170.556135277 49.9996176561 235.242637759 c 0,58,59
 49.9996176561 312.390690816 49.9996176561 312.390690816 56.4736328125 351.772460938 c 0,60,61
 70.3515625 436.166992188 70.3515625 436.166992188 119.084960938 468.559570312 c 0,62,63
 160.609375 496.157226562 160.609375 496.157226562 230.419921875 499.836914062 c 0,0,1
EndSplineSet
Validated: 33
EndChar

StartChar: d
Encoding: 100 100 42
Width: 471
VWidth: 0
Flags: W
LayerCount: 2
Fore
SplineSet
343.333984375 689.901367188 m 128,-1,1
 354.890625 701.631835938 354.890625 701.631835938 371.138671875 701.875 c 0,2,3
 388.458984375 701.875 388.458984375 701.875 400.19921875 690.133789062 c 128,-1,4
 411.942382812 678.392578125 411.942382812 678.392578125 411.942382812 661.797851562 c 2,5,-1
 411.939453125 38.6435546875 l 2,6,7
 411.907226562 19.78515625 411.907226562 19.78515625 396.663085938 8.203125 c 0,8,9
 395.984375 7.6513671875 395.984375 7.6513671875 395.28515625 7.1396484375 c 0,10,11
 392.228515625 4.798828125 392.228515625 4.798828125 387.918945312 2.8896484375 c 0,12,13
 383.893554688 1.1064453125 383.893554688 1.1064453125 379.61328125 0.06640625 c 0,14,15
 375.036132812 -1.0458984375 375.036132812 -1.0458984375 371.0546875 -1.052734375 c 0,16,17
 356.639648438 -1.052734375 356.639648438 -1.052734375 326.297851562 -1.224609375 c 0,18,19
 307.089126204 -1.33303231407 307.089126204 -1.33303231407 295.031651472 -1.33303231407 c 0,20,21
 287.975288418 -1.33303231407 287.975288418 -1.33303231407 283.368164062 -1.2958984375 c 0,22,23
 270.067382812 -1.193359375 270.067382812 -1.193359375 243.629882812 -0.6279296875 c 0,24,25
 216.506835938 -0.0478515625 216.506835938 -0.0478515625 203.721679688 1.5546875 c 0,26,27
 191.579101562 3.0771484375 191.579101562 3.0771484375 173.422851562 5.697265625 c 0,28,29
 156.859375 8.3671875 156.859375 8.3671875 145.21875 12.7841796875 c 0,30,31
 133.916015625 17.072265625 133.916015625 17.072265625 122.732421875 23.1025390625 c 0,32,33
 95.8330078125 37.60546875 95.8330078125 37.60546875 83.009765625 63.134765625 c 0,34,35
 71.1005859375 86.8427734375 71.1005859375 86.8427734375 62.41796875 123.70703125 c 0,36,37
 50.0002647741 176.428965801 50.0002647741 176.428965801 50.0002647741 234.4579321 c 0,38,39
 50.0002647741 310.448306152 50.0002647741 310.448306152 56.279296875 350.233398438 c 0,40,41
 69.7978515625 435.899414062 69.7978515625 435.899414062 117.439453125 467.54296875 c 0,42,43
 158.06640625 494.528320312 158.06640625 494.528320312 224.438476562 498.81640625 c 0,44,45
 241.761547279 499.94116325 241.761547279 499.94116325 296.509519506 499.94116325 c 0,46,47
 312.540490559 499.94116325 312.540490559 499.94116325 331.780273438 499.844726562 c 1,48,-1
 331.780273438 661.375976562 l 2,49,0
 331.776367188 678.16796875 331.776367188 678.16796875 343.333984375 689.901367188 c 128,-1,1
312.315429688 419.793945312 m 0,50,51
 290.901367188 419.93359375 290.901367188 419.93359375 290.622070312 419.93359375 c 0,52,53
 285.291656165 419.960373089 285.291656165 419.960373089 280.32812616 419.960373089 c 0,54,55
 248.728623257 419.960373089 248.728623257 419.960373089 231.999023438 418.875 c 0,56,57
 189.185546875 416.094726562 189.185546875 416.094726562 163.081054688 400.3046875 c 0,58,59
 143.869140625 387 143.869140625 387 135.529296875 331.905273438 c 0,60,61
 130.160438049 296.386286118 130.160438049 296.386286118 130.160438049 223.147080975 c 0,62,63
 130.160438049 171.683164009 130.160438049 171.683164009 140.619140625 125.380859375 c 0,64,65
 143.84765625 111.084960938 143.84765625 111.084960938 149.41796875 97.6943359375 c 128,-1,66
 155.009765625 84.2529296875 155.009765625 84.2529296875 159.135742188 77.6123046875 c 0,67,68
 161.130859375 74.400390625 161.130859375 74.400390625 162.795898438 72.26171875 c 0,69,70
 180.87890625 63.67578125 180.87890625 63.67578125 218.626953125 61.1201171875 c 0,71,72
 256.987304688 58.5224609375 256.987304688 58.5224609375 331.779296875 58.23046875 c 1,73,-1
 331.779296875 419.670898438 l 1,74,75
 322.807617188 419.725585938 322.807617188 419.725585938 312.315429688 419.793945312 c 0,50,51
EndSplineSet
Validated: 1
EndChar

StartChar: e
Encoding: 101 101 43
Width: 435
VWidth: 0
Flags: W
LayerCount: 2
Fore
SplineSet
216.760742188 500.060546875 m 0,0,1
 301.39453125 500.060546875 301.39453125 500.060546875 341.235351562 454.7109375 c 0,2,3
 375.260742188 415.982421875 375.260742188 415.982421875 375.260742188 342.49609375 c 0,4,5
 375.260742188 305.005859375 375.260742188 305.005859375 371.881835938 286.681640625 c 0,6,7
 365.857421875 253.998046875 365.857421875 253.998046875 344.672851562 235.98046875 c 0,8,9
 339.44921875 231.537109375 339.44921875 231.537109375 334.220703125 228.029296875 c 128,-1,10
 328.991210938 224.520507812 328.991210938 224.520507812 322.547851562 222.013671875 c 128,-1,11
 316.103515625 219.506835938 316.103515625 219.506835938 311.561523438 217.686523438 c 128,-1,12
 307.018554688 215.865234375 307.018554688 215.865234375 298.83984375 214.750976562 c 128,-1,13
 290.661132812 213.63671875 290.661132812 213.63671875 286.578125 212.962890625 c 128,-1,14
 282.495117188 212.2890625 282.495117188 212.2890625 272.354492188 212.026367188 c 128,-1,15
 262.213867188 211.764648438 262.213867188 211.764648438 258.364257812 211.696289062 c 128,-1,16
 254.514648438 211.62890625 254.514648438 211.62890625 242.185546875 211.678710938 c 128,-1,17
 229.85546875 211.727539062 229.85546875 211.727539062 225.723632812 211.72265625 c 2,18,-1
 133.366210938 211.608398438 l 1,19,20
 134.774414062 115.047851562 134.774414062 115.047851562 150.28515625 92.890625 c 0,21,22
 151.431640625 91.2529296875 151.431640625 91.2529296875 152.9140625 88.8623046875 c 0,23,24
 155.84375 84.1337890625 155.84375 84.1337890625 168.170898438 82.3701171875 c 0,25,26
 171.76171875 81.8564453125 171.76171875 81.8564453125 173.939453125 81.5341796875 c 0,27,28
 203.233398438 77.197265625 203.233398438 77.197265625 314.228515625 79.59375 c 0,29,30
 314.938476562 79.62109375 314.938476562 79.62109375 315.698242188 79.62109375 c 0,31,32
 332.490234375 79.62109375 332.490234375 79.62109375 344.374023438 67.7373046875 c 128,-1,33
 356.2578125 55.853515625 356.2578125 55.853515625 356.2578125 39.0615234375 c 128,-1,34
 356.2578125 22.3857421875 356.2578125 22.3857421875 344.45703125 10.501953125 c 128,-1,35
 332.655273438 -1.3818359375 332.655273438 -1.3818359375 315.979492188 -1.4970703125 c 0,36,37
 198.130859375 -4.04296875 198.130859375 -4.04296875 162.060546875 1.2978515625 c 0,38,39
 109.995117188 9.005859375 109.995117188 9.005859375 83.837890625 46.3740234375 c 0,40,41
 67.798828125 69.2861328125 67.798828125 69.2861328125 59.7451171875 101.057617188 c 128,-1,42
 51.69140625 132.830078125 51.69140625 132.830078125 50.5390625 151.013671875 c 128,-1,43
 49.38671875 169.196289062 49.38671875 169.196289062 50.6962890625 211.5 c 128,-1,44
 52.005859375 253.802734375 52.005859375 253.802734375 52.0166015625 259.7265625 c 0,45,46
 52.140625 322.834960938 52.140625 322.834960938 58.025390625 362.970703125 c 128,-1,47
 63.91015625 403.106445312 63.91015625 403.106445312 81.7841796875 434.090820312 c 0,48,49
 100.53515625 466.592773438 100.53515625 466.592773438 136.229492188 483.327148438 c 128,-1,50
 171.922851562 500.060546875 171.922851562 500.060546875 216.760742188 500.060546875 c 0,0,1
216.760742188 418.94921875 m 0,51,52
 185.497070312 418.94921875 185.497070312 418.94921875 173.090820312 413.743164062 c 128,-1,53
 160.684570312 408.538085938 160.684570312 408.538085938 152.04296875 393.55859375 c 0,54,55
 137.03125 367.538085938 137.03125 367.538085938 133.8984375 292.71875 c 1,56,-1
 225.62109375 292.833984375 l 2,57,58
 239.9765625 292.852539062 239.9765625 292.852539062 252.8984375 293.661132812 c 128,-1,59
 265.821289062 294.470703125 265.821289062 294.470703125 272.811523438 295.412109375 c 128,-1,60
 279.802734375 296.352539062 279.802734375 296.352539062 285.323242188 297.237304688 c 128,-1,61
 290.844726562 298.12109375 290.844726562 298.12109375 291.455078125 298.162109375 c 0,62,63
 291.798828125 299.672851562 291.798828125 299.672851562 292.114257812 301.388671875 c 0,64,65
 294.150390625 312.431640625 294.150390625 312.431640625 294.150390625 342.49609375 c 0,66,67
 294.150390625 385.415039062 294.150390625 385.415039062 280.299804688 401.178710938 c 0,68,69
 264.688476562 418.94921875 264.688476562 418.94921875 216.760742188 418.94921875 c 0,51,52
EndSplineSet
EndChar

StartChar: f
Encoding: 102 102 44
Width: 394
VWidth: 0
Flags: W
LayerCount: 2
Fore
SplineSet
245.282226562 699.254882812 m 0,0,1
 277.668945312 702.21875 277.668945312 702.21875 353.690429688 702.21875 c 0,2,3
 370.487304688 702.21875 370.487304688 702.21875 382.244140625 690.462890625 c 128,-1,4
 394 678.70703125 394 678.70703125 394 662.091796875 c 128,-1,5
 394 645.477539062 394 645.477539062 382.243164062 633.719726562 c 128,-1,6
 370.48828125 621.965820312 370.48828125 621.965820312 353.508789062 621.965820312 c 0,7,8
 281.924804688 621.965820312 281.924804688 621.965820312 255.482421875 619.459960938 c 0,9,10
 222.944335938 616.547851562 222.944335938 616.547851562 212.213867188 609.221679688 c 0,11,12
 202.626953125 602.6796875 202.626953125 602.6796875 197.486328125 580.921875 c 0,13,14
 191.447265625 555.370117188 191.447265625 555.370117188 190.887695312 499.587890625 c 1,15,-1
 263.450195312 499.587890625 l 2,16,17
 282.150390625 499.590820312 282.150390625 499.590820312 293.907226562 487.833007812 c 128,-1,18
 305.663085938 476.076171875 305.663085938 476.076171875 305.663085938 459.461914062 c 128,-1,19
 305.663085938 442.84765625 305.663085938 442.84765625 293.907226562 431.08984375 c 128,-1,20
 282.151367188 419.333984375 282.151367188 419.333984375 263.88671875 419.333984375 c 2,21,-1
 190.830078125 419.3359375 l 1,22,-1
 190.833984375 37.4169921875 l 2,23,24
 190.833984375 21.6142578125 190.833984375 21.6142578125 176.78515625 10.4306640625 c 0,25,26
 162.737304688 -1.3251953125 162.737304688 -1.3251953125 143.272460938 -1.3251953125 c 0,27,28
 126.657226562 -1.3251953125 126.657226562 -1.3251953125 114.901367188 10.431640625 c 0,29,30
 103.1484375 21.611328125 103.1484375 21.611328125 103.1484375 37.83984375 c 2,31,-1
 103.1484375 419.3359375 l 1,32,-1
 65.392578125 419.333984375 l 2,33,34
 48.7783203125 419.333984375 48.7783203125 419.333984375 37.0205078125 431.090820312 c 128,-1,35
 25.2646484375 442.84765625 25.2646484375 442.84765625 25.2646484375 459.461914062 c 128,-1,36
 25.2646484375 476.076171875 25.2646484375 476.076171875 37.021484375 487.833984375 c 128,-1,37
 48.7763671875 499.587890625 48.7763671875 499.587890625 65.7548828125 499.587890625 c 2,38,-1
 103.194335938 499.587890625 l 1,39,40
 103.7109375 563.452148438 103.7109375 563.452148438 110.243164062 596.489257812 c 0,41,42
 120.15234375 646.59765625 120.15234375 646.59765625 151.600585938 671.407226562 c 0,43,44
 184.409179688 693.805664062 184.409179688 693.805664062 245.282226562 699.254882812 c 0,0,1
EndSplineSet
Validated: 33
EndChar

StartChar: g
Encoding: 103 103 45
Width: 471
VWidth: 0
Flags: W
LayerCount: 2
Fore
SplineSet
263.91796875 500.795898438 m 0,0,1
 268.334960938 500.833007812 268.334960938 500.833007812 276.9140625 500.833007812 c 0,2,3
 287.646484375 500.833007812 287.646484375 500.833007812 319.27734375 500.296875 c 0,4,5
 347.191067089 499.8140338 347.191067089 499.8140338 366.056125164 499.8140338 c 0,6,-1
 367.16015625 499.814453125 l 0,7,8
 368.615234375 499.91015625 368.615234375 499.91015625 369.444335938 499.939453125 c 0,9,10
 387.142578125 499.943359375 387.142578125 499.943359375 399.208007812 488.283203125 c 128,-1,11
 411.272460938 476.625 411.272460938 476.625 411.272460938 460.146484375 c 2,12,-1
 411.26953125 9.435546875 l 2,13,14
 411.26953125 -61.91796875 411.26953125 -61.91796875 397.427734375 -103.3125 c 0,15,16
 380.999023438 -154.1484375 380.999023438 -154.1484375 341.15234375 -179.0234375 c 0,17,18
 332.716796875 -184.2890625 332.716796875 -184.2890625 324.0625 -188.469726562 c 0,19,20
 315.006835938 -192.84375 315.006835938 -192.84375 303.379882812 -195.908203125 c 0,21,22
 292.854492188 -198.682617188 292.854492188 -198.682617188 284.772460938 -200.697265625 c 0,23,24
 275.02734375 -203.032226562 275.02734375 -203.032226562 256.768554688 -204.372070312 c 0,25,26
 239.956054688 -205.60546875 239.956054688 -205.60546875 232.668945312 -206.3515625 c 0,27,28
 224.493164062 -207.1875 224.493164062 -207.1875 202.403320312 -207.489257812 c 0,29,30
 180.983398438 -207.78125 180.983398438 -207.78125 174.30078125 -207.864257812 c 0,31,32
 167.94140625 -207.948242188 167.94140625 -207.948242188 146.33203125 -207.880859375 c 128,-1,33
 124.639622086 -207.813852751 124.639622086 -207.813852751 119.269966402 -207.814454389 c 0,34,35
 101.844727826 -207.814454389 101.844727826 -207.814454389 89.783203125 -195.752929688 c 128,-1,36
 77.71875 -183.688476562 77.71875 -183.688476562 77.71875 -166.63671875 c 128,-1,37
 77.71875 -149.584960938 77.71875 -149.584960938 89.783203125 -137.520507812 c 128,-1,38
 101.847780479 -125.455930459 101.847780479 -125.455930459 118.927151134 -125.456054897 c 0,39,40
 185.928576205 -125.456054897 185.928576205 -125.456054897 235.43359375 -120.899414062 c 128,-1,41
 284.94921875 -116.340820312 284.94921875 -116.340820312 297.541992188 -109.163085938 c 0,42,43
 311.879882812 -100.212890625 311.879882812 -100.212890625 319.061523438 -77.9873046875 c 0,44,45
 327.4296875 -52.0966796875 327.4296875 -52.0966796875 328.703125 -3.431640625 c 1,46,47
 300.655316278 -3.72328327517 300.655316278 -3.72328327517 279.579162593 -3.72328327517 c 0,48,49
 246.031589801 -3.72328327517 246.031589801 -3.72328327517 230.147460938 -2.984375 c 0,50,51
 162.1796875 0.123046875 162.1796875 0.123046875 123.220703125 20.6357421875 c 0,52,53
 75.6083984375 45.7041015625 75.6083984375 45.7041015625 59.2587890625 124.540039062 c 0,54,55
 49.9996692483 169.19497692 49.9996692483 169.19497692 49.9996692483 234.172671781 c 0,56,57
 49.9996692483 311.60054988 49.9996692483 311.60054988 56.5029296875 351.169921875 c 0,58,59
 70.4345703125 435.923828125 70.4345703125 435.923828125 119.356445312 468.444335938 c 0,60,61
 161.047851562 496.154296875 161.047851562 496.154296875 230.880859375 499.849609375 c 0,62,63
 245.680664062 500.643554688 245.680664062 500.643554688 263.91796875 500.795898438 c 0,0,1
287.874023438 429.229492188 m 0,64,65
 274.956054688 429.348632812 274.956054688 429.348632812 264.77734375 429.28515625 c 0,66,67
 248.783203125 429.188476562 248.783203125 429.188476562 237.301757812 428.572265625 c 0,68,69
 193.005859375 426.194335938 193.005859375 426.194335938 166.01171875 410.26171875 c 0,70,71
 145.916992188 396.344726562 145.916992188 396.344726562 137.451171875 342.688476562 c 0,72,73
 131.94996086 307.828883809 131.94996086 307.828883809 131.94996086 233.563241794 c 0,74,75
 131.94996086 173.955817813 131.94996086 173.955817813 139.630859375 135.361328125 c 0,76,77
 143.926757812 113.782226562 143.926757812 113.782226562 151.469726562 98.7724609375 c 0,78,79
 158.18359375 85.4130859375 158.18359375 85.4130859375 162.629882812 82.9736328125 c 0,80,81
 188.524414062 70.529296875 188.524414062 70.529296875 235.711914062 68.3349609375 c 0,82,83
 248.113176859 67.757893319 248.113176859 67.757893319 277.713044576 67.757893319 c 0,84,85
 298.905849272 67.757893319 298.905849272 67.757893319 328.915039062 68.0537109375 c 1,86,-1
 328.915039062 428.647460938 l 1,87,88
 321.8046875 428.74609375 321.8046875 428.74609375 314.2578125 428.8671875 c 0,89,90
 299.21484375 429.109375 299.21484375 429.109375 287.874023438 429.229492188 c 0,64,65
EndSplineSet
Validated: 33
EndChar

StartChar: i
Encoding: 105 105 46
Width: 159
VWidth: 0
Flags: W
LayerCount: 2
Fore
SplineSet
51.9482421875 676.896484375 m 128,-1,1
 63.896484375 688.844726562 63.896484375 688.844726562 80.7861328125 688.844726562 c 128,-1,2
 97.6728515625 688.844726562 97.6728515625 688.844726562 109.623046875 676.895507812 c 128,-1,3
 121.571289062 664.946289062 121.571289062 664.946289062 121.571289062 648.059570312 c 128,-1,4
 121.571289062 631.171875 121.571289062 631.171875 109.622070312 619.223632812 c 128,-1,5
 97.6728515625 607.275390625 97.6728515625 607.275390625 80.7861328125 607.275390625 c 128,-1,6
 63.896484375 607.275390625 63.896484375 607.275390625 51.9482421875 619.223632812 c 128,-1,7
 40 631.171875 40 631.171875 40 648.059570312 c 128,-1,0
 40 664.946289062 40 664.946289062 51.9482421875 676.896484375 c 128,-1,1
51.818359375 489.299804688 m 0,8,9
 63.576171875 501.236328125 63.576171875 501.236328125 80.3046875 501.489257812 c 0,10,11
 97.7275390625 501.489257812 97.7275390625 501.489257812 109.671875 489.544921875 c 0,12,13
 121.619140625 478.087890625 121.619140625 478.087890625 121.619140625 461.895507812 c 2,14,-1
 121.6171875 38.38671875 l 2,15,16
 121.6171875 21.9775390625 121.6171875 21.9775390625 109.671875 10.5224609375 c 128,-1,17
 97.724609375 -0.9345703125 97.724609375 -0.9345703125 80.83984375 -0.9345703125 c 128,-1,18
 63.9541015625 -0.9345703125 63.9541015625 -0.9345703125 52.0068359375 10.5224609375 c 128,-1,19
 40.0625 21.9755859375 40.0625 21.9755859375 40.0625 38.6015625 c 2,20,-1
 40.0625 461.47265625 l 2,21,22
 40.05859375 477.854492188 40.05859375 477.854492188 51.818359375 489.299804688 c 0,8,9
EndSplineSet
Validated: 1
EndChar

StartChar: j
Encoding: 106 106 47
Width: 156
VWidth: 0
Flags: W
LayerCount: 2
Fore
SplineSet
46.2255859375 676.198242188 m 128,-1,1
 58.1943359375 688.166992188 58.1943359375 688.166992188 75.111328125 688.166992188 c 128,-1,2
 92.0224609375 688.166992188 92.0224609375 688.166992188 103.994140625 676.197265625 c 128,-1,3
 115.962890625 664.228515625 115.962890625 664.228515625 115.963867188 647.313476562 c 128,-1,4
 115.963867188 630.3984375 115.963867188 630.3984375 103.995117188 618.427734375 c 128,-1,5
 92.0263671875 606.458984375 92.0263671875 606.458984375 75.1103515625 606.458007812 c 128,-1,6
 58.193359375 606.458007812 58.193359375 606.458007812 46.224609375 618.426757812 c 128,-1,7
 34.2548828125 630.396484375 34.2548828125 630.396484375 34.2548828125 647.315429688 c 128,-1,0
 34.2578125 664.229492188 34.2578125 664.229492188 46.2255859375 676.198242188 c 128,-1,1
46.04296875 488.36328125 m 128,-1,9
 57.8212890625 499.899414062 57.8212890625 499.899414062 74.70703125 500.146484375 c 0,10,11
 92.029296875 500.146484375 92.029296875 500.146484375 103.997070312 488.588867188 c 128,-1,12
 115.962890625 477.032226562 115.962890625 477.032226562 115.962890625 460.280273438 c 2,13,-1
 115.962890625 15.103515625 l 2,14,15
 115.962890625 -56.4443359375 115.962890625 -56.4443359375 108.700195312 -91.91796875 c 0,16,17
 98.5654296875 -143.158203125 98.5654296875 -143.158203125 67.4794921875 -168.515625 c 0,18,19
 39.41015625 -191.411132812 39.41015625 -191.411132812 -12.6982421875 -196.983398438 c 0,20,21
 -40.9629100618 -200.004904773 -40.9629100618 -200.004904773 -118.747633092 -200.013673149 c 0,22,23
 -136.067381219 -200.013673149 -136.067381219 -200.013673149 -148.032226562 -188.047851562 c 128,-1,24
 -160 -176.079101562 -160 -176.079101562 -160 -159.165039062 c 128,-1,25
 -160 -142.25 -160 -142.25 -148.032226562 -130.282226562 c 128,-1,26
 -136.064229087 -118.314229087 -136.064229087 -118.314229087 -119.037362196 -118.314454609 c 0,27,28
 -45.3821416698 -118.314454609 -45.3821416698 -118.314454609 -21.384765625 -115.748046875 c 0,29,30
 6.587890625 -112.7578125 6.587890625 -112.7578125 15.8427734375 -105.208984375 c 0,31,32
 24.130859375 -98.4482421875 24.130859375 -98.4482421875 28.5556640625 -76.0693359375 c 0,33,34
 34.2685546875 -48.201171875 34.2685546875 -48.201171875 34.2685546875 15.5615234375 c 2,35,-1
 34.265625 460.733398438 l 2,36,8
 34.265625 476.825195312 34.265625 476.825195312 46.04296875 488.36328125 c 128,-1,9
EndSplineSet
Validated: 33
EndChar

StartChar: p
Encoding: 112 112 48
Width: 475
Flags: W
LayerCount: 2
Fore
SplineSet
131.63671875 498.756835938 m 0,0,1
 155.927734375 498.888671875 155.927734375 498.888671875 168.091796875 498.888671875 c 0,2,3
 236.4296875 498.84765625 236.4296875 498.84765625 276.337890625 494.16015625 c 0,4,5
 314.08203125 489.49609375 314.08203125 489.49609375 342.340820312 474.263671875 c 0,6,7
 369.536132812 459.603515625 369.536132812 459.603515625 382.49609375 433.80859375 c 0,8,9
 394.5390625 409.834960938 394.5390625 409.834960938 403.326171875 372.533203125 c 0,10,11
 415.903135584 319.134637698 415.903135584 319.134637698 415.903135584 260.479970348 c 0,12,13
 415.903135584 183.509278024 415.903135584 183.509278024 409.551757812 143.263671875 c 0,14,15
 402.797851562 100.479492188 402.797851562 100.479492188 387.500976562 70.6875 c 128,-1,16
 372.203125 40.89453125 372.203125 40.89453125 347.681640625 24.609375 c 0,17,18
 327.096679688 10.9384765625 327.096679688 10.9384765625 302.342773438 3.0419921875 c 0,19,20
 273.922851562 -5.1923828125 273.922851562 -5.1923828125 239.514648438 -7.4404296875 c 0,21,22
 223.691194146 -8.47411888433 223.691194146 -8.47411888433 167.319994843 -8.47411888433 c 0,23,24
 150.83718803 -8.47411888433 150.83718803 -8.47411888433 130.887695312 -8.3857421875 c 1,25,-1
 130.887695312 -163.599609375 l 2,26,27
 131.120117188 -180.44140625 131.120117188 -180.44140625 119.2421875 -192.485351562 c 128,-1,28
 107.36328125 -204.530273438 107.36328125 -204.530273438 90.4462890625 -204.530273438 c 128,-1,29
 73.529296875 -204.530273438 73.529296875 -204.530273438 61.650390625 -192.485351562 c 128,-1,30
 49.771484375 -180.44140625 49.771484375 -180.44140625 50.0048828125 -163.598632812 c 2,31,-1
 50.0048828125 458.567382812 l 2,32,33
 49.6982421875 481.65625 49.6982421875 481.65625 69.4931640625 492.435546875 c 0,34,35
 80.6796875 498.723632812 80.6796875 498.723632812 91.306640625 498.618164062 c 0,36,37
 106.142578125 498.618164062 106.142578125 498.618164062 131.63671875 498.756835938 c 0,0,1
245.645507812 425.256835938 m 0,38,39
 207.49609375 427.893554688 207.49609375 427.893554688 130.885742188 428.176757812 c 1,40,-1
 130.88671875 62.0283203125 l 1,41,42
 151.052735879 61.9588437921 151.052735879 61.9588437921 167.313733987 61.9588437921 c 0,43,44
 220.536408716 61.9588437921 220.536408716 61.9588437921 231.92578125 62.703125 c 0,45,46
 275.026367188 65.5185546875 275.026367188 65.5185546875 301.6328125 81.5322265625 c 0,47,48
 321.124023438 95.0302734375 321.124023438 95.0302734375 329.576171875 150.866210938 c 0,49,50
 335.015319548 186.798636257 335.015319548 186.798636257 335.015319548 260.976484491 c 0,51,52
 335.015319548 313.139807944 335.015319548 313.139807944 324.428710938 360.013671875 c 0,53,54
 321.15625 374.494140625 321.15625 374.494140625 315.5078125 388.055664062 c 128,-1,55
 309.83984375 401.666015625 309.83984375 401.666015625 305.654296875 408.391601562 c 0,56,57
 303.463867188 411.912109375 303.463867188 411.912109375 301.903320312 413.848632812 c 0,58,59
 283.14453125 422.665039062 283.14453125 422.665039062 245.645507812 425.256835938 c 0,38,39
EndSplineSet
Validated: 33
EndChar

StartChar: q
Encoding: 113 113 49
Width: 475
Flags: W
LayerCount: 2
Fore
SplineSet
189.565429688 495.719726562 m 0,0,1
 229.47265625 500.408203125 229.47265625 500.408203125 297.803710938 500.444335938 c 0,2,3
 312.233398438 500.444335938 312.233398438 500.444335938 334.23828125 500.323242188 c 0,4,5
 359.731445312 500.18359375 359.731445312 500.18359375 374.577148438 500.18359375 c 0,6,7
 388.45703125 500.36328125 388.45703125 500.36328125 399.333007812 492.5 c 0,8,9
 416.168945312 480.705078125 416.168945312 480.705078125 415.89453125 460.08984375 c 2,10,-1
 415.89453125 -162.030273438 l 2,11,12
 416.127929688 -178.873046875 416.127929688 -178.873046875 404.249023438 -190.91796875 c 128,-1,13
 392.370117188 -202.961914062 392.370117188 -202.961914062 375.455078125 -202.961914062 c 128,-1,14
 358.538085938 -202.961914062 358.538085938 -202.961914062 346.66015625 -190.91796875 c 128,-1,15
 334.78125 -178.873046875 334.78125 -178.873046875 335.013671875 -162.03125 c 2,16,-1
 335.013671875 -6.8173828125 l 1,17,18
 315.116917951 -6.9053181782 315.116917951 -6.9053181782 298.668294739 -6.9053181782 c 0,19,20
 242.231790534 -6.9053181782 242.231790534 -6.9053181782 226.387695312 -5.8701171875 c 0,21,22
 159.294921875 -1.52734375 159.294921875 -1.52734375 118.219726562 25.775390625 c 0,23,24
 70.0263671875 57.80859375 70.0263671875 57.80859375 56.349609375 144.530273438 c 0,25,26
 50.0001692788 184.784809201 50.0001692788 184.784809201 50.0001692788 261.85309517 c 0,27,28
 50.0001692788 320.553132046 50.0001692788 320.553132046 62.5751953125 373.987304688 c 0,29,30
 71.361328125 411.321289062 71.361328125 411.321289062 83.4052734375 435.315429688 c 0,31,32
 96.3642578125 461.133789062 96.3642578125 461.133789062 123.560546875 475.806640625 c 0,33,34
 151.8203125 491.051757812 151.8203125 491.051757812 189.565429688 495.719726562 c 0,0,1
335.014648438 63.5810546875 m 1,35,-1
 335.014648438 429.731445312 l 1,36,37
 258.40234375 429.4453125 258.40234375 429.4453125 220.255859375 426.809570312 c 0,38,39
 182.7578125 424.216796875 182.7578125 424.216796875 164.000976562 415.401367188 c 0,40,41
 162.439453125 413.463867188 162.439453125 413.463867188 160.249023438 409.942382812 c 0,42,43
 156.063476562 403.217773438 156.063476562 403.217773438 150.395507812 389.604492188 c 128,-1,44
 144.747070312 376.04296875 144.747070312 376.04296875 141.4765625 361.563476562 c 0,45,46
 130.886047884 314.676882079 130.886047884 314.676882079 130.886047884 262.517137915 c 0,47,48
 130.886047884 188.357235899 130.886047884 188.357235899 136.326171875 152.41796875 c 0,49,50
 144.77734375 96.5830078125 144.77734375 96.5830078125 164.26953125 83.083984375 c 0,51,52
 190.877929688 67.0693359375 190.877929688 67.0693359375 233.9765625 64.2529296875 c 0,53,54
 245.335282452 63.5107151442 245.335282452 63.5107151442 298.394470116 63.5107151442 c 0,55,56
 314.728586238 63.5107151442 314.728586238 63.5107151442 335.014648438 63.5810546875 c 1,35,-1
EndSplineSet
Validated: 33
EndChar

StartChar: r
Encoding: 114 114 50
Width: 293
Flags: W
LayerCount: 2
Fore
SplineSet
69.703125 461.0078125 m 0,0,1
 108.198242188 501.901367188 108.198242188 501.901367188 212.842773438 501.901367188 c 0,2,3
 229.9921875 501.901367188 229.9921875 501.901367188 241.994140625 489.8984375 c 128,-1,4
 253.998046875 477.89453125 253.998046875 477.89453125 253.998046875 460.928710938 c 128,-1,5
 253.998046875 443.962890625 253.998046875 443.962890625 241.994140625 431.959960938 c 128,-1,6
 229.994140625 419.958007812 229.994140625 419.958007812 212.657226562 419.958007812 c 0,7,8
 144.6015625 419.958007812 144.6015625 419.958007812 130.515625 405.108398438 c 0,9,10
 121.944335938 396.073242188 121.944335938 396.073242188 121.944335938 350.32421875 c 2,11,-1
 121.944335938 31.275390625 l 2,12,13
 121.948242188 14.7724609375 121.948242188 14.7724609375 109.943359375 3.34375 c 0,14,15
 97.939453125 -8.66015625 97.939453125 -8.66015625 80.9736328125 -8.66015625 c 128,-1,16
 64.0078125 -8.66015625 64.0078125 -8.66015625 52.00390625 3.34375 c 0,17,18
 40 14.86328125 40 14.86328125 40 31.142578125 c 2,19,-1
 40.0029296875 353.083007812 l 2,20,21
 40.0029296875 377.47265625 40.0029296875 377.47265625 40.9931640625 391.168945312 c 0,22,23
 42.0458984375 405.754882812 42.0458984375 405.754882812 48.7353515625 425.517578125 c 0,24,25
 55.716796875 446.147460938 55.716796875 446.147460938 69.703125 461.0078125 c 0,0,1
EndSplineSet
Validated: 1
EndChar

StartChar: s
Encoding: 115 115 51
Width: 413
VWidth: 0
Flags: W
LayerCount: 2
Fore
SplineSet
128.24609375 490.401367188 m 0,0,1
 155.861328125 499.698242188 155.861328125 499.698242188 226.798828125 499.698242188 c 2,2,-1
 312.673828125 499.649414062 l 2,3,4
 329.6171875 499.649414062 329.6171875 499.649414062 341.453125 487.814453125 c 128,-1,5
 353.291015625 475.9765625 353.291015625 475.9765625 353.291015625 459.247070312 c 128,-1,6
 353.291015625 442.516601562 353.291015625 442.516601562 341.453125 430.6796875 c 128,-1,7
 329.6171875 418.844726562 329.6171875 418.844726562 312.650390625 418.844726562 c 2,8,-1
 226.770507812 418.895507812 l 2,9,10
 169.092773438 418.895507812 169.092773438 418.895507812 154.028320312 414.0703125 c 0,11,12
 144.08984375 410.887695312 144.08984375 410.887695312 137.540039062 391.01953125 c 0,13,14
 130.802413199 370.587335048 130.802413199 370.587335048 130.802413199 341.699090758 c 0,15,16
 130.802413199 322.748835277 130.802413199 322.748835277 142.095703125 309.345703125 c 0,17,18
 159.555664062 288.623046875 159.555664062 288.623046875 204.299804688 285.805664062 c 0,19,20
 284.522460938 280.756835938 284.522460938 280.756835938 324.219726562 233.638671875 c 0,21,22
 353.267313633 199.159967309 353.267313633 199.159967309 353.267313633 153.242083148 c 0,23,24
 353.267313633 112.544820352 353.267313633 112.544820352 342.82421875 80.875 c 0,25,26
 323.954101562 23.6533203125 323.954101562 23.6533203125 275.021484375 7.978515625 c 0,27,28
 247.405273438 -1.318359375 247.405273438 -1.318359375 176.471679688 -1.318359375 c 2,29,-1
 90.6298828125 -1.26953125 l 2,30,31
 73.7265625 -1.26953125 73.7265625 -1.26953125 61.890625 10.5673828125 c 128,-1,32
 50.0537109375 22.4052734375 50.0537109375 22.4052734375 50.0537109375 39.134765625 c 128,-1,33
 50.0537109375 55.86328125 50.0537109375 55.86328125 61.890625 67.7021484375 c 128,-1,34
 73.7265625 79.537109375 73.7265625 79.537109375 90.654296875 79.537109375 c 2,35,-1
 176.494140625 79.486328125 l 2,36,37
 234.173828125 79.4873046875 234.173828125 79.4873046875 249.23828125 84.314453125 c 0,38,39
 259.173828125 87.4970703125 259.173828125 87.4970703125 265.725585938 107.362304688 c 0,40,41
 272.462225014 127.798489205 272.462225014 127.798489205 272.462225014 156.688226883 c 0,42,43
 272.462225014 175.632831303 272.462225014 175.632831303 261.168945312 189.036132812 c 0,44,45
 243.706054688 209.76171875 243.706054688 209.76171875 198.96484375 212.578125 c 0,46,47
 118.743164062 217.626953125 118.743164062 217.626953125 79.048828125 264.744140625 c 0,48,49
 50.0002740578 299.220105855 50.0002740578 299.220105855 50.0002740578 345.14761665 c 0,50,51
 50.0002740578 385.845939411 50.0002740578 385.845939411 60.4404296875 417.505859375 c 0,52,53
 79.30859375 474.7265625 79.30859375 474.7265625 128.24609375 490.401367188 c 0,0,1
EndSplineSet
Validated: 1
EndChar

StartChar: t
Encoding: 116 116 52
Width: 366
VWidth: 0
Flags: W
LayerCount: 2
Fore
SplineSet
131.88671875 695.231445312 m 0,0,1
 143.75 705.77734375 143.75 705.77734375 159.892578125 705.77734375 c 128,-1,2
 176.03515625 705.77734375 176.03515625 705.77734375 187.897460938 695.231445312 c 0,3,4
 200.301757812 684.205078125 200.301757812 684.205078125 200.301757812 665.366210938 c 2,5,-1
 200.301757812 499.989257812 l 1,6,7
 211.364257812 499.989257812 211.364257812 499.989257812 231.32421875 499.995117188 c 128,-1,8
 251.284179688 500.000976562 251.284179688 500.000976562 262.56640625 500.000976562 c 0,9,10
 279.294921875 500.000976562 279.294921875 500.000976562 291.133789062 488.163085938 c 128,-1,11
 302.970703125 476.325195312 302.970703125 476.325195312 302.970703125 459.596679688 c 128,-1,12
 302.970703125 442.866210938 302.970703125 442.866210938 291.1328125 431.029296875 c 128,-1,13
 279.306640625 419.204101562 279.306640625 419.204101562 261.717773438 419.204101562 c 2,14,-1
 200.301757812 419.204101562 l 1,15,-1
 200.301757812 201.849609375 l 2,16,17
 200.301757812 139.7734375 200.301757812 139.7734375 205.907226562 112.776367188 c 0,18,19
 210.2578125 91.8232421875 210.2578125 91.8232421875 218.401367188 85.4990234375 c 0,20,21
 231.04520217 75.6749761896 231.04520217 75.6749761896 251.642769453 75.6749761896 c 0,22,23
 252.623885192 75.6749761896 252.623885192 75.6749761896 253.623046875 75.697265625 c 2,24,-1
 283.845703125 76.37109375 l 2,25,26
 284.582146009 76.3875111778 284.582146009 76.3875111778 285.306555863 76.3875111778 c 0,27,28
 309.962318771 76.3875111778 309.962318771 76.3875111778 320.678710938 57.369140625 c 0,29,30
 325.999529709 47.926485046 325.999529709 47.926485046 325.999529709 38.4147279245 c 128,-1,31
 325.999529709 28.9379501434 325.999529709 28.9379501434 320.717773438 19.392578125 c 0,32,33
 309.8203125 -0.3056640625 309.8203125 -0.3056640625 284.202148438 -0.5615234375 c 2,34,-1
 247.620117188 -0.9453125 l 2,35,36
 246.883886719 -0.95265715843 246.883886719 -0.95265715843 246.150341269 -0.95265715843 c 0,37,38
 201.823237645 -0.95265715843 201.823237645 -0.95265715843 167.30078125 25.8671875 c 0,39,40
 136.651367188 49.677734375 136.651367188 49.677734375 126.655273438 97.8232421875 c 0,41,42
 119.483398438 132.368164062 119.483398438 132.368164062 119.483398438 201.83984375 c 2,43,-1
 119.483398438 419.204101562 l 1,44,45
 112.377929688 419.204101562 112.377929688 419.204101562 100.311523438 419.198242188 c 128,-1,46
 88.2451171875 419.192382812 88.2451171875 419.192382812 80.7998046875 419.192382812 c 0,47,48
 64.0712890625 419.192382812 64.0712890625 419.192382812 52.232421875 431.029296875 c 128,-1,49
 40.3955078125 442.866210938 40.3955078125 442.866210938 40.3955078125 459.596679688 c 128,-1,50
 40.3955078125 476.325195312 40.3955078125 476.325195312 52.2333984375 488.1640625 c 128,-1,51
 64.0595703125 499.989257812 64.0595703125 499.989257812 81.6484375 499.989257812 c 2,52,-1
 119.483398438 499.989257812 l 1,53,-1
 119.483398438 665.366210938 l 2,54,55
 119.483398438 684.205078125 119.483398438 684.205078125 131.88671875 695.231445312 c 0,0,1
EndSplineSet
Validated: 5
EndChar

StartChar: u
Encoding: 117 117 53
Width: 472
VWidth: 0
Flags: W
LayerCount: 2
Fore
SplineSet
61.6455078125 490.030273438 m 0,0,1
 73.2958984375 501.857421875 73.2958984375 501.857421875 90.0654296875 502.110351562 c 0,2,3
 107.126953125 502.110351562 107.126953125 502.110351562 118.965820312 490.272460938 c 0,4,5
 130.802734375 479.009765625 130.802734375 479.009765625 130.802734375 463.094726562 c 2,6,-1
 130.799804688 159.002929688 l 2,7,8
 131.029296875 119.211914062 131.029296875 119.211914062 149.030273438 100.547851562 c 0,9,10
 169.647460938 79.1708984375 169.647460938 79.1708984375 230.999023438 79.1708984375 c 128,-1,11
 292.548828125 79.1708984375 292.548828125 79.1708984375 313.569335938 100.86328125 c 0,12,13
 331.80078125 119.67578125 331.80078125 119.67578125 331.206054688 158.331054688 c 2,14,-1
 331.203125 462.69140625 l 2,15,16
 331.19921875 479.033203125 331.19921875 479.033203125 343.038085938 490.297851562 c 0,17,18
 354.875976562 502.134765625 354.875976562 502.134765625 371.604492188 502.134765625 c 128,-1,19
 388.334960938 502.134765625 388.334960938 502.134765625 400.171875 490.297851562 c 0,20,21
 412.009765625 478.94921875 412.009765625 478.94921875 412.009765625 462.912109375 c 2,22,-1
 412.005859375 156.796875 l 2,23,24
 413.073242188 87.087890625 413.073242188 87.087890625 372.977539062 45.3974609375 c 0,25,26
 357.858398438 29.6767578125 357.858398438 29.6767578125 337.909179688 19.2216796875 c 128,-1,27
 317.959960938 8.7666015625 317.959960938 8.7666015625 293.918945312 3.6767578125 c 0,28,29
 265.272460938 -1.6318359375 265.272460938 -1.6318359375 231.000976562 -1.6318359375 c 0,30,31
 134.12890625 -1.6318359375 134.12890625 -1.6318359375 89.4951171875 45.0146484375 c 0,32,33
 50.400390625 85.8740234375 50.400390625 85.8740234375 50 155.96484375 c 2,34,-1
 50 462.458984375 l 2,35,36
 49.9951171875 478.6875 49.9951171875 478.6875 61.6455078125 490.030273438 c 0,0,1
EndSplineSet
Validated: 33
EndChar

StartChar: v
Encoding: 118 118 54
Width: 476
VWidth: 0
Flags: W
LayerCount: 2
Fore
SplineSet
375.5390625 499.404296875 m 0,0,1
 376.487304688 499.404296875 376.487304688 499.404296875 377.407226562 499.362304688 c 0,2,3
 393.576171875 498.650390625 393.576171875 498.650390625 404.951171875 487.229492188 c 128,-1,4
 416.328125 475.80859375 416.328125 475.80859375 416.328125 460.283203125 c 0,5,6
 416.328125 454.87109375 416.328125 454.87109375 414.81640625 449.729492188 c 2,7,-1
 288.439453125 27.603515625 l 2,8,9
 284.6484375 15.375 284.6484375 15.375 271.948242188 6.974609375 c 0,10,11
 259.248046875 -1.783203125 259.248046875 -1.783203125 244.549804688 -1.7841796875 c 2,12,-1
 199.4765625 -1.7841796875 l 2,13,14
 184.411132812 -1.783203125 184.411132812 -1.783203125 171.61328125 7.275390625 c 0,15,16
 159.9609375 15.9638671875 159.9609375 15.9638671875 156.8046875 28.580078125 c 2,17,-1
 51.234375 450.700195312 l 2,18,19
 50 455.368164062 50 455.368164062 50 460.249023438 c 0,20,21
 50 476.448242188 50 476.448242188 61.9501953125 487.907226562 c 128,-1,22
 73.8994140625 499.369140625 73.8994140625 499.369140625 90.7890625 499.369140625 c 0,23,24
 104.487304688 499.369140625 104.487304688 499.369140625 116.017578125 490.15625 c 128,-1,25
 127.547851562 480.944335938 127.547851562 480.944335938 130.557617188 467.649414062 c 2,26,-1
 223.162109375 104.211914062 l 1,27,-1
 331.504882812 468.6484375 l 2,28,29
 335.124023438 481.553710938 335.124023438 481.553710938 347.87890625 490.478515625 c 128,-1,30
 360.634765625 499.404296875 360.634765625 499.404296875 375.5390625 499.404296875 c 0,0,1
EndSplineSet
Validated: 1
EndChar

StartChar: w
Encoding: 119 119 55
Width: 730
VWidth: 0
Flags: W
LayerCount: 2
Fore
SplineSet
61.392578125 488.254882812 m 128,-1,1
 73.015625 499.744140625 73.015625 499.744140625 89.7001953125 499.986328125 c 0,2,3
 90.0565957024 499.991455159 90.0565957024 499.991455159 90.4108162482 499.991455159 c 0,4,5
 106.991442545 499.991455159 106.991442545 499.991455159 118.795898438 488.7578125 c 0,6,7
 130.853515625 477.28515625 130.853515625 477.28515625 130.612304688 461.124023438 c 2,8,-1
 130.612304688 158.084960938 l 2,9,10
 130.85546875 118.430664062 130.85546875 118.430664062 148.7734375 99.8310546875 c 0,11,12
 169.311523438 78.5107421875 169.311523438 78.5107421875 222.900390625 78.5107421875 c 0,13,14
 276.728515625 78.5107421875 276.728515625 78.5107421875 298.891601562 101.223632812 c 0,15,16
 318.116210938 120.926757812 318.116210938 120.926757812 317.48828125 161.403320312 c 2,17,-1
 317.483398438 389.143554688 l 2,18,19
 317.249023438 405.924804688 317.249023438 405.924804688 329.776367188 417.918945312 c 128,-1,20
 342.303710938 429.912109375 342.303710938 429.912109375 360.138671875 429.912109375 c 128,-1,21
 377.97265625 429.912109375 377.97265625 429.912109375 390.5 417.918945312 c 128,-1,22
 403.02734375 405.924804688 403.02734375 405.924804688 402.793945312 389.14453125 c 2,23,-1
 402.830078125 161.978515625 l 2,24,25
 403.067382812 121.104492188 403.067382812 121.104492188 422.6953125 100.893554688 c 0,26,27
 444.43359375 78.5107421875 444.43359375 78.5107421875 498.060546875 78.5107421875 c 128,-1,28
 551.83984375 78.5107421875 551.83984375 78.5107421875 572.78125 100.145507812 c 0,29,30
 590.946289062 118.9140625 590.946289062 118.9140625 590.352539062 157.469726562 c 2,31,-1
 590.349609375 461.123046875 l 2,32,33
 590.11328125 476.943359375 590.11328125 476.943359375 601.737304688 488.34375 c 128,-1,34
 613.360351562 499.74609375 613.360351562 499.74609375 630.045898438 499.986328125 c 0,35,36
 630.399997186 499.991422049 630.399997186 499.991422049 630.751943732 499.991422049 c 0,37,38
 647.335496761 499.991422049 647.335496761 499.991422049 659.140625 488.681640625 c 0,39,40
 671.196289062 477.131835938 671.196289062 477.131835938 670.955078125 460.864257812 c 2,41,-1
 670.955078125 155.740234375 l 2,42,43
 671.877929688 86.513671875 671.877929688 86.513671875 632.043945312 45.0830078125 c 0,44,45
 609.489257812 21.625 609.489257812 21.625 576.517578125 10.0146484375 c 0,46,47
 543.112304688 -2.09375 543.112304688 -2.09375 498.060546875 -2.09375 c 0,48,49
 408.251953125 -2.09375 408.251953125 -2.09375 360.62890625 45.5859375 c 1,50,51
 336.290039062 21.3232421875 336.290039062 21.3232421875 301.934570312 9.615234375 c 128,-1,52
 267.580078125 -2.09375 267.580078125 -2.09375 222.900390625 -2.09375 c 0,53,54
 133.875 -2.09375 133.875 -2.09375 89.3818359375 44.44921875 c 0,55,56
 68.6494140625 66.134765625 68.6494140625 66.134765625 59.3046875 94.822265625 c 0,57,58
 50.1904296875 122.801757812 50.1904296875 122.801757812 50.0048828125 155.1484375 c 2,59,-1
 50.0048828125 460.825195312 l 2,60,0
 49.7685546875 476.766601562 49.7685546875 476.766601562 61.392578125 488.254882812 c 128,-1,1
EndSplineSet
Validated: 33
EndChar

StartChar: x
Encoding: 120 120 56
Width: 476
VWidth: 0
Flags: W
LayerCount: 2
Fore
SplineSet
61.2822265625 487.581054688 m 128,-1,1
 72.564453125 498.999023438 72.564453125 498.999023438 88.630859375 499.830078125 c 0,2,3
 89.65234375 499.8828125 89.65234375 499.8828125 90.6962890625 499.8828125 c 128,-1,4
 91.740234375 499.8828125 91.740234375 499.8828125 92.716796875 499.83203125 c 0,5,6
 114.974609375 498.82421875 114.974609375 498.82421875 126.120117188 479.577148438 c 2,7,-1
 233.43359375 317.83203125 l 1,8,-1
 340.747070312 479.581054688 l 2,9,10
 352.5078125 499.854492188 352.5078125 499.854492188 376.484375 499.854492188 c 0,11,12
 393.53515625 499.458007812 393.53515625 499.458007812 405.1875 488.010742188 c 128,-1,13
 416.841796875 476.5625 416.841796875 476.5625 416.841796875 460.715820312 c 0,14,15
 416.841796875 449.604492188 416.841796875 449.604492188 410.791015625 440.209960938 c 2,16,-1
 290.428710938 249.110351562 l 1,17,-1
 410.828125 57.9833984375 l 2,18,19
 416.624023438 48.7001953125 416.624023438 48.7001953125 416.624023438 37.880859375 c 0,20,21
 416.624023438 29.990234375 416.624023438 29.990234375 413.555664062 22.8896484375 c 128,-1,22
 410.486328125 15.7890625 410.486328125 15.7890625 404.666015625 10.2080078125 c 0,23,24
 392.708007812 -1.75 392.708007812 -1.75 375.806640625 -1.75 c 0,25,26
 352.668945312 -1.75 352.668945312 -1.75 340.783203125 18.103515625 c 2,27,-1
 233.43359375 179.9140625 l 1,28,-1
 126.078125 18.0986328125 l 2,29,30
 114.189453125 -1.7373046875 114.189453125 -1.7373046875 91.0654296875 -1.7373046875 c 0,31,32
 74.1640625 -1.7373046875 74.1640625 -1.7373046875 62.2060546875 10.2216796875 c 0,33,34
 50.248046875 21.6884765625 50.248046875 21.6884765625 50.248046875 37.89453125 c 0,35,36
 50.248046875 48.705078125 50.248046875 48.705078125 56.0361328125 57.9833984375 c 2,37,-1
 176.440429688 249.110351562 l 1,38,-1
 56.0771484375 440.203125 l 2,39,40
 50 449.607421875 50 449.607421875 50 460.748046875 c 0,41,0
 50 476.165039062 50 476.165039062 61.2822265625 487.581054688 c 128,-1,1
EndSplineSet
Validated: 1
EndChar

StartChar: y
Encoding: 121 121 57
Width: 459
VWidth: 0
Flags: W
LayerCount: 2
Fore
SplineSet
61.6552734375 489.124023438 m 0,0,1
 73.2763671875 500.923828125 73.2763671875 500.923828125 90.0068359375 501.174804688 c 0,2,3
 107.028320312 501.174804688 107.028320312 501.174804688 118.836914062 489.366210938 c 0,4,5
 130.645507812 478.133789062 130.645507812 478.133789062 130.645507812 462.255859375 c 2,6,-1
 130.631835938 202.948242188 l 2,7,8
 130.609292715 199.912763005 130.609292715 199.912763005 130.609292715 196.960662686 c 0,9,10
 130.609292715 115.509531187 130.609292715 115.509531187 147.770507812 97.53125 c 0,11,12
 165.440429688 79.0185546875 165.440429688 79.0185546875 269.81640625 79.0185546875 c 2,13,-1
 318.057617188 79.1083984375 l 1,14,-1
 318.0546875 461.622070312 l 2,15,16
 318.0546875 477.354492188 318.0546875 477.354492188 329.733398438 488.631835938 c 0,17,18
 341.65655626 500.736433117 341.65655626 500.736433117 358.039706847 500.738282535 c 0,19,20
 375.334959653 500.738282535 375.334959653 500.738282535 387.198242188 488.875 c 0,21,22
 399.0625 477.4296875 399.0625 477.4296875 399.0625 460.83984375 c 2,23,-1
 399.0625 21.2412109375 l 2,24,25
 399.0625 -49.4169921875 399.0625 -49.4169921875 391.879882812 -84.4599609375 c 0,26,27
 381.853515625 -135.157226562 381.853515625 -135.157226562 351.086914062 -160.25390625 c 0,28,29
 323.30859375 -182.91015625 323.30859375 -182.91015625 270.020507812 -188.420898438 c 0,30,31
 235.288085938 -191.419921875 235.288085938 -191.419921875 145.4765625 -191.419921875 c 0,32,33
 128.706054688 -191.419921875 128.706054688 -191.419921875 116.838867188 -179.553710938 c 128,-1,34
 104.97265625 -167.6875 104.97265625 -167.6875 104.97265625 -150.916015625 c 128,-1,35
 104.97265625 -134.145507812 104.97265625 -134.145507812 116.838867188 -122.27734375 c 128,-1,36
 128.702148438 -110.415039062 128.702148438 -110.415039062 145.921875 -110.415039062 c 0,37,38
 229.954101562 -110.415039062 229.954101562 -110.415039062 259.354492188 -107.876953125 c 0,39,40
 290.763671875 -104.924804688 290.763671875 -104.924804688 299.887695312 -97.4833984375 c 0,41,42
 308.049804688 -90.826171875 308.049804688 -90.826171875 312.415039062 -68.748046875 c 128,-1,43
 316.814453125 -46.5 316.814453125 -46.5 317.802734375 -1.494140625 c 1,44,-1
 269.879882812 -1.5888671875 l 2,45,46
 194.602539062 -1.5888671875 194.602539062 -1.5888671875 152.462890625 7.345703125 c 0,47,48
 113.108398438 16.353515625 113.108398438 16.353515625 88.095703125 42.7490234375 c 0,49,50
 63.59375 68.60546875 63.59375 68.60546875 56.4111328125 105.749023438 c 0,51,52
 50.0001123467 138.901846665 50.0001123467 138.901846665 50.0001123467 193.899756312 c 0,53,54
 50.0001123467 197.419307581 50.0001123467 197.419307581 50.0263671875 201.028320312 c 2,55,-1
 50.037109375 461.643554688 l 2,56,57
 50.033203125 477.818359375 50.033203125 477.818359375 61.6552734375 489.124023438 c 0,0,1
EndSplineSet
Validated: 1
EndChar

StartChar: z
Encoding: 122 122 58
Width: 441
VWidth: 0
Flags: W
LayerCount: 2
Fore
SplineSet
340.588867188 499.98046875 m 2,0,1
 357.42578125 499.98046875 357.42578125 499.98046875 369.340820312 488.064453125 c 128,-1,2
 381.256835938 476.1484375 381.256835938 476.1484375 381.256835938 459.3125 c 0,3,4
 381.256835938 448.129882812 381.256835938 448.129882812 375.541015625 438.522460938 c 2,5,-1
 162.190429688 80.0322265625 l 1,6,-1
 339.577148438 80.0654296875 l 2,7,8
 339.873046875 80.0703125 339.873046875 80.0703125 340.21875 80.0703125 c 0,9,10
 357.055664062 80.0703125 357.055664062 80.0703125 368.970703125 68.154296875 c 128,-1,11
 380.88671875 56.23828125 380.88671875 56.23828125 380.88671875 39.40234375 c 128,-1,12
 380.88671875 22.5654296875 380.88671875 22.5654296875 368.970703125 10.650390625 c 128,-1,13
 357.055664062 -1.265625 357.055664062 -1.265625 340.21875 -1.265625 c 0,14,15
 339.880859375 -1.265625 339.880859375 -1.265625 339.592773438 -1.2607421875 c 2,16,-1
 90.6669921875 -1.30859375 l 2,17,18
 73.8310546875 -1.30859375 73.8310546875 -1.30859375 61.9150390625 10.607421875 c 128,-1,19
 50 22.5234375 50 22.5234375 50 39.359375 c 0,20,21
 50 50.5419921875 50 50.5419921875 55.716796875 60.15234375 c 2,22,-1
 269.069335938 418.641601562 l 1,23,-1
 91.6787109375 418.606445312 l 2,24,25
 74.2744140625 418.602539062 74.2744140625 418.602539062 62.359375 430.518554688 c 128,-1,26
 50.443359375 442.434570312 50.443359375 442.434570312 50.443359375 459.270507812 c 128,-1,27
 50.443359375 476.107421875 50.443359375 476.107421875 62.359375 488.0234375 c 128,-1,28
 74.2744140625 499.938476562 74.2744140625 499.938476562 91.111328125 499.938476562 c 0,29,-1
 340.588867188 499.98046875 l 2,0,1
EndSplineSet
Validated: 33
EndChar

StartChar: h
Encoding: 104 104 59
Width: 468
VWidth: 0
Flags: W
LayerCount: 2
Fore
SplineSet
61.58203125 692.219726562 m 128,-1,1
 73.400390625 704.388671875 73.400390625 704.388671875 90.361328125 704.64453125 c 0,2,3
 90.7225108263 704.649967621 90.7225108263 704.649967621 91.0814919799 704.649967621 c 0,4,5
 107.940161182 704.649967621 107.940161182 704.649967621 119.943359375 692.66015625 c 0,6,7
 132.200195312 680.4140625 132.200195312 680.4140625 131.955078125 663.1640625 c 2,8,-1
 131.955078125 501.653320312 l 1,9,-1
 184.889648438 501.755859375 l 2,10,11
 260.407226562 501.755859375 260.407226562 501.755859375 303.5546875 492.626953125 c 0,12,13
 343.724609375 483.4296875 343.724609375 483.4296875 369.251953125 456.48046875 c 0,14,15
 394.282226562 430.055664062 394.282226562 430.055664062 401.606445312 392.088867188 c 0,16,17
 408.144646518 358.190921506 408.144646518 358.190921506 408.144646518 302.139231495 c 0,18,19
 408.144646518 298.506761193 408.144646518 298.506761193 408.1171875 294.78125 c 2,20,-1
 408.104492188 34.2939453125 l 2,21,22
 408.369140625 17.9228515625 408.369140625 17.9228515625 396.329101562 6.2021484375 c 0,23,24
 384.289047527 -6.02441414049 384.289047527 -6.02441414049 367.12969405 -6.02441414049 c 128,-1,25
 349.967277588 -6.0239258169 349.967277588 -6.0239258169 337.927734375 6.2060546875 c 0,26,27
 325.888671875 17.8447265625 325.888671875 17.8447265625 326.15625 34.095703125 c 2,28,-1
 326.166992188 292.80859375 l 2,29,30
 326.190174906 295.919933369 326.190174906 295.919933369 326.190174906 298.945779232 c 0,31,32
 326.190174906 382.339519472 326.190174906 382.339519472 308.581054688 400.793945312 c 0,33,34
 290.442382812 419.8046875 290.442382812 419.8046875 184.916015625 419.8046875 c 2,35,-1
 131.955078125 419.708007812 l 1,36,-1
 131.955078125 32.6435546875 l 2,37,38
 132.1015625 22.03515625 132.1015625 22.03515625 126.635742188 12.8935546875 c 128,-1,39
 121.194335938 3.7919921875 121.194335938 3.7919921875 111.7109375 -1.5087890625 c 0,40,41
 102.186523438 -7.0986328125 102.186523438 -7.0986328125 90.9794921875 -7.0986328125 c 0,42,43
 73.8486328125 -7.0986328125 73.8486328125 -7.0986328125 61.8154296875 5.09375 c 0,44,45
 49.78125 16.908203125 49.78125 16.908203125 50.0048828125 33.44140625 c 2,46,-1
 50.0048828125 663.163085938 l 2,47,0
 49.7646484375 680.049804688 49.7646484375 680.049804688 61.58203125 692.219726562 c 128,-1,1
EndSplineSet
Validated: 33
EndChar

StartChar: A
Encoding: 65 65 60
Width: 593
VWidth: 0
Flags: W
LayerCount: 2
Fore
SplineSet
121.118164062 641.465820312 m 0,0,1
 188.938476562 701.147460938 188.938476562 701.147460938 331.680664062 701.383789062 c 2,2,-1
 492.698242188 700.53125 l 2,3,4
 509.596679688 700.439453125 509.596679688 700.439453125 521.54296875 688.811523438 c 128,-1,5
 533.490234375 677.184570312 533.490234375 677.184570312 533.490234375 660.81640625 c 2,6,-1
 532.62109375 39.0068359375 l 2,7,8
 532.62109375 22.3984375 532.62109375 22.3984375 520.603515625 10.7705078125 c 0,9,10
 508.584960938 -1.248046875 508.584960938 -1.248046875 491.598632812 -1.248046875 c 128,-1,11
 474.612304688 -1.248046875 474.612304688 -1.248046875 462.594726562 10.7705078125 c 128,-1,12
 450.577148438 22.7861328125 450.577148438 22.7861328125 450.577148438 40.00390625 c 2,13,-1
 451.014648438 360.991210938 l 1,14,-1
 132.17578125 361.174804688 l 1,15,-1
 132.610351562 37.9111328125 l 2,16,17
 132.610351562 22.65234375 132.610351562 22.65234375 120.591796875 10.6337890625 c 128,-1,18
 108.573242188 -1.384765625 108.573242188 -1.384765625 91.5869140625 -1.384765625 c 128,-1,19
 74.6005859375 -1.384765625 74.6005859375 -1.384765625 62.58203125 10.6337890625 c 0,20,21
 50.5654296875 22.263671875 50.5654296875 22.263671875 50.5654296875 38.8720703125 c 2,22,-1
 50 447.547851562 l 2,23,24
 51.078125 578.16015625 51.078125 578.16015625 121.118164062 641.465820312 c 0,0,1
451.418945312 630.219726562 m 1,25,-1
 331.6484375 630.84375 l 2,26,27
 224.749023438 630.661132812 224.749023438 630.661132812 177.883789062 591.024414062 c 0,28,29
 132.860351562 549.674804688 132.860351562 549.674804688 132.064453125 450.3359375 c 2,30,-1
 132.08984375 431.71484375 l 1,31,-1
 451.150390625 431.529296875 l 1,32,-1
 451.418945312 630.219726562 l 1,25,-1
EndSplineSet
Validated: 1
EndChar

StartChar: B
Encoding: 66 66 61
Width: 594
VWidth: 0
Flags: W
LayerCount: 2
Fore
SplineSet
90.685546875 702.091796875 m 2,0,-1
 194.625976562 702.946289062 l 2,1,2
 279.822265625 702.946289062 279.822265625 702.946289062 329.852539062 679.422851562 c 0,3,4
 382.07421875 654.870117188 382.07421875 654.870117188 402.8515625 603.595703125 c 0,5,6
 416.811523438 568.416992188 416.811523438 568.416992188 418.840820312 515.275390625 c 0,7,8
 419.697233394 492.842216375 419.697233394 492.842216375 419.697233394 470.624480758 c 0,9,10
 419.697233394 446.302288977 419.697233394 446.302288977 418.670898438 422.23828125 c 1,11,12
 458.431640625 412.985351562 458.431640625 412.985351562 483.877929688 388.330078125 c 0,13,14
 534.295898438 339.484375 534.295898438 339.484375 534.295898438 219.79296875 c 0,15,16
 534.295898438 101.493164062 534.295898438 101.493164062 502.728515625 49.9609375 c 0,17,18
 485.44921875 21.75390625 485.44921875 21.75390625 455.920898438 8.16796875 c 0,19,20
 428.249307141 -4.98471674332 428.249307141 -4.98471674332 395.75049634 -4.98471674332 c 0,21,22
 394.426616696 -4.98471674332 394.426616696 -4.98471674332 393.094726562 -4.962890625 c 0,23,24
 369.987304688 -4.9306640625 369.987304688 -4.9306640625 258.78515625 -4.7587890625 c 2,25,-1
 91.8212890625 -4.4921875 l 2,26,27
 74.8857421875 -4.4609375 74.8857421875 -4.4609375 62.890625 7.5380859375 c 0,28,29
 50.896484375 19.1533203125 50.896484375 19.1533203125 50.873046875 35.5458984375 c 2,30,-1
 50 662.350585938 l 2,31,32
 50 678.701171875 50 678.701171875 61.9140625 690.330078125 c 128,-1,33
 73.828125 701.956054688 73.828125 701.956054688 90.685546875 702.091796875 c 2,0,-1
286.196289062 606.533203125 m 0,34,35
 256.614257812 620.903320312 256.614257812 620.903320312 194.853515625 620.903320312 c 2,36,-1
 132.131835938 620.38671875 l 1,37,-1
 132.400390625 420.038085938 l 1,38,-1
 326.991210938 419.366210938 l 2,39,40
 327.010742188 421.762695312 327.010742188 421.762695312 327.028320312 423.875976562 c 0,41,42
 327.108864144 433.439698079 327.108864144 433.439698079 327.108864144 442.42802988 c 0,43,44
 327.108864144 545.907070697 327.108864144 545.907070697 316.43359375 573.124023438 c 0,45,46
 307.360351562 596.254882812 307.360351562 596.254882812 286.196289062 606.533203125 c 0,34,35
354.390625 348.741210938 m 2,47,-1
 132.522460938 349.5 l 1,48,-1
 132.904296875 65.9755859375 l 1,49,-1
 264.818359375 65.7685546875 l 1,50,-1
 394.234375 65.5693359375 l 2,51,52
 413.356445312 65.267578125 413.356445312 65.267578125 420.086914062 68.193359375 c 0,53,54
 425.663085938 70.6494140625 425.663085938 70.6494140625 432.205078125 81.68359375 c 0,55,56
 452.298828125 115.577148438 452.298828125 115.577148438 452.298828125 215.296875 c 0,57,58
 452.298828125 304.995117188 452.298828125 304.995117188 425.881835938 331.435546875 c 0,59,60
 409.705078125 347.1953125 409.705078125 347.1953125 354.390625 348.741210938 c 2,47,-1
EndSplineSet
Validated: 1
EndChar

StartChar: C
Encoding: 67 67 62
Width: 558
VWidth: 0
Flags: W
LayerCount: 2
Fore
SplineSet
341.063476562 702.52734375 m 0,0,1
 346.541015625 702.57421875 346.541015625 702.57421875 358.479492188 702.57421875 c 0,2,3
 374.872070312 702.521484375 374.872070312 702.521484375 423.145507812 701.793945312 c 0,4,5
 464.7421875 701.111328125 464.7421875 701.111328125 493.221679688 701.111328125 c 0,6,7
 494.876953125 701.111328125 494.876953125 701.111328125 496.487304688 701.11328125 c 0,8,9
 513.826171875 701.11328125 513.826171875 701.11328125 525.912109375 689.026367188 c 128,-1,10
 538 676.9375 538 676.9375 538 659.853515625 c 128,-1,11
 538 642.76953125 538 642.76953125 525.912109375 630.680664062 c 128,-1,12
 513.826171875 618.592773438 513.826171875 618.592773438 496.545898438 618.592773438 c 0,13,14
 494.625 618.58984375 494.625 618.58984375 492.65234375 618.58984375 c 0,15,16
 463.190429688 618.58984375 463.190429688 618.58984375 422.28125 619.21875 c 0,17,18
 374.90234375 619.88671875 374.90234375 619.88671875 356.262695312 619.971679688 c 0,19,20
 355.061523438 619.977539062 355.061523438 619.977539062 353.791015625 619.977539062 c 0,21,22
 335.5625 619.977539062 335.5625 619.977539062 302.944335938 618.837890625 c 0,23,24
 236.421875 615.185546875 236.421875 615.185546875 193.379882812 589.977539062 c 0,25,26
 154.442382812 566.278320312 154.442382812 566.278320312 140.573242188 484.373046875 c 0,27,28
 132.138671875 434.559570312 132.138671875 434.559570312 132.138671875 329.6796875 c 0,29,30
 132.138671875 245.251953125 132.138671875 245.251953125 143.948242188 189.966796875 c 0,31,32
 158.91015625 119.940429688 158.91015625 119.940429688 189.77734375 105.1171875 c 0,33,34
 203.140625 98.9208984375 203.140625 98.9208984375 216.458984375 94.642578125 c 0,35,36
 229.41015625 90.482421875 229.41015625 90.482421875 248.264648438 87.896484375 c 0,37,38
 268.146484375 85.169921875 268.146484375 85.169921875 282.151367188 83.6748046875 c 0,39,40
 295.705078125 82.2041015625 295.705078125 82.2041015625 325.438476562 81.787109375 c 0,41,42
 353.241210938 81.38671875 353.241210938 81.38671875 370.2421875 81.38671875 c 0,43,44
 371.763671875 81.38671875 371.763671875 81.38671875 373.198242188 81.3896484375 c 0,45,46
 390.723632812 81.427734375 390.723632812 81.427734375 433.111328125 81.8984375 c 0,47,48
 473.059570312 82.37109375 473.059570312 82.37109375 497.033203125 82.517578125 c 0,49,50
 513.787109375 82.517578125 513.787109375 82.517578125 525.875 70.4287109375 c 128,-1,51
 537.962890625 58.33984375 537.962890625 58.33984375 537.962890625 41.255859375 c 0,52,53
 537.962890625 32.95703125 537.962890625 32.95703125 534.854492188 25.455078125 c 128,-1,54
 531.74609375 17.953125 531.74609375 17.953125 525.875 12.0830078125 c 0,55,56
 513.787109375 -0.0068359375 513.787109375 -0.0068359375 496.735351562 -0.0068359375 c 0,57,58
 472.1640625 -0.154296875 472.1640625 -0.154296875 424.5 -0.8701171875 c 0,59,60
 375.84765625 -1.5400390625 375.84765625 -1.5400390625 355.361328125 -1.5400390625 c 0,61,62
 353.9375 -1.5400390625 353.9375 -1.5400390625 352.650390625 -1.537109375 c 0,63,64
 332.703125 -1.4873046875 332.703125 -1.4873046875 296.3984375 -0.138671875 c 0,65,66
 259.311523438 1.23828125 259.311523438 1.23828125 239.365234375 4.939453125 c 0,67,68
 219.844726562 8.4453125 219.844726562 8.4453125 194.94140625 15.0732421875 c 0,69,70
 169.428710938 21.8681640625 169.428710938 21.8681640625 149.091796875 32.361328125 c 0,71,72
 85.8544921875 64.9912109375 85.8544921875 64.9912109375 63.10546875 172.483398438 c 0,73,74
 49.615234375 236.2265625 49.615234375 236.2265625 49.615234375 329.6015625 c 0,75,76
 49.615234375 441.907226562 49.615234375 441.907226562 59.115234375 498.541992188 c 0,77,78
 78.7119140625 615.377929688 78.7119140625 615.377929688 145.10546875 658.629882812 c 0,79,80
 206.102539062 696.159179688 206.102539062 696.159179688 297.376953125 701.21484375 c 0,81,82
 316.70703125 702.321289062 316.70703125 702.321289062 341.063476562 702.52734375 c 0,0,1
EndSplineSet
EndChar

StartChar: D
Encoding: 68 68 63
Width: 605
VWidth: 0
Flags: W
LayerCount: 2
Fore
SplineSet
132.216796875 702.266601562 m 0,0,1
 162.673828125 702.387695312 162.673828125 702.387695312 176.158203125 702.387695312 c 0,2,3
 235.001953125 702.325195312 235.001953125 702.325195312 274.912109375 700.068359375 c 0,4,5
 395.962890625 693.446289062 395.962890625 693.446289062 452.20703125 660.01953125 c 0,6,7
 517.588867188 617.32421875 517.588867188 617.32421875 536.743164062 497.979492188 c 0,8,9
 545.96808726 440.51068701 545.96808726 440.51068701 545.96808726 329.4519216 c 0,10,11
 545.96808726 246.6735943 545.96808726 246.6735943 527.124023438 168.993164062 c 0,12,13
 514.799804688 118.185546875 514.799804688 118.185546875 497.872070312 85.017578125 c 0,14,15
 479.899414062 49.8037109375 479.899414062 49.8037109375 445.854492188 32.083984375 c 0,16,17
 423.360351562 20.4970703125 423.360351562 20.4970703125 395.14453125 13.4306640625 c 128,-1,18
 366.9296875 6.3642578125 366.9296875 6.3642578125 335.073242188 3.7744140625 c 0,19,20
 274.158083957 -1.3414343318 274.158083957 -1.3414343318 139.886846327 -1.3414343318 c 0,21,22
 137.519279954 -1.3414343318 137.519279954 -1.3414343318 135.12890625 -1.33984375 c 0,23,24
 119.779106326 -1.32831554878 119.779106326 -1.32831554878 108.249920992 -1.32831554878 c 0,25,26
 98.2928972944 -1.32831554878 98.2928972944 -1.32831554878 91.185546875 -1.3369140625 c 0,27,28
 74.1142578125 -1.3369140625 74.1142578125 -1.3369140625 62.056640625 10.7177734375 c 0,29,30
 50.0009765625 22.384765625 50.0009765625 22.384765625 50 38.875 c 2,31,-1
 50 662.482421875 l 2,32,33
 50.0029296875 678.971679688 50.0029296875 678.971679688 62.05859375 690.637695312 c 128,-1,34
 74.1142578125 702.303710938 74.1142578125 702.303710938 91.27734375 702.303710938 c 0,35,36
 95.6088516281 702.20929713 95.6088516281 702.20929713 108.005643612 702.20929713 c 0,37,38
 117.663609386 702.20929713 117.663609386 702.20929713 132.216796875 702.266601562 c 0,0,1
269.325195312 617.931640625 m 0,39,40
 232.94140625 619.987304688 232.94140625 619.987304688 176.188476562 620.05078125 c 0,41,42
 145 620.05078125 145 620.05078125 132.303710938 620.036132812 c 1,43,-1
 132.303710938 58.14453125 l 1,44,45
 257.780273438 58.6123046875 257.780273438 58.6123046875 315.327148438 62.87109375 c 0,46,47
 373.74609375 67.1943359375 373.74609375 67.1943359375 405.0078125 82.494140625 c 0,48,49
 412.2109375 86.0185546875 412.2109375 86.0185546875 425.7265625 110.192382812 c 0,50,51
 439.053710938 136.336914062 439.053710938 136.336914062 447.017578125 170.251953125 c 0,52,53
 463.680903364 241.212213849 463.680903364 241.212213849 463.680903364 317.187025604 c 0,54,55
 463.680903364 425.57378112 463.680903364 425.57378112 455.43359375 478.659179688 c 0,56,57
 441.942382812 565.489257812 441.942382812 565.489257812 405.000976562 589.985351562 c 0,58,59
 365.758789062 612.481445312 365.758789062 612.481445312 269.325195312 617.931640625 c 0,39,40
EndSplineSet
Validated: 1
EndChar

StartChar: E
Encoding: 69 69 64
Width: 604
VWidth: 0
Flags: W
LayerCount: 2
Fore
SplineSet
319.608398438 698.116210938 m 0,0,1
 346.876953125 699.846679688 346.876953125 699.846679688 504.216796875 701.2421875 c 0,2,3
 520.357421875 701.2421875 520.357421875 701.2421875 532.375976562 689.223632812 c 128,-1,4
 544.39453125 677.205078125 544.39453125 677.205078125 544.39453125 660.21875 c 128,-1,5
 544.39453125 643.232421875 544.39453125 643.232421875 532.375976562 631.213867188 c 128,-1,6
 520.357421875 619.1953125 520.357421875 619.1953125 503.424804688 619.1953125 c 0,7,8
 350.4140625 617.915039062 350.4140625 617.915039062 325.891601562 616.44921875 c 0,9,10
 229.021484375 610.659179688 229.021484375 610.659179688 190.290039062 589.338867188 c 0,11,12
 160.674804688 571.669921875 160.674804688 571.669921875 152.227539062 562.374023438 c 0,13,14
 144.62890625 554.013671875 144.62890625 554.013671875 139.836914062 533.862304688 c 0,15,16
 133.810546875 508.51953125 133.810546875 508.51953125 132.584960938 431.427734375 c 1,17,-1
 468.840820312 431.431640625 l 2,18,19
 485.827148438 431.431640625 485.827148438 431.431640625 497.845703125 419.413085938 c 128,-1,20
 509.864257812 407.39453125 509.864257812 407.39453125 509.864257812 390.408203125 c 128,-1,21
 509.864257812 373.421875 509.864257812 373.421875 497.845703125 361.403320312 c 128,-1,22
 485.831054688 349.388671875 485.831054688 349.388671875 468.362304688 349.388671875 c 2,23,-1
 132.090820312 349.388671875 l 1,24,25
 132.049507833 330.398702583 132.049507833 330.398702583 132.049507833 324.370817061 c 0,26,27
 132.049507833 177.987472418 132.049507833 177.987472418 147.239257812 137.125976562 c 0,28,29
 151.920898438 124.534179688 151.920898438 124.534179688 159.51953125 118.264648438 c 0,30,31
 165.120117188 113.645507812 165.120117188 113.645507812 190.408203125 101.452148438 c 0,32,33
 223.53125 85.78125 223.53125 85.78125 284.758789062 81.9580078125 c 0,34,35
 348.254882812 77.9951171875 348.254882812 77.9951171875 503.00390625 77.8251953125 c 0,36,37
 520.359375 77.828125 520.359375 77.828125 532.37890625 66.203125 c 128,-1,38
 544.397460938 54.578125 544.397460938 54.578125 544.397460938 38.1484375 c 128,-1,39
 544.397460938 21.71875 544.397460938 21.71875 532.37890625 10.095703125 c 0,40,41
 520.360351562 -1.9228515625 520.360351562 -1.9228515625 503.358398438 -1.9228515625 c 0,42,43
 495.329237827 -1.91185955669 495.329237827 -1.91185955669 483.949560468 -1.91185955669 c 0,44,45
 473.08714117 -1.91185955669 473.08714117 -1.91185955669 459.171875 -1.921875 c 0,46,47
 456.78102692 -1.92347235399 456.78102692 -1.92347235399 454.413082625 -1.92347235399 c 0,48,49
 320.699802662 -1.92347235399 320.699802662 -1.92347235399 260.018554688 3.169921875 c 0,50,51
 196.28515625 8.3466796875 196.28515625 8.3466796875 149.701171875 31.357421875 c 0,52,53
 118.557617188 47.5654296875 118.557617188 47.5654296875 106.275390625 57.7041015625 c 0,54,55
 82.0869140625 77.673828125 82.0869140625 77.673828125 70.029296875 110.133789062 c 0,56,57
 50.00002422 164.058531224 50.00002422 164.058531224 50.00002422 324.902995682 c 2,58,-1
 50.0234375 364.240234375 l 2,59,60
 50.0263671875 387.69921875 50.0263671875 387.69921875 50.0517578125 397.466796875 c 128,-1,61
 50.076171875 407.240234375 50.076171875 407.240234375 50.1875 425.717773438 c 128,-1,62
 50.2998046875 444.303710938 50.2998046875 444.303710938 50.5556640625 452.95703125 c 128,-1,63
 50.806640625 461.499023438 50.806640625 461.499023438 51.244140625 475.575195312 c 0,64,65
 51.69140625 489.955078125 51.69140625 489.955078125 52.4140625 498.161132812 c 0,66,67
 53.11328125 506.103515625 53.11328125 506.103515625 54.099609375 516.430664062 c 0,68,69
 55.1201171875 527.125976562 55.1201171875 527.125976562 56.546875 535.405273438 c 128,-1,70
 57.95703125 543.5859375 57.95703125 543.5859375 59.771484375 551.423828125 c 0,71,72
 67.822265625 586.197265625 67.822265625 586.197265625 88.6806640625 610.931640625 c 0,73,74
 108.893554688 634.901367188 108.893554688 634.901367188 143.334960938 657.39453125 c 0,75,76
 199.400390625 690.734375 199.400390625 690.734375 319.608398438 698.116210938 c 0,0,1
EndSplineSet
Validated: 33
EndChar

StartChar: F
Encoding: 70 70 65
Width: 564
VWidth: 0
Flags: W
LayerCount: 2
Fore
SplineSet
229.270507812 696.706054688 m 0,0,1
 293.545898438 700.619140625 293.545898438 700.619140625 429.895507812 700.619140625 c 0,2,3
 432.10546875 700.619140625 432.10546875 700.619140625 434.333984375 700.618164062 c 0,4,5
 442.842773438 700.618164062 442.842773438 700.618164062 464.629882812 700.598632812 c 0,6,7
 485.31640625 700.580078125 485.31640625 700.580078125 502.9765625 700.580078125 c 0,8,9
 519.962890625 700.580078125 519.962890625 700.580078125 531.981445312 688.561523438 c 128,-1,10
 544 676.54296875 544 676.54296875 544 659.556640625 c 128,-1,11
 544 642.5703125 544 642.5703125 531.981445312 630.551757812 c 128,-1,12
 519.965820312 618.536132812 519.965820312 618.536132812 502.571289062 618.536132812 c 0,13,14
 201.34765625 618.536132812 201.34765625 618.536132812 155.399414062 601.454101562 c 0,15,16
 144.619140625 597.177734375 144.619140625 597.177734375 141.828125 594.173828125 c 128,-1,17
 139.053710938 591.185546875 139.053710938 591.185546875 136.377929688 581.997070312 c 0,18,19
 131.625976562 565.681640625 131.625976562 565.681640625 131.625976562 505.98046875 c 2,20,-1
 131.625976562 427.9375 l 1,21,-1
 403.454101562 427.9375 l 2,22,23
 422.576171875 427.94140625 422.576171875 427.94140625 434.724609375 416.4140625 c 128,-1,24
 446.743164062 404.887695312 446.743164062 404.887695312 446.743164062 388.596679688 c 128,-1,25
 446.743164062 372.306640625 446.743164062 372.306640625 434.724609375 360.780273438 c 128,-1,26
 422.577148438 349.25390625 422.577148438 349.25390625 403.903320312 349.25390625 c 2,27,-1
 131.625976562 349.256835938 l 1,28,-1
 131.62890625 38.9326171875 l 2,29,30
 131.62890625 30.953125 131.62890625 30.953125 128.537109375 23.7392578125 c 128,-1,31
 125.446289062 16.525390625 125.446289062 16.525390625 119.610351562 10.880859375 c 0,32,33
 107.591796875 -1.1376953125 107.591796875 -1.1376953125 90.60546875 -1.1376953125 c 128,-1,34
 73.619140625 -1.1376953125 73.619140625 -1.1376953125 61.6005859375 10.880859375 c 0,35,36
 49.5849609375 22.5068359375 49.5849609375 22.5068359375 49.5849609375 39.3359375 c 2,37,-1
 49.5849609375 507.512695312 l 2,38,39
 49.5849609375 578.615234375 49.5849609375 578.615234375 57.361328125 605.556640625 c 0,40,41
 72.029296875 656.376953125 72.029296875 656.376953125 124.049804688 677.189453125 c 0,42,43
 162.96875 692.76171875 162.96875 692.76171875 229.270507812 696.706054688 c 0,0,1
EndSplineSet
EndChar

StartChar: G
Encoding: 71 71 66
Width: 608
VWidth: 0
Flags: W
LayerCount: 2
Fore
SplineSet
291.919921875 696.749023438 m 0,0,1
 320.760718075 698.731035744 320.760718075 698.731035744 365.138105586 698.731035744 c 0,2,3
 367.246344588 698.731035744 367.246344588 698.731035744 369.389648438 698.7265625 c 0,4,5
 373.290039062 698.7265625 373.290039062 698.7265625 381.607421875 698.67578125 c 0,6,7
 386.033203125 698.649414062 386.033203125 698.649414062 427.536132812 698.252929688 c 0,8,9
 462.452599887 697.888191415 462.452599887 697.888191415 484.855289091 697.888191415 c 2,10,-1
 488.448668747 697.89062786 l 2,11,12
 505.879879953 697.89062786 505.879879953 697.89062786 517.87109375 685.899414062 c 128,-1,13
 529.8671875 673.903320312 529.8671875 673.903320312 529.8671875 656.94921875 c 128,-1,14
 529.8671875 639.995117188 529.8671875 639.995117188 517.87109375 628 c 128,-1,15
 505.875976562 616.002929688 505.875976562 616.002929688 488.935546875 616.002929688 c 0,16,17
 487.174887274 616.000758714 487.174887274 616.000758714 485.346409795 616.000758714 c 0,18,19
 459.209938328 616.000758714 459.209938328 616.000758714 419.216796875 616.444335938 c 0,20,21
 386.823049159 616.776515888 386.823049159 616.776515888 363.807184032 616.776515888 c 0,22,23
 354.209281774 616.776515888 354.209281774 616.776515888 346.2421875 616.71875 c 0,24,25
 319.473632812 616.528320312 319.473632812 616.528320312 298.684570312 615.127929688 c 0,26,27
 233.899414062 610.833984375 233.899414062 610.833984375 191.211914062 585.856445312 c 0,28,29
 153.859375 563.079101562 153.859375 563.079101562 140.169921875 479.194335938 c 0,30,31
 131.886653104 428.433684555 131.886653104 428.433684555 131.886653104 324.821837418 c 0,32,33
 131.886653104 251.110472876 131.886653104 251.110472876 148.056640625 184.709960938 c 0,34,35
 156.034179688 151.956054688 156.034179688 151.956054688 169.247070312 127.208984375 c 0,36,37
 182.602539062 104.296875 182.602539062 104.296875 191.158203125 100.234375 c 0,38,39
 223.353515625 84.9443359375 223.353515625 84.9443359375 280.241210938 81.208984375 c 0,40,41
 336.463867188 77.517578125 336.463867188 77.517578125 466.260742188 77.3486328125 c 1,42,-1
 466.2578125 269.193359375 l 2,43,44
 466.2578125 285.30859375 466.2578125 285.30859375 478.061523438 296.857421875 c 0,45,46
 490.112851581 308.649517345 490.112851581 308.649517345 506.681729707 308.651368507 c 0,47,48
 524.156395116 308.651368507 524.156395116 308.651368507 536.1484375 297.092773438 c 128,-1,49
 548.140625 285.53515625 548.140625 285.53515625 548.140625 268.791015625 c 2,50,-1
 548.142578125 38.365234375 l 2,51,52
 548.142578125 14.8251953125 548.142578125 14.8251953125 526.828125 3.7333984375 c 0,53,54
 517.415039062 -1.7841796875 517.415039062 -1.7841796875 505.99609375 -1.7841796875 c 0,55,56
 485.684570312 -1.7841796875 485.684570312 -1.7841796875 446.158203125 -1.9404296875 c 0,57,58
 413.514831242 -2.06204779865 413.514831242 -2.06204779865 395.946713206 -2.06204779865 c 0,59,60
 391.085095636 -2.06204779865 391.085095636 -2.06204779865 387.377929688 -2.052734375 c 0,61,62
 370.229492188 -2.0087890625 370.229492188 -2.0087890625 337.616210938 -1.515625 c 0,63,64
 304.614257812 -1.017578125 304.614257812 -1.017578125 289.577148438 0.244140625 c 0,65,66
 274.92578125 1.47265625 274.92578125 1.47265625 251.32421875 3.7578125 c 0,67,68
 226.764648438 6.13671875 226.764648438 6.13671875 211.83203125 9.9326171875 c 0,69,70
 197.522460938 13.4521484375 197.522460938 13.4521484375 180.787109375 18.6025390625 c 128,-1,71
 164.059570312 23.9296875 164.059570312 23.9296875 150.310546875 31.126953125 c 0,72,73
 116.215820312 48.9736328125 116.215820312 48.9736328125 97.8134765625 84.3046875 c 0,74,75
 80.421875 117.697265625 80.421875 117.697265625 68.3369140625 167.518554688 c 0,76,77
 49.9998549903 243.115803559 49.9998549903 243.115803559 49.9998549903 326.299972162 c 0,78,79
 49.9998549903 436.496209525 49.9998549903 436.496209525 59.279296875 493.58203125 c 0,80,81
 78.55078125 612.137695312 78.55078125 612.137695312 143.907226562 654.28515625 c 0,82,83
 203.649414062 690.877929688 203.649414062 690.877929688 291.919921875 696.749023438 c 0,0,1
EndSplineSet
Validated: 1
EndChar

StartChar: H
Encoding: 72 72 67
Width: 593
VWidth: 0
Flags: W
LayerCount: 2
Fore
SplineSet
61.8154296875 690.5703125 m 128,-1,1
 73.6298828125 702.188476562 73.6298828125 702.188476562 90.7021484375 702.453125 c 0,2,3
 108.015625 702.453125 108.015625 702.453125 120.034179688 690.434570312 c 128,-1,4
 132.052734375 678.416015625 132.052734375 678.416015625 132.052734375 661.439453125 c 2,5,-1
 132.259765625 420.020507812 l 1,6,-1
 451.129882812 419.8359375 l 1,7,-1
 451.455078125 661.015625 l 2,8,9
 451.451171875 678.166992188 451.451171875 678.166992188 463.296875 690.17578125 c 128,-1,10
 475.139648438 702.18359375 475.139648438 702.18359375 492.203125 702.418945312 c 0,11,12
 509.461914062 702.418945312 509.461914062 702.418945312 521.48046875 690.787109375 c 128,-1,13
 533.498046875 679.15625 533.498046875 679.15625 533.498046875 662.486328125 c 2,14,-1
 532.625976562 38.8173828125 l 2,15,16
 532.62890625 22.025390625 532.62890625 22.025390625 520.609375 10.392578125 c 0,17,18
 508.590820312 -1.6259765625 508.590820312 -1.6259765625 491.604492188 -1.6259765625 c 128,-1,19
 474.619140625 -1.6259765625 474.619140625 -1.6259765625 462.600585938 10.392578125 c 128,-1,20
 450.58203125 22.4111328125 450.58203125 22.4111328125 450.58203125 39.4130859375 c 2,21,-1
 451.018554688 360.803710938 l 1,22,-1
 132.322265625 360.987304688 l 1,23,-1
 132.599609375 39.6982421875 l 2,24,25
 132.60546875 22.279296875 132.60546875 22.279296875 120.584960938 10.2587890625 c 128,-1,26
 108.56640625 -1.759765625 108.56640625 -1.759765625 91.580078125 -1.759765625 c 128,-1,27
 74.5947265625 -1.759765625 74.5947265625 -1.759765625 62.576171875 10.2587890625 c 0,28,29
 50.5576171875 21.890625 50.5576171875 21.890625 50.5576171875 38.3212890625 c 2,30,-1
 50 662.529296875 l 2,31,0
 50 678.951171875 50 678.951171875 61.8154296875 690.5703125 c 128,-1,1
EndSplineSet
Validated: 33
EndChar

StartChar: I
Encoding: 73 73 68
Width: 192
VWidth: 0
Flags: W
LayerCount: 2
Fore
SplineSet
61.3505859375 690.787109375 m 128,-1,1
 73.14453125 702.384765625 73.14453125 702.384765625 90.1865234375 702.647460938 c 0,2,3
 107.458007812 702.647460938 107.458007812 702.647460938 119.453125 690.651367188 c 0,4,5
 131.44921875 679.047851562 131.44921875 679.047851562 131.44921875 662.658203125 c 2,6,-1
 132.00390625 38.8603515625 l 2,7,8
 132.00390625 22.2255859375 132.00390625 22.2255859375 120.009765625 10.6240234375 c 0,9,10
 108.014648438 -1.37109375 108.014648438 -1.37109375 91.060546875 -1.37109375 c 128,-1,11
 74.1064453125 -1.37109375 74.1064453125 -1.37109375 62.111328125 10.625 c 0,12,13
 50.1142578125 22.234375 50.1142578125 22.234375 50.1142578125 38.6337890625 c 2,14,-1
 49.5595703125 662.58984375 l 2,15,0
 49.5556640625 679.1875 49.5556640625 679.1875 61.3505859375 690.787109375 c 128,-1,1
EndSplineSet
Validated: 1
EndChar

StartChar: J
Encoding: 74 74 69
Width: 472
VWidth: 0
Flags: W
LayerCount: 2
Fore
SplineSet
342.584960938 690.4765625 m 128,-1,1
 354.4453125 702.088867188 354.4453125 702.088867188 371.525390625 702.3359375 c 0,2,3
 388.895507812 702.3359375 388.895507812 702.3359375 400.947265625 690.668945312 c 128,-1,4
 412.998046875 679.004882812 412.998046875 679.004882812 412.998046875 662.107421875 c 2,5,-1
 412.998046875 211.474609375 l 2,6,7
 412.998046875 148.40234375 412.998046875 148.40234375 399.109375 109.55859375 c 0,8,9
 382.291992188 62.5234375 382.291992188 62.5234375 342.04296875 36.8671875 c 0,10,11
 305.375976562 13.4970703125 305.375976562 13.4970703125 243.458007812 6.1484375 c 0,12,13
 180.77734375 -1.197265625 180.77734375 -1.197265625 91.1689453125 -1.197265625 c 0,14,15
 74.134765625 -1.197265625 74.134765625 -1.197265625 62.083984375 10.85546875 c 128,-1,16
 50.0302734375 22.9072265625 50.0302734375 22.9072265625 50.0302734375 39.94140625 c 128,-1,17
 50.0302734375 56.9755859375 50.0302734375 56.9755859375 62.0830078125 69.02734375 c 128,-1,18
 74.130859375 81.0771484375 74.130859375 81.0771484375 91.6162109375 81.0771484375 c 0,19,20
 249.995117188 81.0771484375 249.995117188 81.0771484375 296.795898438 105.685546875 c 0,21,22
 313.69140625 116.4140625 313.69140625 116.4140625 321.361328125 137.784179688 c 0,23,24
 330.7265625 163.876953125 330.7265625 163.876953125 330.7265625 213.360351562 c 2,25,-1
 330.723632812 662.666015625 l 2,26,0
 330.723632812 678.8671875 330.723632812 678.8671875 342.584960938 690.4765625 c 128,-1,1
EndSplineSet
Validated: 1
EndChar

StartChar: P
Encoding: 80 80 70
Width: 454
VWidth: 0
Flags: W
LayerCount: 2
Fore
SplineSet
130.693359375 703.092773438 m 0,0,1
 154.587890625 703.22265625 154.587890625 703.22265625 166.587890625 703.22265625 c 0,2,3
 235.133789062 703.185546875 235.133789062 703.185546875 275.390625 698.559570312 c 0,4,5
 312.990234375 693.897460938 312.990234375 693.897460938 340.997070312 678.6640625 c 0,6,7
 368.08203125 663.931640625 368.08203125 663.931640625 381.005859375 637.9921875 c 0,8,9
 392.9296875 614.0625 392.9296875 614.0625 401.61328125 576.901367188 c 0,10,11
 414 523.901367188 414 523.901367188 414 465.930664062 c 0,12,13
 414 388.826171875 414 388.826171875 407.733398438 348.764648438 c 0,14,15
 394.197265625 262.224609375 394.197265625 262.224609375 346.34765625 230.161132812 c 0,16,17
 305.65625 202.89453125 305.65625 202.89453125 238.25390625 198.559570312 c 0,18,19
 222.061523438 197.55859375 222.061523438 197.55859375 167.169921875 197.55859375 c 0,20,21
 151.3671875 197.55859375 151.3671875 197.55859375 132.358398438 197.641601562 c 1,22,-1
 132.358398438 38.7353515625 l 2,23,24
 132.362304688 27.5986328125 132.362304688 27.5986328125 126.858398438 18.4345703125 c 0,25,26
 124.161132812 13.9423828125 124.161132812 13.9423828125 120.380859375 10.2841796875 c 128,-1,27
 116.600585938 6.50390625 116.600585938 6.50390625 111.95703125 3.8056640625 c 0,28,29
 102.48828125 -1.6962890625 102.48828125 -1.6962890625 91.3876953125 -1.6962890625 c 0,30,31
 74.4228515625 -1.6962890625 74.4228515625 -1.6962890625 62.4189453125 10.3076171875 c 0,32,33
 50.4150390625 21.9189453125 50.4150390625 21.9189453125 50.4150390625 38.3291015625 c 2,34,-1
 50.41796875 655.283203125 l 2,35,36
 49.6484375 659.129882812 49.6484375 659.129882812 49.6484375 662.9296875 c 0,37,38
 49.6484375 679.341796875 49.6484375 679.341796875 61.6533203125 690.952148438 c 0,39,40
 73.658203125 702.958984375 73.658203125 702.958984375 91.0498046875 702.958007812 c 0,41,42
 105.958007812 702.958007812 105.958007812 702.958007812 130.693359375 703.092773438 c 0,0,1
244.520507812 629.563476562 m 0,43,44
 206.861328125 632.135742188 206.861328125 632.135742188 132.379882812 632.448242188 c 1,45,-1
 132.380859375 274.377929688 l 1,46,47
 152.048828125 274.305664062 152.048828125 274.305664062 167.90625 274.305664062 c 0,48,49
 218.790039062 274.305664062 218.790039062 274.305664062 230.418945312 275.048828125 c 0,50,51
 273.404296875 277.796875 273.404296875 277.796875 299.716796875 293.379882812 c 0,52,53
 318.48828125 306.379882812 318.48828125 306.379882812 326.733398438 360.841796875 c 0,54,55
 332.076171875 396.145507812 332.076171875 396.145507812 332.076171875 469.6484375 c 0,56,57
 332.076171875 520.399414062 332.076171875 520.399414062 321.706054688 566.26171875 c 0,58,59
 318.506835938 580.4140625 318.506835938 580.4140625 312.98046875 593.669921875 c 128,-1,60
 307.432617188 606.981445312 307.432617188 606.981445312 303.360351562 613.522460938 c 0,61,62
 301.397460938 616.674804688 301.397460938 616.674804688 299.899414062 618.594726562 c 0,63,64
 281.719726562 627.022460938 281.719726562 627.022460938 244.520507812 629.563476562 c 0,43,44
EndSplineSet
EndChar

StartChar: Q
Encoding: 81 81 71
Width: 630
VWidth: 0
Flags: W
LayerCount: 2
Fore
SplineSet
196.638671875 691.638671875 m 0,0,1
 240.778320312 705.337890625 240.778320312 705.337890625 310.110351562 705.337890625 c 128,-1,2
 379.484375 705.337890625 379.484375 705.337890625 423.583984375 691.650390625 c 0,3,4
 443.565429688 685.651367188 443.565429688 685.651367188 473.413085938 668.248046875 c 0,5,6
 509.947265625 646.547851562 509.947265625 646.547851562 528.479492188 606.034179688 c 0,7,8
 546.118164062 567.471679688 546.118164062 567.471679688 556.505859375 511.83203125 c 0,9,10
 570.2254052 438.340108495 570.2254052 438.340108495 570.2254052 338.023156265 c 0,11,12
 570.2254052 255.69664085 570.2254052 255.69664085 551.19921875 177.731445312 c 0,13,14
 539.08203125 128.072265625 539.08203125 128.072265625 522.545898438 94.91796875 c 0,15,16
 505.095703125 59.935546875 505.095703125 59.935546875 473.145507812 40.845703125 c 0,17,18
 472.145507812 40.2490234375 472.145507812 40.2490234375 465.838867188 36.4033203125 c 0,19,20
 459.291992188 32.4130859375 459.291992188 32.4130859375 456.65625 30.9462890625 c 128,-1,21
 454.211914062 29.5869140625 454.211914062 29.5869140625 447.2578125 25.8740234375 c 0,22,23
 439.2734375 21.818359375 439.2734375 21.818359375 433.752929688 19.78125 c 0,24,25
 429.052734375 18.046875 429.052734375 18.046875 421.0234375 14.9501953125 c 0,26,27
 412.067382812 11.49609375 412.067382812 11.49609375 403.813476562 9.51171875 c 0,28,29
 396.369140625 7.6611328125 396.369140625 7.6611328125 386.916015625 5.42578125 c 0,30,31
 376.8984375 3.0576171875 376.8984375 3.0576171875 365.854492188 1.5576171875 c 0,32,33
 360.998046875 0.8974609375 360.998046875 0.8974609375 354.934570312 0.240234375 c 1,34,-1
 355.0546875 -28.7646484375 l 2,35,36
 355.0546875 -45.22265625 355.0546875 -45.22265625 341.9765625 -57.2255859375 c 128,-1,37
 328.899414062 -69.2314453125 328.899414062 -69.2314453125 310.416015625 -69.2314453125 c 128,-1,38
 291.931640625 -69.2314453125 291.931640625 -69.2314453125 278.854492188 -57.2265625 c 128,-1,39
 265.776367188 -45.22265625 265.776367188 -45.22265625 265.776367188 -27.48046875 c 2,40,-1
 265.662109375 0.2548828125 l 1,41,42
 238.442382812 3.37109375 238.442382812 3.37109375 213.553710938 11.119140625 c 0,43,44
 183.606445312 20.134765625 183.606445312 20.134765625 175.104492188 24.5869140625 c 0,45,46
 167.805664062 28.5126953125 167.805664062 28.5126953125 147.072265625 40.8974609375 c 0,47,48
 115.123046875 59.9853515625 115.123046875 59.9853515625 97.6884765625 94.9609375 c 0,49,50
 81.16796875 128.10546875 81.16796875 128.10546875 69.0576171875 177.771484375 c 0,51,52
 49.9998967733 255.940899285 49.9998967733 255.940899285 49.9998967733 338.845402529 c 0,53,54
 49.9998967733 437.99925536 49.9998967733 437.99925536 63.7646484375 511.833007812 c 0,55,56
 74.1396484375 567.479492188 74.1396484375 567.479492188 91.759765625 606.033203125 c 0,57,58
 110.274414062 646.541015625 110.274414062 646.541015625 146.8125 668.23828125 c 0,59,60
 176.654296875 685.639648438 176.654296875 685.639648438 196.638671875 691.638671875 c 0,0,1
394.756835938 613.42578125 m 0,61,62
 364.642578125 622.772460938 364.642578125 622.772460938 310.0859375 622.772460938 c 128,-1,63
 255.522460938 622.772460938 255.522460938 622.772460938 225.424804688 613.430664062 c 0,64,65
 215.057617188 610.211914062 215.057617188 610.211914062 191.775390625 597.09375 c 0,66,67
 179.258789062 590.037109375 179.258789062 590.037109375 165.826171875 561.733398438 c 0,68,69
 152.274414062 531.466796875 152.274414062 531.466796875 144.995117188 491.096679688 c 0,70,71
 132.540059073 422.028266113 132.540059073 422.028266113 132.540059073 326.828189295 c 0,72,73
 132.540059073 250.82192238 132.540059073 250.82192238 149.39453125 179.350585938 c 0,74,75
 157.447265625 145.209960938 157.447265625 145.209960938 170.7109375 118.59765625 c 0,76,77
 184.14453125 93.7451171875 184.14453125 93.7451171875 192.262695312 89.1416015625 c 0,78,79
 196.70703125 86.623046875 196.70703125 86.623046875 207.45703125 80.07421875 c 0,80,81
 217.4921875 73.9599609375 217.4921875 73.9599609375 221.673828125 71.953125 c 128,-1,82
 226.016601562 69.8701171875 226.016601562 69.8701171875 235.403320312 66.1650390625 c 0,83,84
 243.907226562 62.8076171875 243.907226562 62.8076171875 253.763671875 61.177734375 c 0,85,86
 259.030273438 60.3076171875 259.030273438 60.3076171875 265.302734375 59.6201171875 c 1,87,-1
 265.151367188 96.4267578125 l 2,88,89
 265.145507812 113.65234375 265.145507812 113.65234375 277.963867188 125.643554688 c 128,-1,90
 290.78125 137.6328125 290.78125 137.6328125 309.342773438 137.955078125 c 0,91,92
 328.26953125 137.955078125 328.26953125 137.955078125 341.345703125 125.950195312 c 128,-1,93
 354.424804688 113.946289062 354.424804688 113.946289062 354.424804688 97.0009765625 c 2,94,-1
 354.576171875 59.5859375 l 1,95,96
 361.0234375 60.287109375 361.0234375 60.287109375 366.306640625 61.15625 c 0,97,98
 376.189453125 62.7822265625 376.189453125 62.7822265625 384.716796875 66.1455078125 c 0,99,100
 394.133789062 69.857421875 394.133789062 69.857421875 398.471679688 71.935546875 c 128,-1,101
 402.647460938 73.935546875 402.647460938 73.935546875 412.708007812 80.0634765625 c 0,102,103
 423.48828125 86.6298828125 423.48828125 86.6298828125 427.9140625 89.1396484375 c 0,104,105
 436.043945312 93.7490234375 436.043945312 93.7490234375 449.491210938 118.60546875 c 0,106,107
 462.766601562 145.220703125 462.766601562 145.220703125 470.826171875 179.359375 c 0,108,109
 487.646088693 250.610800091 487.646088693 250.610800091 487.646088693 326.042187513 c 0,110,111
 487.646088693 422.405734377 487.646088693 422.405734377 475.241210938 491.08984375 c 0,112,113
 467.952148438 531.44921875 467.952148438 531.44921875 454.384765625 561.719726562 c 0,114,115
 440.93359375 590.030273438 440.93359375 590.030273438 428.407226562 597.08984375 c 0,116,117
 405.13671875 610.205078125 405.13671875 610.205078125 394.756835938 613.42578125 c 0,61,62
EndSplineSet
Validated: 33
EndChar

StartChar: R
Encoding: 82 82 72
Width: 594
VWidth: 0
Flags: W
LayerCount: 2
Fore
SplineSet
90.6826171875 701.225585938 m 2,0,-1
 197.3125 702.081054688 l 2,1,2
 281.3359375 702.081054688 281.3359375 702.081054688 330.697265625 678.794921875 c 0,3,4
 382.385742188 654.412109375 382.385742188 654.412109375 402.955078125 603.348632812 c 0,5,6
 416.793945312 568.35546875 416.793945312 568.35546875 418.836914062 515.513671875 c 0,7,8
 419.702226816 493.124699928 419.702226816 493.124699928 419.702226816 470.947223904 c 0,9,10
 419.702226816 446.896609679 419.702226816 446.896609679 418.684570312 423.094726562 c 1,11,12
 457.874023438 414.678710938 457.874023438 414.678710938 483.225585938 391.180664062 c 0,13,14
 534.291015625 343.846679688 534.291015625 343.846679688 534.291015625 224.030273438 c 2,15,-1
 534.291015625 38.5859375 l 2,16,17
 534.294921875 21.7529296875 534.294921875 21.7529296875 522.275390625 10.1201171875 c 0,18,19
 510.256835938 -1.8984375 510.256835938 -1.8984375 493.270507812 -1.8984375 c 128,-1,20
 476.284179688 -1.8984375 476.284179688 -1.8984375 464.265625 10.1201171875 c 128,-1,21
 452.247070312 22.138671875 452.247070312 22.138671875 452.247070312 39.125 c 2,22,-1
 452.25 231.140625 l 2,23,24
 452.25 319.911132812 452.25 319.911132812 426.479492188 344.590820312 c 0,25,26
 411.264648438 358.889648438 411.264648438 358.889648438 354.3359375 360.479492188 c 2,27,-1
 132.477539062 361.236328125 l 1,28,-1
 132.911132812 40.9169921875 l 2,29,30
 132.9140625 32.4892578125 132.9140625 32.4892578125 129.83984375 24.912109375 c 128,-1,31
 126.766601562 17.3349609375 126.766601562 17.3349609375 120.896484375 11.46484375 c 0,32,33
 108.877929688 -0.5537109375 108.877929688 -0.5537109375 91.8916015625 -0.5537109375 c 128,-1,34
 74.9052734375 -0.5537109375 74.9052734375 -0.5537109375 62.88671875 11.46484375 c 0,35,36
 50.8681640625 23.095703125 50.8681640625 23.095703125 50.8681640625 39.5185546875 c 2,37,-1
 50 661.491210938 l 2,38,39
 50 677.840820312 50 677.840820312 61.912109375 689.463867188 c 128,-1,40
 73.8251953125 701.08984375 73.8251953125 701.08984375 90.6826171875 701.225585938 c 2,0,-1
287.735351562 605.7734375 m 0,41,42
 258.467773438 620.038085938 258.467773438 620.038085938 197.245117188 620.038085938 c 2,43,-1
 132.057617188 619.514648438 l 1,44,-1
 132.328125 420.275390625 l 1,45,-1
 327.9140625 419.604492188 l 2,46,47
 327.932617188 421.916992188 327.932617188 421.916992188 327.950195312 424.017578125 c 0,48,49
 328.028710614 433.513969004 328.028710614 433.513969004 328.028710614 442.440526414 c 0,50,51
 328.028710614 545.762558811 328.028710614 545.762558811 317.509765625 572.7421875 c 0,52,53
 308.595703125 595.60546875 308.595703125 595.60546875 287.735351562 605.7734375 c 0,41,42
EndSplineSet
Validated: 1
EndChar

StartChar: S
Encoding: 83 83 73
Width: 552
VWidth: 0
Flags: W
LayerCount: 2
Fore
SplineSet
120.16796875 656.494140625 m 0,0,1
 184.323242188 702.57421875 184.323242188 702.57421875 319.262695312 702.786132812 c 2,2,-1
 450.83984375 702.715820312 l 2,3,4
 468.278320312 702.719726562 468.278320312 702.719726562 480.313476562 690.684570312 c 128,-1,5
 492.34765625 678.650390625 492.34765625 678.650390625 492.34765625 661.642578125 c 128,-1,6
 492.34765625 644.633789062 492.34765625 644.633789062 480.313476562 632.599609375 c 128,-1,7
 468.279296875 620.565429688 468.279296875 620.565429688 451.265625 620.565429688 c 2,8,-1
 321.000976562 620.634765625 l 2,9,10
 217.317382812 620.474609375 217.317382812 620.474609375 170.12109375 591.372070312 c 0,11,12
 132.146484375 563.708984375 132.146484375 563.708984375 132.146484375 499.892578125 c 0,13,14
 132.146484375 434.224609375 132.146484375 434.224609375 157.595703125 413.181640625 c 0,15,16
 185.729492188 391.922851562 185.729492188 391.922851562 276.127929688 391.922851562 c 0,17,18
 387.020507812 391.922851562 387.020507812 391.922851562 442.809570312 329.922851562 c 0,19,20
 492.551757812 274.650390625 492.551757812 274.650390625 492.553710938 181.9921875 c 0,21,22
 492.553710938 85.91015625 492.553710938 85.91015625 434.703125 42.2451171875 c 0,23,24
 377.310546875 -1.0732421875 377.310546875 -1.0732421875 228.233398438 -1.0732421875 c 2,25,-1
 91.4873046875 -1.0078125 l 2,26,27
 74.265625 -1.0078125 74.265625 -1.0078125 62.2333984375 11.0244140625 c 128,-1,28
 50.19921875 23.05859375 50.19921875 23.05859375 50.19921875 40.0673828125 c 128,-1,29
 50.19921875 57.076171875 50.19921875 57.076171875 62.2333984375 69.1103515625 c 128,-1,30
 74.265625 81.142578125 74.265625 81.142578125 91.5087890625 81.142578125 c 2,31,-1
 228.249023438 81.0732421875 l 2,32,33
 346.157226562 81.076171875 346.157226562 81.076171875 384.301757812 107.078125 c 0,34,35
 410.401367188 126.38671875 410.401367188 126.38671875 410.401367188 182.267578125 c 0,36,37
 410.401367188 243.700195312 410.401367188 243.700195312 380.959960938 275.76171875 c 0,38,39
 346.794921875 309.784179688 346.794921875 309.784179688 271.270507812 309.784179688 c 0,40,41
 152.61328125 309.784179688 152.61328125 309.784179688 103.731445312 351.029296875 c 0,42,43
 50 396.360351562 50 396.360351562 50 499.771484375 c 0,44,45
 50 604.305664062 50 604.305664062 120.16796875 656.494140625 c 0,0,1
EndSplineSet
Validated: 33
EndChar

StartChar: T
Encoding: 84 84 74
Width: 643
VWidth: 0
Flags: W
LayerCount: 2
Fore
SplineSet
90.6328125 702.693359375 m 2,0,-1
 584.057617188 703.25 l 2,1,2
 598.994140625 703.25 598.994140625 703.25 610.994140625 691.248046875 c 128,-1,3
 623 679.244140625 623 679.244140625 623 662.27734375 c 128,-1,4
 623 645.310546875 623 645.310546875 610.995117188 633.307617188 c 128,-1,5
 598.991210938 621.301757812 598.991210938 621.301757812 582.038085938 621.301757812 c 2,6,-1
 380.083984375 621.08203125 l 1,7,-1
 380.649414062 38.3974609375 l 2,8,9
 380.651367188 30.2919921875 380.651367188 30.2919921875 377.352539062 23.0009765625 c 128,-1,10
 374.053710938 15.7099609375 374.053710938 15.7099609375 367.7578125 10.0625 c 0,11,12
 354.864257812 -1.943359375 354.864257812 -1.943359375 336.640625 -1.943359375 c 128,-1,13
 318.416015625 -1.943359375 318.416015625 -1.943359375 305.5234375 10.0615234375 c 0,14,15
 292.627929688 21.6728515625 292.627929688 21.6728515625 292.627929688 38.0751953125 c 2,16,-1
 292.0625 623.252929688 l 1,17,-1
 91.0888671875 623.03125 l 2,18,19
 73.6806640625 623.02734375 73.6806640625 623.02734375 61.6767578125 634.640625 c 128,-1,20
 49.6708984375 646.251953125 49.6708984375 646.251953125 49.6708984375 662.665039062 c 128,-1,21
 49.6708984375 679.077148438 49.6708984375 679.077148438 61.67578125 690.6875 c 0,22,23
 73.6796875 702.693359375 73.6796875 702.693359375 90.6328125 702.693359375 c 2,0,-1
EndSplineSet
EndChar

StartChar: U
Encoding: 85 85 75
Width: 601
VWidth: 0
Flags: W
LayerCount: 2
Fore
SplineSet
61.8251953125 689.228515625 m 128,-1,1
 73.650390625 700.854492188 73.650390625 700.854492188 91.3134765625 701.1171875 c 0,2,3
 108.01171875 701.1171875 108.01171875 701.1171875 120.03125 689.52734375 c 128,-1,4
 132.047851562 677.94140625 132.047851562 677.94140625 132.047851562 661.154296875 c 2,5,-1
 132.047851562 215.41015625 l 2,6,7
 132.427734375 150.79296875 132.427734375 150.79296875 163.796875 118.689453125 c 0,8,9
 203.189453125 81.4794921875 203.189453125 81.4794921875 295.958007812 81.4794921875 c 0,10,11
 389.01171875 81.4794921875 389.01171875 81.4794921875 428.975585938 119.12109375 c 0,12,13
 460.857421875 151.59375 460.857421875 151.59375 459.872070312 214.704101562 c 2,14,-1
 459.870117188 661.501953125 l 2,15,16
 459.870117188 677.881835938 459.870117188 677.881835938 471.889648438 689.471679688 c 128,-1,17
 483.909179688 701.061523438 483.909179688 701.061523438 500.897460938 701.061523438 c 128,-1,18
 517.884765625 701.061523438 517.884765625 701.061523438 529.90625 689.422851562 c 128,-1,19
 541.923828125 677.786132812 541.923828125 677.786132812 541.923828125 660.984375 c 2,20,-1
 541.923828125 213.689453125 l 2,21,22
 541.96289877 211.172933214 541.96289877 211.172933214 541.96289877 208.683785518 c 0,23,24
 541.96289877 116.667254481 541.96289877 116.667254481 488.5703125 62.056640625 c 0,25,26
 427.337890625 -0.572265625 427.337890625 -0.572265625 295.961914062 -0.572265625 c 128,-1,27
 164.737304688 -0.572265625 164.737304688 -0.572265625 104.08203125 61.7578125 c 0,28,29
 50.5634765625 116.754882812 50.5634765625 116.754882812 50.00390625 212.977539062 c 2,30,-1
 50 661.3828125 l 2,31,0
 50 677.600585938 50 677.600585938 61.8251953125 689.228515625 c 128,-1,1
EndSplineSet
Validated: 33
EndChar

StartChar: V
Encoding: 86 86 76
Width: 554
VWidth: 0
Flags: W
LayerCount: 2
Fore
SplineSet
61.8544921875 690.107421875 m 128,-1,1
 73.8564453125 701.725585938 73.8564453125 701.725585938 91.2265625 701.725585938 c 0,2,3
 104.438476562 701.577148438 104.438476562 701.577148438 115.74609375 692.775390625 c 128,-1,4
 127.051757812 683.974609375 127.051757812 683.974609375 130.40234375 671.341796875 c 2,5,-1
 284.432617188 160.64453125 l 1,6,-1
 453.724609375 672.305664062 l 2,7,8
 457.34765625 684.682617188 457.34765625 684.682617188 468.701171875 693.190429688 c 128,-1,9
 480.055664062 701.696289062 480.055664062 701.696289062 493.02734375 701.696289062 c 0,10,11
 509.9921875 701.696289062 509.9921875 701.696289062 521.99609375 690.076171875 c 128,-1,12
 534 678.456054688 534 678.456054688 534 662.033203125 c 0,13,14
 534 655.810546875 534 655.810546875 532.056640625 649.963867188 c 2,15,-1
 325.705078125 25.56640625 l 2,16,17
 321.552734375 13.720703125 321.552734375 13.720703125 309.077148438 5.638671875 c 0,18,19
 296.600585938 -2.708984375 296.600585938 -2.708984375 282.467773438 -2.708984375 c 0,20,21
 267.991210938 -2.708984375 267.991210938 -2.708984375 255.411132812 5.9267578125 c 0,22,23
 242.83203125 14.2861328125 242.83203125 14.2861328125 238.916015625 26.5087890625 c 2,24,-1
 51.509765625 650.892578125 l 2,25,26
 49.8505859375 656.323242188 49.8505859375 656.323242188 49.8505859375 662.064453125 c 0,27,0
 49.8505859375 678.487304688 49.8505859375 678.487304688 61.8544921875 690.107421875 c 128,-1,1
EndSplineSet
EndChar

StartChar: W
Encoding: 87 87 77
Width: 965
VWidth: 0
Flags: W
LayerCount: 2
Fore
SplineSet
61.8095703125 690.181640625 m 128,-1,1
 73.619140625 701.795898438 73.619140625 701.795898438 91.1376953125 702.0546875 c 0,2,3
 107.940429688 702.0546875 107.940429688 702.0546875 119.944335938 690.478515625 c 128,-1,4
 131.944335938 678.905273438 131.944335938 678.905273438 131.944335938 662.139648438 c 2,5,-1
 131.944335938 213.551757812 l 2,6,7
 132.315429688 148.478515625 132.315429688 148.478515625 162.838867188 116.209960938 c 0,8,9
 198.733398438 79.3974609375 198.733398438 79.3974609375 282.672851562 79.3974609375 c 0,10,11
 366.875976562 79.3974609375 366.875976562 79.3974609375 403.658203125 118.020507812 c 0,12,13
 435.890625 151.865234375 435.890625 151.865234375 434.883789062 217.796875 c 2,14,-1
 434.883789062 479.374023438 l 2,15,16
 434.880859375 496.745117188 434.880859375 496.745117188 447.3515625 508.75 c 128,-1,17
 459.821289062 520.75390625 459.821289062 520.75390625 477.444335938 520.75390625 c 128,-1,18
 495.068359375 520.75390625 495.068359375 520.75390625 507.538085938 508.75 c 128,-1,19
 520.0078125 496.74609375 520.0078125 496.74609375 520.0078125 479.78125 c 2,20,-1
 520.004882812 227.431640625 l 2,21,22
 520.97265625 222.32421875 520.97265625 222.32421875 520.97265625 218.645507812 c 0,23,24
 521.354492188 151.033203125 521.354492188 151.033203125 553.0625 117.57421875 c 0,25,26
 589.235351562 79.4013671875 589.235351562 79.4013671875 673.173828125 79.4013671875 c 0,27,28
 757.374023438 79.4013671875 757.374023438 79.4013671875 793.850585938 116.649414062 c 0,29,30
 824.876953125 149.28515625 824.876953125 149.28515625 823.908203125 212.87109375 c 2,31,-1
 823.905273438 662.546875 l 2,32,33
 823.905273438 678.677734375 823.905273438 678.677734375 835.71484375 690.243164062 c 128,-1,34
 847.524414062 701.807617188 847.524414062 701.807617188 864.529296875 702.059570312 c 0,35,36
 881.837890625 702.059570312 881.837890625 702.059570312 893.840820312 690.434570312 c 128,-1,37
 905.841796875 678.813476562 905.841796875 678.813476562 905.841796875 661.978515625 c 2,38,-1
 905.841796875 211.833984375 l 2,39,40
 905.880186589 209.306354788 905.880186589 209.306354788 905.880186589 206.806343502 c 0,41,42
 905.880186589 115.12125712 905.880186589 115.12125712 854.247070312 60.58203125 c 0,43,44
 824.219726562 28.8671875 824.219726562 28.8671875 779.543945312 13.1611328125 c 0,45,46
 733.379882812 -2.5458984375 733.379882812 -2.5458984375 673.171875 -2.5458984375 c 0,47,48
 551.67578125 -2.5458984375 551.67578125 -2.5458984375 490.17578125 62.337890625 c 0,49,50
 484.108398438 68.7412109375 484.108398438 68.7412109375 478.198242188 76.3798828125 c 1,51,52
 472.423828125 68.966796875 472.423828125 68.966796875 466.401367188 62.642578125 c 0,53,54
 404.313476562 -2.5458984375 404.313476562 -2.5458984375 282.674804688 -2.5458984375 c 0,55,56
 161.510742188 -2.5458984375 161.510742188 -2.5458984375 102.3046875 60.2861328125 c 0,57,58
 50.5458984375 115.213867188 50.5458984375 115.213867188 50.0029296875 211.137695312 c 2,59,-1
 50 662.370117188 l 2,60,0
 50 678.569335938 50 678.569335938 61.8095703125 690.181640625 c 128,-1,1
EndSplineSet
Validated: 33
EndChar

StartChar: X
Encoding: 88 88 78
Width: 575
VWidth: 0
Flags: W
LayerCount: 2
Fore
SplineSet
458.458984375 682.001953125 m 2,0,1
 470.19921875 702.6328125 470.19921875 702.6328125 494.612304688 702.6328125 c 0,2,3
 511.413085938 702.361328125 511.413085938 702.361328125 523.206054688 690.756835938 c 128,-1,4
 535 679.151367188 535 679.151367188 535 662.979492188 c 0,5,6
 535 651.885742188 535 651.885742188 529.08984375 642.462890625 c 2,7,-1
 346.83984375 350.502929688 l 1,8,-1
 529.090820312 58.5390625 l 2,9,10
 534.989257812 49.126953125 534.989257812 49.126953125 534.989257812 38.0419921875 c 0,11,12
 534.989257812 21.62109375 534.989257812 21.62109375 522.985351562 10.0029296875 c 0,13,14
 510.981445312 -2.0009765625 510.981445312 -2.0009765625 494.015625 -2.0009765625 c 0,15,16
 470.213867188 -2.0009765625 470.213867188 -2.0009765625 458.4609375 18.6083984375 c 2,17,-1
 295.666992188 280.98828125 l 1,18,-1
 129.55078125 18.6083984375 l 2,19,20
 116.899414062 -2.0009765625 116.899414062 -2.0009765625 91.27734375 -2.0009765625 c 0,21,22
 74.310546875 -2.0009765625 74.310546875 -2.0009765625 62.306640625 10.0029296875 c 0,23,24
 50.302734375 21.62109375 50.302734375 21.62109375 50.302734375 38.0419921875 c 0,25,26
 50.302734375 49.126953125 50.302734375 49.126953125 56.201171875 58.5390625 c 2,27,-1
 244.49609375 350.501953125 l 1,28,-1
 56.203125 642.4609375 l 2,29,30
 50.2919921875 651.880859375 50.2919921875 651.880859375 50.2919921875 662.978515625 c 0,31,32
 50.2919921875 678.708984375 50.2919921875 678.708984375 61.705078125 690.283203125 c 128,-1,33
 73.1181640625 701.857421875 73.1181640625 701.857421875 89.3564453125 702.591796875 c 0,34,35
 90.3115234375 702.63671875 90.3115234375 702.63671875 91.2646484375 702.63671875 c 0,36,37
 116.913085938 702.63671875 116.913085938 702.63671875 129.553710938 682.001953125 c 2,38,-1
 295.666992188 419.627929688 l 1,39,-1
 458.458984375 682.001953125 l 2,0,1
EndSplineSet
EndChar

StartChar: Y
Encoding: 89 89 79
Width: 569
VWidth: 0
Flags: W
LayerCount: 2
Fore
SplineSet
62.421875 690.571289062 m 0,0,1
 74.42578125 702.575195312 74.42578125 702.575195312 92.080078125 702.575195312 c 0,2,3
 115.130859375 701.80078125 115.130859375 701.80078125 126.54296875 682.63671875 c 2,4,-1
 296.815429688 419.716796875 l 1,5,-1
 470.293945312 682.635742188 l 2,6,7
 483.032226562 702.578125 483.032226562 702.578125 508.028320312 702.578125 c 0,8,9
 508.770507812 702.578125 508.770507812 702.578125 509.51171875 702.55078125 c 0,10,11
 525.91015625 701.974609375 525.91015625 701.974609375 537.456054688 690.384765625 c 128,-1,12
 549 678.794921875 549 678.794921875 549 662.907226562 c 0,13,14
 549 651.381835938 549 651.381835938 542.666992188 641.719726562 c 2,15,-1
 340.8203125 341.822265625 l 1,16,-1
 341.922851562 37.5791015625 l 2,17,18
 341.928710938 26.3388671875 341.928710938 26.3388671875 336.022460938 17.1689453125 c 128,-1,19
 330.145507812 8.044921875 330.145507812 8.044921875 320.03125 2.7421875 c 128,-1,20
 309.870117188 -2.759765625 309.870117188 -2.759765625 297.958007812 -2.759765625 c 0,21,22
 279.751953125 -2.759765625 279.751953125 -2.759765625 266.87109375 9.244140625 c 0,23,24
 253.989257812 20.8564453125 253.989257812 20.8564453125 253.989257812 37.2490234375 c 2,25,-1
 252.889648438 341.631835938 l 1,26,-1
 56.7509765625 641.37890625 l 2,27,28
 50.41796875 651.034179688 50.41796875 651.034179688 50.41796875 662.547851562 c 0,29,30
 50.41796875 678.958984375 50.41796875 678.958984375 62.421875 690.571289062 c 0,0,1
EndSplineSet
EndChar

StartChar: Z
Encoding: 90 90 80
Width: 574
VWidth: 0
Flags: W
LayerCount: 2
Fore
SplineSet
91.873046875 701.755859375 m 2,0,-1
 493.029296875 701.818359375 l 2,1,2
 509.990234375 701.818359375 509.990234375 701.818359375 521.99609375 690.198242188 c 128,-1,3
 534 678.581054688 534 678.581054688 534 662.161132812 c 0,4,5
 534 651.368164062 534 651.368164062 528.34765625 642.0625 c 2,6,-1
 162.331054688 77.5947265625 l 1,7,-1
 491.442382812 77.646484375 l 2,8,9
 508.893554688 77.6513671875 508.893554688 77.6513671875 520.899414062 66.0322265625 c 128,-1,10
 532.903320312 54.4140625 532.903320312 54.4140625 532.903320312 37.9951171875 c 128,-1,11
 532.903320312 21.5751953125 532.903320312 21.5751953125 520.899414062 9.95703125 c 0,12,13
 508.895507812 -2.046875 508.895507812 -2.046875 491.931640625 -2.046875 c 2,14,-1
 90.7001953125 -2.1103515625 l 2,15,16
 73.736328125 -2.109375 73.736328125 -2.109375 61.732421875 9.8955078125 c 0,17,18
 49.7294921875 21.5126953125 49.7294921875 21.5126953125 49.7294921875 37.931640625 c 0,19,20
 49.7294921875 48.7265625 49.7294921875 48.7265625 55.3828125 58.0322265625 c 2,21,-1
 421.399414062 622.5 l 1,22,-1
 92.287109375 622.44921875 l 2,23,24
 74.91015625 622.4453125 74.91015625 622.4453125 62.9052734375 634.063476562 c 128,-1,25
 50.9013671875 645.681640625 50.9013671875 645.681640625 50.9013671875 662.1015625 c 128,-1,26
 50.9013671875 678.521484375 50.9013671875 678.521484375 62.9052734375 690.137695312 c 128,-1,27
 74.9091796875 701.755859375 74.9091796875 701.755859375 91.873046875 701.755859375 c 2,0,-1
EndSplineSet
EndChar

StartChar: exclam
Encoding: 33 33 96
Width: 189
VWidth: 0
Flags: W
LayerCount: 2
Fore
SplineSet
89.392578125 0.0625 m 128,-1,1
 73.009765625 0.0625 73.009765625 0.0625 61.419921875 11.65234375 c 0,2,3
 55.77734375 17.294921875 55.77734375 17.294921875 52.8037109375 24.4716796875 c 128,-1,4
 49.830078125 31.6484375 49.830078125 31.6484375 49.830078125 39.6240234375 c 0,5,6
 49.830078125 56.0048828125 49.830078125 56.0048828125 61.419921875 67.5947265625 c 128,-1,7
 73.009765625 79.1845703125 73.009765625 79.1845703125 89.392578125 79.1845703125 c 128,-1,8
 105.772460938 79.1845703125 105.772460938 79.1845703125 117.36328125 67.5947265625 c 128,-1,9
 128.954101562 56.0048828125 128.954101562 56.0048828125 128.954101562 39.6240234375 c 128,-1,10
 128.954101562 23.2431640625 128.954101562 23.2431640625 117.364257812 11.6533203125 c 128,-1,0
 105.772460938 0.0625 105.772460938 0.0625 89.392578125 0.0625 c 128,-1,1
88.92578125 202.796875 m 4,11,12
 73.10546875 203 73.10546875 203 61.2939453125 214.62109375 c 4,13,14
 49.890625 227.237304688 49.890625 227.237304688 49.890625 242.768554688 c 6,15,-1
 49.890625 659.85546875 l 6,16,17
 50.10546875 676 50.10546875 676 61.4765625 688.258789062 c 4,18,19
 73.10546875 700 73.10546875 700 89.4443359375 699.84765625 c 4,20,21
 105.10546875 700 105.10546875 700 117.411132812 688.258789062 c 4,22,23
 128.999023438 676.111328125 128.999023438 676.111328125 128.999023438 660.07421875 c 6,24,-1
 129 242.350585938 l 6,25,26
 129.10546875 226 129.10546875 226 117.411132812 214.3828125 c 4,27,28
 105.10546875 203 105.10546875 203 88.92578125 202.796875 c 4,11,12
EndSplineSet
Validated: 1
EndChar

StartChar: quotedbl
Encoding: 34 34 97
Width: 280
Flags: W
LayerCount: 2
Fore
SplineSet
190.692382812 707.340820312 m 0,0,1
 206.770507812 707.13671875 206.770507812 707.13671875 218.461914062 696.051757812 c 128,-1,2
 230.350585938 684.869140625 230.350585938 684.869140625 230.159179688 668.064453125 c 2,3,-1
 230.15625 532.6015625 l 2,4,5
 230.349609375 516.375 230.349609375 516.375 218.671875 504.380859375 c 0,6,7
 206.766601562 492.791992188 206.766601562 492.791992188 190.9453125 492.893554688 c 0,8,9
 175.310546875 492.791992188 175.310546875 492.791992188 163.216796875 504.380859375 c 0,10,11
 151.73046875 516.373046875 151.73046875 516.373046875 151.73046875 532.108398438 c 2,12,-1
 151.733398438 667.713867188 l 2,13,14
 151.729492188 683.573242188 151.729492188 683.573242188 162.888671875 695.463867188 c 0,15,16
 173.983398438 707.134765625 173.983398438 707.134765625 190.692382812 707.340820312 c 0,0,1
63.962890625 707.340820312 m 0,17,18
 80.0400390625 707.13671875 80.0400390625 707.13671875 91.7314453125 696.051757812 c 128,-1,19
 103.620117188 684.869140625 103.620117188 684.869140625 103.428710938 668.064453125 c 2,20,-1
 103.42578125 532.6015625 l 2,21,22
 103.620117188 516.375 103.620117188 516.375 91.94140625 504.380859375 c 0,23,24
 80.037109375 492.791992188 80.037109375 492.791992188 64.2158203125 492.893554688 c 0,25,26
 48.5810546875 492.791992188 48.5810546875 492.791992188 36.486328125 504.380859375 c 0,27,28
 25 516.373046875 25 516.373046875 25 532.108398438 c 2,29,-1
 25.0029296875 667.713867188 l 2,30,31
 24.9990234375 683.573242188 24.9990234375 683.573242188 36.158203125 695.463867188 c 0,32,33
 47.25390625 707.134765625 47.25390625 707.134765625 63.962890625 707.340820312 c 0,17,18
EndSplineSet
Validated: 1
EndChar

StartChar: quotesingle
Encoding: 39 39 98
Width: 153
Flags: W
LayerCount: 2
Fore
SplineSet
63.9619140625 707.340820312 m 0,0,1
 80.0400390625 707.13671875 80.0400390625 707.13671875 91.7314453125 696.051757812 c 128,-1,2
 103.620117188 684.869140625 103.620117188 684.869140625 103.428710938 668.064453125 c 2,3,-1
 103.42578125 532.6015625 l 2,4,5
 103.619140625 516.375 103.619140625 516.375 91.94140625 504.380859375 c 0,6,7
 80.0361328125 492.791992188 80.0361328125 492.791992188 64.21484375 492.893554688 c 0,8,9
 48.5810546875 492.791992188 48.5810546875 492.791992188 36.486328125 504.380859375 c 0,10,11
 25 516.373046875 25 516.373046875 25 532.108398438 c 2,12,-1
 25.0029296875 667.713867188 l 2,13,14
 24.9990234375 683.573242188 24.9990234375 683.573242188 36.158203125 695.463867188 c 0,15,16
 47.25390625 707.134765625 47.25390625 707.134765625 63.9619140625 707.340820312 c 0,0,1
EndSplineSet
Validated: 1
EndChar

StartChar: parenleft
Encoding: 40 40 99
Width: 255
VWidth: 0
Flags: W
LayerCount: 2
Fore
SplineSet
168.538085938 700.091796875 m 0,0,1
 184.1640625 699.84375 184.1640625 699.84375 194.971679688 688.86328125 c 128,-1,2
 205.778320312 677.881835938 205.778320312 677.881835938 205.778320312 662.573242188 c 0,3,4
 205.778320312 647.908203125 205.778320312 647.908203125 195.8828125 637.182617188 c 0,5,6
 168.1171875 606.22265625 168.1171875 606.22265625 154.3125 569.408203125 c 0,7,8
 125.03125 491.333007812 125.03125 491.333007812 125.03125 352.232421875 c 0,9,10
 125.03125 212.926757812 125.03125 212.926757812 154.418945312 132.541992188 c 0,11,12
 168.568359375 93.8388671875 168.568359375 93.8388671875 196.4453125 61.2900390625 c 0,13,14
 205.780273438 50.7080078125 205.780273438 50.7080078125 205.780273438 36.525390625 c 0,15,16
 205.780273438 20.990234375 205.780273438 20.990234375 194.7890625 9.9990234375 c 128,-1,17
 183.796875 -0.9931640625 183.796875 -0.9931640625 168.26171875 -0.9931640625 c 0,18,19
 150.662109375 -0.9931640625 150.662109375 -0.9931640625 139.458007812 12.4833984375 c 0,20,21
 102.754882812 55.341796875 102.754882812 55.341796875 83.9501953125 106.778320312 c 0,22,23
 50 199.642578125 50 199.642578125 50 352.232421875 c 128,-1,24
 50 504.935546875 50 504.935546875 84.0595703125 595.755859375 c 0,25,26
 102.830078125 645.807617188 102.830078125 645.807617188 140.022460938 687.278320312 c 0,27,28
 151.189453125 700.091796875 151.189453125 700.091796875 168.538085938 700.091796875 c 0,0,1
EndSplineSet
EndChar

StartChar: parenright
Encoding: 41 41 100
Width: 255
VWidth: 0
Flags: W
LayerCount: 2
Fore
SplineSet
87.2421875 700.091796875 m 0,0,1
 104.590820312 700.091796875 104.590820312 700.091796875 115.7578125 687.278320312 c 0,2,3
 152.950195312 645.807617188 152.950195312 645.807617188 171.720703125 595.755859375 c 0,4,5
 205.780273438 504.935546875 205.780273438 504.935546875 205.780273438 352.232421875 c 128,-1,6
 205.780273438 199.642578125 205.780273438 199.642578125 171.830078125 106.778320312 c 0,7,8
 153.025390625 55.341796875 153.025390625 55.341796875 116.322265625 12.4833984375 c 0,9,10
 105.118164062 -0.9931640625 105.118164062 -0.9931640625 87.5185546875 -0.9931640625 c 0,11,12
 71.9833984375 -0.9931640625 71.9833984375 -0.9931640625 60.9921875 9.998046875 c 128,-1,13
 50 20.990234375 50 20.990234375 50 36.525390625 c 0,14,15
 50 50.7080078125 50 50.7080078125 59.3349609375 61.2900390625 c 0,16,17
 87.2119140625 93.8388671875 87.2119140625 93.8388671875 101.361328125 132.541992188 c 0,18,19
 130.749023438 212.926757812 130.749023438 212.926757812 130.749023438 352.232421875 c 0,20,21
 130.749023438 491.333007812 130.749023438 491.333007812 101.467773438 569.409179688 c 0,22,23
 87.6630859375 606.22265625 87.6630859375 606.22265625 59.8974609375 637.182617188 c 0,24,25
 50.001953125 647.908203125 50.001953125 647.908203125 50.001953125 662.573242188 c 0,26,27
 50.001953125 677.881835938 50.001953125 677.881835938 60.8095703125 688.86328125 c 128,-1,28
 71.6162109375 699.84375 71.6162109375 699.84375 87.2421875 700.091796875 c 0,0,1
EndSplineSet
EndChar

